<?xml version="1.0" encoding="utf-8"?>
<!-- Generator: Adobe Illustrator 25.4.1, SVG Export Plug-In . SVG Version: 6.00 Build 0)  -->
<svg version="1.1" id="レイヤー_1" xmlns="http://www.w3.org/2000/svg" xmlns:xlink="http://www.w3.org/1999/xlink" x="0px"
	 y="0px" viewBox="0 0 500 500" style="enable-background:new 0 0 500 500;" xml:space="preserve">
<style type="text/css">
	.st0{fill:#FFC574;}
</style>
<g>
	<g>
		<g>
			<g>
				<path class="st0" d="M268.3,35.8c2.6,0.1,5,0.1,5,0.1c0-0.3,0-0.5-0.1-0.8C271.5,35.3,269.8,35.5,268.3,35.8z"/>
				<path class="st0" d="M263.5,45.2c0.5,0,1,0,1.5,0c-0.2-0.2-0.2-0.4-0.3-0.6C264.3,44.8,263.9,45,263.5,45.2z"/>
				<path class="st0" d="M273.3,35.1c-0.3-2.9-2.4-5.8,0.4-8.6c1.5,0,3.6,0.1,5.8,0.3c2.2,0.1,4.3,0.2,5.8,0.4
					c3-1.3,0.3-3.1,0.4-4.7c2.9,0.2,5.9,0.5,6-0.3c0.5-0.5,0.7-0.9,0.6-1.4c-0.1-0.4-0.3-0.8-1-1.2c-1.2-0.8-3.4-1.4-6.3-1.9
					c-1.7,1-3.7,1.9-5.8,2.7c-1,0.4-2.1,0.8-3.2,1.2c-1.1,0.4-2.2,0.8-3.3,1.2c-4.3,1.5-8.4,2.9-11.1,4.3c-2.6,1.4-3.8,2.7-2.2,3.9
					c0.8,0.6,2.2,1.2,4.5,1.9c1.1,0.3,2.5,0.7,4,1C269.5,34.2,271.3,34.7,273.3,35.1z"/>
				<path class="st0" d="M251.3,41.7c2.4-0.2,4.8-0.2,7.2-0.3c2.4-0.1,4.8-0.1,7.2-0.1c1.5-1.8,3.6-3.6,2.1-5.4
					c-3.8,0.7-6.9,1.4-9.5,2.4C255.7,39.2,253.5,40.3,251.3,41.7z"/>
				<path class="st0" d="M446.1,135.7c-0.4,0.3-0.7,0.2-1.7-2.2C445,134.3,445.6,135,446.1,135.7c0.4-0.2,0.8-0.8,1.8,0.1
					c-6.5-7.4-14.8-15.7-24.1-22.4c-1.7-0.3-3.4-0.4-4.9-0.4c5.8,3.9,11.1,8.4,15.8,13.2c4.7,4.8,8.9,9.9,12.7,15.1
					c7.6,10.3,13.9,20.5,20.1,29.7c-3-7.1-6.2-12.8-9.6-18.3C454.3,147.1,450.7,141.8,446.1,135.7z"/>
				<path class="st0" d="M414.5,115.7c-0.8-0.5-1.5-0.9-2.3-1.4C413.9,116.2,414.2,116.1,414.5,115.7z"/>
				<path class="st0" d="M290.9,465.7c-8.4,0.6-16.4,1.4-24.1,2.1c-7.8,0.6-15.4,1.3-23.1,1.5c16.1,1.2,32.5,1.1,47.8-0.5
					c15.3-1.6,29.5-4.7,41.1-8.9C318.9,463.2,304.9,465.1,290.9,465.7z"/>
				<path class="st0" d="M166.9,458.1c9.8,5.1,19.4,8.6,28.7,10.8c9.2,2.2,18,3.3,26.6,3.8c-8.6-1.5-17-3.4-25.4-5.6
					c-8.5-2.3-16.8-5-24.9-8.1C170.3,458.7,168.5,458.4,166.9,458.1z"/>
				<path class="st0" d="M191.4,462.4c2.4,0.8,4.7,1.5,7,2.2c2.3,0.6,4.6,1.2,6.8,1.7c2.2,0.5,4.5,0.9,6.7,1.2
					c1.1,0.2,2.2,0.4,3.3,0.5c1.1,0.1,2.2,0.3,3.3,0.4c4.3,0.5,8.6,0.7,12.8,0.9c2.1,0.1,4.2,0.1,6.3,0.1c1,0,2.1,0,3.1,0l3.1-0.1
					c-9.1-0.7-18.2-1.6-26.9-2.9C208,465.2,199.6,463.9,191.4,462.4z"/>
				<path class="st0" d="M430.5,282.5c-0.4-9.8-0.9-15.3-0.9-18.4c-0.5-0.7-1-1.5-1.7-2.5c-0.6-1-1.3-2-2.1-3.2c0,0.5,0,1-0.1,1.5
					c0.9,8.9,0.7,18.6-0.4,28.7c0.1,4.2,0,8.3,0.4,11.8C427.6,294.6,429.3,288.6,430.5,282.5z"/>
				<path class="st0" d="M429.6,264.2c2,3.1,3.1,4,3.5,3.6c0.4-0.4,0.2-1.9-0.3-3.5C431.6,261.2,429.5,258.2,429.6,264.2z"/>
				<path class="st0" d="M459.2,342.1c-0.2,0.5-0.5,1.1-0.7,1.7c-0.6,1.7-1.2,3.4-1.8,5C457.5,346.5,458.4,344.4,459.2,342.1z"/>
				<path class="st0" d="M345.7,418c8.6-3.4,16.9-7.8,24.5-12.7c-8,4.8-16.4,9-24.7,12.6c-8.3,3.6-16.6,6.6-24.2,9.4
					c2.3-0.4,4.8-0.2,7.2-0.8c2.2-1.3,4.8-2.9,7.8-4.3c1.5-0.7,3-1.5,4.6-2.2c0.8-0.3,1.6-0.7,2.4-1
					C344.1,418.6,344.9,418.3,345.7,418z"/>
				<path class="st0" d="M471.6,262.5c0.2,13.9-1.1,27.7-3.3,41.3c-2.2,13.6-5.5,27-9.9,40c-2.9,6.3-6.1,12.4-9.5,18.4
					c-3.5,5.9-7.2,11.7-11.3,17.2c-1,1.4-2.1,2.7-3.1,4.1l-1.6,2l-1.6,2c-1.1,1.3-2.2,2.6-3.3,3.9c-1.1,1.3-2.3,2.5-3.4,3.8
					l-1.7,1.9l-1.8,1.8c-1.2,1.2-2.4,2.4-3.5,3.6c-1.2,1.2-2.4,2.3-3.7,3.5l-1.8,1.7c-0.6,0.6-1.3,1.1-1.9,1.7
					c-10,8.9-20.7,16.7-31.7,23.5c-11.1,6.8-22.4,12.8-34,17.8c-10.1,4.6-22.9,8.5-36.9,11c-7,1.2-14.4,2.2-21.9,2.8
					c-3.8,0.4-7.5,0.5-11.4,0.7c-1.9,0-3.8,0.1-5.7,0.1l-2.9,0.1l-2.9,0c-7.7,0-15.3-0.4-22.9-0.9c-3.8-0.3-7.5-0.6-11.2-1
					c-3.7-0.3-7.3-0.8-11-1.2c-3.6-0.4-7.1-0.9-10.6-1.3c-1.7-0.2-3.5-0.5-5.1-0.7c-0.9-0.1-1.7-0.2-2.5-0.3
					c-0.8-0.1-1.7-0.2-2.5-0.4c-6.7-0.9-13.1-1.9-19.1-2.5c2.3,1.1,4.5,2.1,6.7,3c2.2,0.9,4.4,1.7,6.6,2.5
					c-6.9-1.2-13.4-2.4-19.4-3.4c-18.2-6.9-35.6-15.8-51.9-26.6c-16.3-10.8-31.6-23.6-45.3-38.5c-13.6-14.9-25.6-32-34.8-51.2
					c-4.6-9.6-8.4-19.6-11.4-30.1c-3-10.4-5.1-21.2-6.2-32c-0.7-6.4-1.6-12-2.3-17.6c-0.3-2.8-0.6-5.6-0.8-8.6
					c-0.1-2.9-0.2-5.9,0.1-9.2c0.8-13,2.6-25.6,5.4-37.7c-0.2-0.1-0.4,0-0.6,0.3c2.8-12.7,6.6-25,11.2-36.9
					c4.6-11.9,10.1-23.3,16.2-34.4c6.2-11.1,13.1-21.8,20.7-32.1c3.8-5.1,7.8-10.2,12-15.2c1.1-1.2,2.1-2.5,3.2-3.7
					c1.1-1.2,2.2-2.4,3.3-3.7c1.1-1.2,2.2-2.4,3.3-3.6c1.1-1.2,2.2-2.4,3.3-3.5c17.2-17.4,38.3-32.1,61.8-43.8
					c4.4-2.2,7.1-2.4,9.3-2.5c1.1,0,2.1,0,3.3,0c1.1,0,2.4-0.2,4-0.6c12.7-3,23.8-4.5,35-5.6c11.3-1.1,22.7-1.8,36.3-2.1
					c0,0,0.1,1.6,0.2,2.3c2-0.3,4-0.5,5.8-0.6c1.8-0.1,3.5-0.1,5,0c-1.6,1.2-3.4,2.2-5.4,3.3c-2,1.1-4.1,2.1-6.1,3c-2,1-4,2-5.8,2.9
					c-0.9,0.5-1.7,0.9-2.5,1.3c-0.8,0.4-1.5,0.9-2.1,1.3c-2.4,1.7-3.4,3-1.7,4.1c0.8,0.5,2.3,1,4.6,1.4c2.3,0.5,5.4,0.8,9.5,1.3
					c0,0,0,0,0,0c-1.8,0.4-3.3,0.8-4.8,1.2c-0.2,0-0.4,0-0.5,0.1c0,0,0,0.1,0,0.1c-7.3,2.1-11.6,4.3-15.5,7.6c4.6-0.8,9.3-1.5,14-2
					c-0.8,1.2-1.2,2.3-0.6,3.4c-0.4,0.2-0.7,0.5-1.1,0.8c-2,0.3-3.7,0.5-3.7,0.5c-0.6,0.7-1,1.4-1.2,2c-5.7,2.6-12.9,5.2-18.1,7.9
					c-1.3,0.6-2.5,1.3-3.5,1.9c-1,0.6-1.8,1.2-2.4,1.7c-1.2,1-1.4,1.8-0.4,2.4c3,0.9,10.6-2.8,19.9-5.4c0.6,0.2,1.3,0.4,2,0.4
					c-3.1,0.7-4.5,1.4-5.1,2.1c-0.6,0.7-0.3,1.3,0.1,1.9c0.9,1.2,2.3,2.3-1.2,3.4c-9.5,2-18.6,5.4-27.5,8.9
					c-18.2,7-33.5,17-47.2,28.8c-6.8,5.9-13.3,12.3-19.4,19.2c-6.1,6.9-11.8,14.3-17,22.3c-0.9,1.4-1.9,2.8-2.8,4.2
					c-9.9,15.7-18,31.2-24.9,47.9c-0.1-1.3-0.2-2.6-0.1-3.9c-5.8,13.4-9.8,27.7-10.4,42.2c-0.6,17.7,1.6,35.1,6.8,51.5
					c2.6,8.2,5.9,16.2,9.9,24c4,7.8,8.7,15.3,13.9,22.7c5.5,7.7,11.7,14.9,18.5,21.5c6.8,6.6,14.1,12.6,21.9,18.1
					c7.8,5.4,16,10.3,24.6,14.6c8.6,4.2,17.5,7.9,26.8,10.9c-15.3-4.3-30.4-10.5-44.2-19.5c-6-4.3-11.8-8.9-17.2-13.4
					c5.4,5,11.2,9.5,17.2,13.4c11.6,8.3,24.2,15.6,37,20.5c6.4,2.4,12.8,4.2,19,5.3c6.2,1.1,12.3,1.4,18,0.9c2.1,1.2,2,1.9,4.2,2.4
					c7.8,1.8,15.7,3.3,23.3,4c7.6,0.7,15.1,0.5,21.8-1c0-0.4,1.7-0.6,3.1-0.8c1.4-0.3,2.5-0.7,1.4-1.5c6.6-0.4,13.7-1.1,20.7-2.3
					c3.5-0.5,6.9-1.3,10.3-2.1c1.6-0.5,3.3-0.9,4.9-1.4c1.6-0.5,3.1-1.1,4.6-1.6c0.7-0.2,1.3-0.5,2-0.7c0.6-0.3,1.3-0.6,1.9-0.9
					c1.3-0.6,2.5-1.3,3.7-1.9c1.2-0.7,2.4-1.5,3.5-2.3c1.2-0.8,2.3-1.6,3.4-2.5c20.2-9.3,37.7-22.8,50.4-38.8c3.2-4,6-8.1,8.7-12.6
					c2.7-4.4,5.1-9,7.3-13.9c4.4-9.7,7.8-20.3,10.4-31.5c2.7-11,5.6-24.6,6.6-35.5c0.2,4.1,0.3,8.4,0.1,12.8
					c-0.2,4.4-0.6,8.9-1.2,13.4c-1.1,9-3,17.9-5.6,26.6c-3.7,7.9-7.7,15.2-11.5,21.8c-1.9,3.4-3.8,6.5-5.5,9.7
					c-0.9,1.5-1.7,3.1-2.5,4.7c-0.8,1.5-1.6,3.1-2.3,4.6c-0.8,1.4-1.6,2.7-2.4,4.1c-0.8,1.4-1.8,2.6-2.7,4l2.4-2.7
					c0.8-0.9,1.5-1.8,2.2-2.8c1.5-1.8,2.8-3.7,4.2-5.6c2.7-3.8,5.2-7.7,7.4-11.8c2.2-4.1,4.3-8.3,6.1-12.7c1.8-4.4,3.4-8.8,4.8-13.3
					c4.3-9.3,8.2-19.5,10.6-30.1c0,0.2,0,0.4,0,0.7c-0.9,8.5-2.5,17-4.7,25.2c-3.1,7.4-6.5,14.3-9.8,20.7
					c-3.3,6.4-6.5,12.4-9.2,18.3c-0.7,1.4-1.4,2.9-2,4.3c-0.8,1.4-1.5,2.8-2.3,4.3c-0.8,1.4-1.7,2.8-2.6,4.2
					c7.7-9.2,13.7-19.5,18.5-30.5c3-6.8,5.5-13.9,7.4-21.2c1.8-4.3,3.5-8.9,5.1-13.4c0.1,0.5,0.1,1.1,0.1,1.6
					c-0.1,1.1,0.1,2.7,0.6,4.6c0.4,1.8,1.1,3.9,1.9,5.6c1.6,3.5,3.7,5.9,6,3.2c2.9-8.1,5.3-17.4,6.9-26.8c1.7-9.4,2.5-18.6,2.6-26.5
					c0.1-7.9-0.5-14.6-1.1-19.2c-0.6-4.6-1.1-7.3-0.9-7.3c0.7-0.6,2,2.2,3.2,7c1.2,4.8,2.2,11.6,2.5,18.7c0.3,7,0.1,14.3-0.3,19.6
					c-0.4,5.3-0.7,8.8-0.4,8.2c1.1-3.3,2-6.6,2.8-9.9c0.1,3.3,0.2,6.6,0.3,9.6c-0.2,1.8-0.5,3.7-0.9,5.6c-0.4,1.9-0.8,3.9-1.3,5.7
					c-0.4,1.9-0.9,3.7-1.2,5.3c-0.3,1.6-0.5,3.1-0.5,4.4c-0.2,8.6-2.6,17.3-6,25.9c-3.4,8.6-7.6,17.1-11.8,25.9
					c-2.4,5.6-5.4,11.7-9,17.9c-3.6,6.2-7.8,12.6-12.6,18.7c0.5,0.6-0.8,2-1.9,3.1c-1.1,1.1-2,2.1-0.5,1.9c-5.6,4.6-12,9-17.5,13
					c-1.4,1-2.7,2-3.9,3c-1.2,1-2.4,1.9-3.4,2.8c-1,0.9-1.9,1.9-2.7,2.8c-0.8,0.9-1.4,1.8-1.8,2.6c-0.3,0.2-0.6,0.4-0.9,0.6
					c-0.9,0.5-2.1,1.4-3.4,2.4c-11.3,4.9-20.8,9.2-30.3,13.3c-9.5,4.1-19,8-30.2,10.9c-3.9,0.7-7.8,1.2-11.9,1.7
					c-4,0.3-8.1,0.7-12.2,0.7c5.4,0,13.5,0.1,18.9-1.2c1.8-0.4,3.5-0.9,5.2-1.3c10.1-1.8,19.8-4.5,29-8c9.2-3.4,18-7.5,26.5-12.1
					c1.2-1.1,3.2-2.8,5.1-4.2c1.3-0.5,2.5-1.1,3.8-1.7c0.1-0.4,0.3-0.9,0.6-1.3c7.6-5.1,15.4-10.6,22.4-16.6
					c7-5.9,13.3-12.2,17.9-18.3c9.3-10.7,18-22.3,25.5-34.7c7.5-12.4,14-25.7,18.7-39.2c-3.2,14-7.8,27.6-13.7,40.5
					c7.9-15.9,12.9-31.8,16-47.5c0.7-2.4,1.4-4.7,2-7c0.6-2.5,1.3-4.9,1.8-7.4c0.6-2.5,1.1-5,1.6-7.5c-0.6,2.3-1.2,4.6-1.9,6.8
					c-0.3,1.1-0.7,2.3-1,3.4c-0.3,1.1-0.7,2.2-1,3.3c1.5-9.4,2.4-18.7,2.5-27.8c0.7-12.5,0.3-25-1.5-37.2L464,236l-0.4-2.3
					c-0.3-1.5-0.6-3-0.9-4.5c-0.3-1.5-0.7-3-1-4.5c-0.3-1.5-0.8-3-1.2-4.5c-1.7-6.1-3.5-12.1-5.5-18.1c-4-11.9-8.8-23.5-14.5-34.5
					c-2.9-5.5-5.9-10.8-9.3-15.8c-3.4-5-7-9.8-11-14.1c1.3,0,2.7,0.2,4.3,0.4c8,8.6,14.6,18.7,20.2,28.8
					c5.7,10.1,10.7,20.1,15.8,29.1c-2.2-6.8-4.6-12.4-7.3-17.7c-2.6-5.4-5.4-10.5-8.7-16.5c0.4-0.2,0.9-0.6,1.7,0.3
					c-4.9-7.4-11-15.6-17.5-22.9c3.5,1.1,7.4,2.7,11.1,4.6c2.2,1.7,4.3,4.2,6.4,7.1c2.1,2.9,4.2,6.2,6.4,9.6
					c8.4,14.8,14.2,30.3,18.8,46c1.1,3.9,2.2,7.9,3.2,11.9c0.5,2,0.9,4,1.4,6.1c0.4,2.1,0.8,4.1,1.2,6.2c1.4,8.3,2.2,16.7,2.5,25.2
					c-0.4,15.2-2.8,30-6.2,44.5c-3.5,14.4-8.1,28.6-14.2,42c5.1-13.8,8.3-27.4,10.3-40.7C471.5,288.2,472.3,275.2,471.6,262.5z
					 M189.7,49.8c-2.6,1.4-5.3,2.8-7.9,4.4c0.5,0,1-0.1,1.4,0C185.8,53.2,188,51.5,189.7,49.8z M132.3,82.3
					c7.9-5.5,16.8-12.1,26.9-18.5c5-3.2,10.3-6.4,15.9-9.4c5.6-2.9,11.3-5.7,17.1-8.1c0.1-0.3,0.1-0.5,0-0.6
					c-10.1,3.2-21,8.3-31.2,14.8C150.7,66.9,141,74.6,132.3,82.3z M67.5,129c0.2-0.1,0.3-0.2,0.5-0.3c-0.1-0.1-0.2-0.1-0.3-0.2
					C67.6,128.7,67.5,128.9,67.5,129z M157.6,424.6c-5.2-1.7-10.5-4.1-15.8-6.8c-5.3-2.8-10.8-6-16.1-9.7
					c-10.7-7.3-21.3-16.2-31.2-25.9c-2.8-3.1-6.1-5.7-9.6-8.8c-3.5-3-7.1-6.5-10.4-11.2c-4.3-5.7-7.9-10.2-11-14.7
					c-0.8-1.1-1.6-2.2-2.3-3.3c-0.7-1.1-1.5-2.2-2.2-3.4c-1.5-2.2-2.9-4.6-4.3-7.2c0.8,2.9,1.5,5.8,2.4,8.6
					c-4.3-9.4-8.3-16.5-11.8-24c-3.5-7.5-6.5-15.4-7.7-26c-0.8,0.2-2.8-2.6-3.3-5.6c-1.5-7.5-2-15.1-2-22.3c-0.1-1.8,0-3.6,0-5.3
					c0-1.7,0-3.5,0-5.1c0.1-3.3,0-6.6-0.2-9.6c0.1-3.8,0.4-7.5,0.7-11.2c0.2-1.8,0.4-3.7,0.6-5.5c0.2-1.8,0.5-3.6,0.7-5.4
					c1-7.1,2.2-13.7,3.1-19.7c0.4-1.4,0.5-3.7,0.6-6.5c0.2-2.7,0.3-5.8,1-8.8c2.1-7,4.7-13.9,7.6-20.7c-0.3,0.2-0.7,0.4-0.9,0.6
					c-2.4,5.4-4.7,11.1-6.3,17c-2.4,8.8-4.5,18.4-6.1,28.2c-1.6,9.7-2.5,19.6-3,28.7c-1.3,22.8,1.7,45.4,8.7,66.1
					c7,20.7,17.6,39.2,30.2,55.2c5.5,6.8,12.1,12.7,18.2,18.6c9.5,8.7,20.1,17.9,30.6,25.3c10.5,7.4,21,13,29.3,14.8
					C149.8,421.9,154.4,424.7,157.6,424.6z M197.3,406.1c-11.9-3.1-24.2-7.8-35.5-14.1c-5.6-3.1-11.1-6.6-16.1-10.3
					c-5-3.7-9.7-7.7-13.9-11.7c-3.4-3.2-8.6-7.7-14-13c-5.4-5.2-11.1-11.1-16.2-16.6c-1.2-1.4-2.5-2.7-3.7-4
					c-1.2-1.3-2.3-2.5-3.4-3.6c-2.1-2.3-4.2-4.2-5.9-5.7c-3.5-2.8-6-3.6-7.1-0.3c1.7,0.9,3.4,2.2,5.2,3.9c0.9,0.8,1.9,1.7,2.9,2.7
					c0.9,1,2,2.1,3,3.2c4.1,4.5,8.8,10,14.1,15.8c5.3,5.8,11.3,12,17.7,18c6.4,6,13.4,11.7,20.4,16.9c7,5.1,14.1,9.7,20.7,13.3
					c6.6,3.6,12.8,6.3,17.9,8.1c2.6,0.8,4.8,1.5,6.8,1.8c2,0.3,3.6,0.4,4.8,0.2C197.5,410.4,198.4,408.9,197.3,406.1z M372.8,381.1
					c-6.4,5.8-13.2,11-22.4,15.1C358.4,391.7,365.9,386.7,372.8,381.1z M290.8,439.7c16.1-3.5,32.2-7.7,47.6-13.5
					c15.3-6,29.8-13.6,41.9-23.1c4.7-3.7,9.5-7.2,14.2-11c2.4-1.8,4.6-3.8,6.9-5.8c1.2-1,2.2-2,3.3-3c1.1-1,2.2-2,3.2-3.1
					c1-1.1,2.1-2.1,3.1-3.2c1-1.1,1.9-2.2,2.9-3.3c1.9-2.2,3.6-4.6,5.2-6.9c3.1-4.8,5.6-9.8,7.2-14.9c-0.7-0.4-1.3-0.8-2-1.2
					l-0.6,2.3c-4.7,6.5-9.6,10.7-14.3,15.2c0.2-0.3,0.4-0.7,0.6-1c-0.4,0.5-0.8,1-1.2,1.5c-0.8,0.7-1.6,1.5-2.4,2.3
					c-0.8,0.8-1.6,1.6-2.4,2.4c-0.8,0.8-1.6,1.7-2.4,2.6c-0.8,0.9-1.7,1.8-2.5,2.8c-1.4,2-3.1,3.8-4.7,5.7
					c-5.2,4.8-10.7,9.3-16.6,13.4c-5.9,4.1-12,7.9-18.3,11.5c-6.2,3.6-12.7,6.7-19.1,9.7c-1.6,0.7-3.2,1.5-4.8,2.2
					c-1.6,0.7-3.2,1.4-4.8,2.1c-1.6,0.7-3.2,1.3-4.8,2c-0.8,0.3-1.6,0.7-2.4,1c-0.8,0.3-1.6,0.6-2.4,0.9c-8,2.8-15.5,5.5-23.3,7.6
					c-7.8,2.2-15.9,4-24.7,4.9c2.5,0.1,5.6,0.3,8.8,0.4C285.1,440.2,288.3,440.2,290.8,439.7z"/>
				<path class="st0" d="M461.8,308.2c0.5-2.7,0.9-5.4,1.4-8.1c0.4-2.7,0.8-5.4,1.1-8.2c0.7-5.4,1.2-10.9,1.5-16.4
					c0.1-8.5-0.4-16.9-1.6-25c-0.6-4.9-1.3-9.8-2.2-14.7c-0.2-1.2-0.5-2.4-0.7-3.7c-0.3-1.2-0.5-2.4-0.8-3.7
					c-0.6-2.5-1.2-4.8-1.9-7.4c-2.8-10.1-6-20.4-9.9-30.4c-3.9-10-8.4-19.8-13.8-28.8c-5.4-9-11.7-17.1-18.9-23.5
					c-2.4,0.9-4.1,2.5-4.9,5.1c6.3,7.1,12,15.4,17.1,24.6c5.1,9.1,9.6,19,13.4,29.3c1.9,5.1,3.7,10.4,5.2,15.7
					c0.8,2.7,1.5,5.3,2.2,8c0.4,1.3,0.7,2.7,1,4l0.8,3.8c2,10.1,2.6,20.6,1.7,31.2c0.1,0.3,0.1,0.7,0.2,1c1.8,9.3,1,21.8-1.4,34.7
					c-2.4,13-6.1,26.1-9.3,37.8c-1.4,5.9-3.2,11.8-5.5,17.5c-2.3,5.7-5,11.2-8,16.6c-3,5.4-6.5,10.5-10.1,15.6
					c-1.9,2.5-3.7,5.1-5.7,7.5l-3,3.7l-3.1,3.6c6.9-5.9,13.3-12.4,18.9-19.3c5.6-6.9,10.6-14.3,15-21.9
					C449.6,341.7,456.3,325.3,461.8,308.2z"/>
				<path class="st0" d="M222.2,472.8c11.2,1.9,22.6,3.2,34.1,3.8c2,0,4,0.1,6,0.1c1,0,2,0,3,0c1,0,2,0,2.9-0.1c2,0,3.9-0.1,5.8-0.1
					c1.9-0.1,3.9-0.2,5.8-0.3c1.9-0.1,3.8-0.3,5.7-0.4c1.9-0.2,3.8-0.4,5.6-0.6c1.9-0.2,3.7-0.5,5.6-0.7l2.8-0.4l2.7-0.5
					c1.8-0.3,3.6-0.6,5.5-0.9c1.8-0.4,3.6-0.8,5.4-1.1c3.6-0.7,7.1-1.7,10.7-2.6c7-2,14-4.1,20.8-6.8c-20.4,6.1-41.7,9.1-63,9.2
					c-10.7,0.5-20.6,1-30.2,1.4C241.6,473.1,232.1,473.3,222.2,472.8z"/>
				<path class="st0" d="M365.9,452.4c-7,3.7-14.1,6.9-21.4,9.7c15.1-4.5,29.6-10.7,43.3-18.4c3.4-2,6.8-3.9,10.1-6.1
					c1.6-1.1,3.3-2.1,4.9-3.2l4.8-3.4c6.3-4.7,12.4-9.6,18.1-15c2.3-2.2,4.5-4.7,6.7-7c2.2-2.4,4.3-4.9,6.4-7.3c2-2.6,4-5.1,6-7.7
					l2.8-3.9c0.9-1.3,1.8-2.7,2.7-4c1.8-2.6,3.4-5.4,5.1-8.1c1.6-2.8,3.2-5.5,4.6-8.3c3-5.6,5.6-11.3,7.9-17.1
					c2.4-5.8,4.4-11.6,6.3-17.5c1.8-5.9,3.4-11.8,4.7-17.8c2.6-11.9,4.3-23.8,5-35.9c0.4-5.5,0.6-10.9,0.7-16.4
					c-0.8,11.2-2.7,22.3-5.1,33c-2.5,10.7-5.5,21.4-9.4,31.7l-1.5,3.9l-1.6,3.8c-1,2.6-2.2,5.1-3.3,7.6c-2.3,5-4.7,9.9-7.4,14.7
					c-5.3,9.6-11.3,18.8-18.1,27.4c-13.6,17.2-29.8,31.6-47.1,43.3c-17.3,11.7-35.7,20.9-54.3,28c-1.4,0.5-2.9,1.1-4.4,1.6
					c18.4-4.4,35.9-11.4,52.3-20.4c16.3-9.2,31.3-20.6,44.3-34.1c-8.9,9.7-18.7,18.5-29.3,26.4C389.2,439.7,377.9,446.5,365.9,452.4
					z"/>
				<path class="st0" d="M459.6,318.6c0.8-2.3,1.5-4.6,2.3-6.9c0.5-2.8,1.1-5.5,1.5-8.3c-0.5,1.6-1,3.3-1.5,4.9
					C461.2,311.7,460.4,315.1,459.6,318.6z"/>
				<path class="st0" d="M409.5,368.1c-0.2,0.2-0.4,0.4-0.6,0.6c-4.3,5.5-9.1,10.9-14.5,15.8c-6.7,7.6-15,14.7-24.2,20.8
					c8.6-5.2,16.6-11.2,23.3-17.5C400.2,381.4,405.7,374.6,409.5,368.1z"/>
				<path class="st0" d="M352.2,388.2c-0.9,0.5-2.3,1-3.7,1.7c-0.7,0.3-1.4,0.6-2,0.9c-0.6,0.3-1.2,0.5-1.7,0.7
					c-1,0.9-1.9,1.8-2.9,2.7c1.8-0.7,3.6-1.4,5.4-2.1C348.9,390.8,350.6,389.6,352.2,388.2z"/>
				<path class="st0" d="M229.2,410.2c39.9,6.6,77.9,1.9,108.7-12.6c1.4-1.1,2.7-2.2,4-3.4c-1.3,0.5-2.7,0.9-4,1.4l-2,0.7
					c-0.7,0.2-1.3,0.4-2,0.6l-4,1.3c-1.4,0.4-2.7,0.8-4,1.2c-1.3,0.4-2.7,0.8-4.1,1.1c-1.4,0.3-2.7,0.8-4.1,1.1
					c-2.7,0.6-5.5,1.4-8.2,2c-11,2.6-22.1,4.5-33.1,6.5c-2.2,0.4-4.9,1-7.7,1.5c-2.8,0.4-5.6,0.9-7.8,0.6
					c-10.5-0.7-20.9-1.6-31.1-3.1c-2.6-0.4-5.1-0.8-7.7-1.2c-2.5-0.5-5.1-0.9-7.6-1.4c-5-1-10-2.2-15-3.6c4.7,1.5,9.4,2.9,14.2,4
					c4.8,1.2,9.8,2.2,14.7,3C228.7,410.1,228.9,410.1,229.2,410.2z"/>
			</g>
		</g>
	</g>
</g>
</svg>
