<?xml version="1.0" encoding="utf-8"?>
<!-- Generator: Adobe Illustrator 25.4.1, SVG Export Plug-In . SVG Version: 6.00 Build 0)  -->
<svg version="1.1" id="レイヤー_1" xmlns="http://www.w3.org/2000/svg" xmlns:xlink="http://www.w3.org/1999/xlink" x="0px"
	 y="0px" viewBox="0 0 500 500" style="enable-background:new 0 0 500 500;" xml:space="preserve">
<style type="text/css">
	.st0{fill:#F7931E;}
	.st1{fill:#FFFFFF;}
</style>
<rect x="-0.5" y="0.5" class="st0" width="500.5" height="500"/>
<g>
	<g>
		<g>
			<g>
				<g>
					<path class="st1" d="M51.4,78.2c-0.7,1.5,0.1,2.7,0.7,4C52.6,80.5,52.4,79.3,51.4,78.2z"/>
					<path class="st1" d="M52.1,82.2C52.1,82.2,52.1,82.2,52.1,82.2C52.1,82.2,52.1,82.2,52.1,82.2C52.1,82.2,52.1,82.2,52.1,82.2z"
						/>
					<path class="st1" d="M271,232.1c-0.3-0.2-0.6-0.4-0.9-0.6C270.4,231.7,270.7,231.9,271,232.1z"/>
					<path class="st1" d="M88.6,136.9l2-1.3c2,2.5-1.6,2.4,0.7,4.4c3.4-1.2,2.8,4.1,4.9,3.8c-0.2,0.1,0.6,1.4-0.3,2
						c1.7-0.8,1.3,0.9,2.2,1.4c0.6-0.1,0.3-0.5,0.6-1.1l1.8,1.3c0.1,1-0.7,1.9-1.4,1.3c2.9,4.8,18.3,26.7,23.1,30.7
						c0.6-1.5-1.4-2.3-0.1-4.3c2,0.4,1.2,2.1,2.6,1.8c-2.1,2.6,1.7,3.2-0.1,6.2l1.7-0.8l-0.4,1.3c6,4.1,1.7,0.6,5.5,5.6
						c2.6,2.6,5.6,2.2,6.2,4.3c-0.2-0.2,0.2-1.6,1.1-1.2c-1.1,1.2,2.5,1.1,1.6,2.5c0.8,0.6,2.5,2.9,3.5,0.7
						c-0.5,1.1,0.9,3.4-0.8,2.8c0.5,0.7,0.9,1.6,1.7,1.7l-0.3-1.3c2.3,2,2.1,4.4,4.9,4.5l-0.1-1.4c1.3,1.3,2.4,2.3,1.3,4.3l-1.7-0.9
						c2,2.2,3.3,3.5,5.9,4.5l-0.6-0.7c3.8,0.9,16.4,11.9,20.5,12l0.3-2.1l2.8,0.8c-0.2-0.2-4.8,2.9-4.6,2.4c1,0.9,3,2.9,5.5,5.3
						c1.3,1.2,2.6,2.5,4.1,3.9c1.5,1.4,3,2.8,4.5,4.2c3,2.9,6,5.8,8.4,8.2c2.5,2.4,4.3,4.3,5,5.4c0.8,2.1-1.6,2.2-1.8,2.4
						c2.2,1.2,2-0.6,3.4,1c0.2,0.6-1,0.9-1.4,0.8c0.8,0.5,1,1.5,1.6,1c-0.4-1.2,1.4-2.4,2-3.8l1.8,2l-1,0.9c0.4,0.4,3.6-1.6,5,0.7
						c2.9,3.4,6.8,6.3,9.9,9.5c-0.6,0.6-1.6,0.3-2.6,0c0.4,0.4,1.2,0.9,1.3,1.7c0.1-1.8,2,0.6,1.8-0.5c4.6-0.3,5.9,4.7,9.5,4.9
						c1-1,10.3-9.6,19.6-18.3c9.3-8.7,18.5-17.6,19.6-18.9c0.6,0.6,1.2,1.2,1.2,1.5c0.4-0.8-0.6-2.1-1.6-2.3l-1.3,1.3
						c-1.9-0.8,0.4-1.1-1.2-2.3c0.9-1.2,2.5-0.3,3.7,0.6c-1-1.1-1.3-2.8-2.8-1.9c-0.6-1.3,1.3-1.3,0.5-2.9c-1.1-0.4-3.3-0.2-3.7-1.8
						l0.2-0.2c-1.4-3.3-5.2-1.4-6.3-4.5l0.6-0.2c-0.2-1.3-2.5-1.8-3.2-3.7c0.2,0.6-0.2,1.7-1.2,1.1c-0.9-2.1-2.7-2.4-3-4.3l-2.1,0.1
						c-1.3-1.3-3.7-3.4-6.7-6c-1.5-1.3-3.1-2.7-4.8-4.1c-0.8-0.7-1.7-1.5-2.6-2.2c-0.9-0.8-1.7-1.5-2.6-2.3
						c-3.5-3.1-6.9-6.1-9.9-8.7c-2.9-2.7-5.3-4.9-6.6-6.2l0.4,0c-4.3-3.8-10.3-10.2-16.6-16.5c-3.1-3.2-6.2-6.4-9.1-9.2
						c-3-2.8-5.6-5.5-8-7.4c-0.1-2.4-2-4.1-3-5.8c0.2,1.2-0.8,1.6-1.3,0.9c-3.7-4.6-1,0.4-5.4-3.8c-2.7-2.2-8.1-8.6-13-15.3
						c-5-6.6-9.5-13.5-10.9-16.3c-3.8-1.2-5-5.5-8.1-7.2l0.6-0.1c-1.4-1.1-4.8-5.9-8.1-10.7c-3.4-4.9-6.8-9.8-8.3-11.2l0.1,0.6
						c-3.2-2-1.1-3.1-2.2-5.8c-1.7,1.8-4.7,0.2-5.5-0.6l0.4-0.3c-1.4-1.2-5.5-3-7.5-5.2l1.1-0.7c-2.6-1.1-4.9-5.1-6-6.4
						c-2-3.5-3.8-9.8-8.4-13l1-5l-0.6-0.2c0,0-39.9,23.1-43.5,34.6L52.9,80l1,1c0.5,1.7,2.2,1.4,1.1,2.1l-1.3-1.9
						c0.7,1.6-0.6,1.1-1.6,1c0.3,0.6,0.6,1.3,0.6,2c0.6,0,0.3-0.5,0.4-0.9c0.9,0.4,2.7,0.7,2.9,2c0.9,1.5-1.7,1.4-0.6,3.1
						c5.6,9.1,10.6,18.3,17.4,26.8c-0.3,0.5-0.5,0.3-0.8,0.2c2.4,2.3,4,4.7,6.3,6.7c0,1-0.5,1.7-0.8,2.2
						C78.2,123.1,88.6,136.5,88.6,136.9z"/>
				</g>
			</g>
		</g>
	</g>
</g>
<g>
	<g>
		<g>
			<g>
				<g>
					<path class="st1" d="M417.1,22.2c-2.2,0.2-4.1,2.2-6,4C413.4,25.6,415.3,24.4,417.1,22.2z"/>
					<path class="st1" d="M411,26.2C411,26.3,411,26.3,411,26.2C411,26.3,411,26.2,411,26.2C411,26.2,411,26.2,411,26.2z"/>
					<path class="st1" d="M243.9,490.5c0.1-0.7,0.2-1.4,0.3-2.2C244,489,243.8,489.7,243.9,490.5z"/>
					<path class="st1" d="M323,119l1.5,1.9c-4.1,4.7-3.3-0.5-6.7,4.3c1,3.9-6.6,7-6.6,9.6c-0.2-0.2-2.1,1.8-2.8,1
						c0.8,1.9-1.6,2.5-2.5,4.1c0,0.8,0.7,0,1.5,0l-2.2,3.5c-1.5,0.8-2.6,0.4-1.6-1.1c-7.6,7.6-43,44.8-50,54c2-0.2,3.7-3.5,6.2-3
						c-1.1,3.1-3.3,3.1-3.2,4.9c-3.2-1.3-5,4.5-9,4l0.8,1.9l-1.8,0.4c-7.5,11.3-1.3,2.9-9.5,11.5c-2.2,2.7-3.3,5-4.3,7
						c-1,1.9-1.9,3.6-4,5.3c0.5-0.6,2.6-1.3,1.5,0.7c-0.8-0.3-1.4,0.8-2.8,3.1c-1.2,2-2.4,4.2-3.5,4.4c-0.8,1.4-2.7,4.4-3.6,6.8
						c-0.9,2.4-1.1,4.2,0.6,3.1c-0.9,0.6-2.3,3-3.2,4.6c-0.9,1.6-1.6,2.5-1.1-0.4c-1.1,3-2.1,6-2.1,8.4c0.5-1.3,1-2.6,1.5-3.8
						c-0.6,2.5-1.1,4.7-1.5,6.7c-0.3,1.3-0.6,2.5-0.9,3.6c-0.4,1.9-0.7,3.6,0,5.6l1.2-2c-0.4,3.4-0.7,6.3-3.1,7.3l-0.1-3.6
						c-0.8,5.6-1.3,9-0.9,13.9l0.3-1.7c1.2,6.3-2,37.8-0.2,43.8l2.1-2.3l0.7,5c0.1-0.6-5.1-3.2-4.5-3.5
						c-1.5,10.2-8.7,63.1-11.3,72.3c-1.5,3.6-2.8,0.3-3,0.2c-0.1,4.7,1.5,2.3,0.7,6.2c-0.5,1-1.3-0.4-1.4-1.1
						c-0.1,1.7-0.9,3.2-0.2,3.5c1-2,2.9-0.8,4.4-1.5l-1,5l-1.3-0.4c-0.2,1.1,3.1,3.4,1.6,8.2c-1.9,8.2-2.9,17.4-4.6,25.7
						c-0.8-0.3-0.9-2.1-1.1-3.9c-0.2,1.1-0.3,2.9-1,3.8c1.7-1.8,0.4,3.7,1.2,2.2c2.2,6.7-2,14.1-0.7,19.9
						c2.8,0.9,47.7,19.6,51.2,20.1c-0.3,1.7-0.7,3.3-1,3.8c0.9-0.3,1.8-3.5,1.6-5.4l-1.8-0.6c0-4.1,1.2-0.8,1.8-4.7
						c1.5,0,1.3,3.7,0.9,6.9c0.6-2.9,2.2-5.5,0.7-7c1.1-2.6,1.8,0.6,3-2.6c-0.1-2.4-1.1-5.7,0.3-8.2l0.3,0.1
						c2.6-6.2-0.7-10.3,1.8-16l0.4,0.7c1.2-2,0.7-6.3,2.2-9.9c-0.5,1-1.7,1.8-1.5-0.5c1.6-4.2,1.2-7.3,2.9-10.3l-1-3.3
						c2.7-15.1,10.2-75.2,12.4-90.4l0.1,0.6c1.5-11.6,4.2-29.3,6.7-47.1c0.6-4.5,1.2-8.9,1.9-13.3c0.3-2.2,0.6-4.3,0.9-6.5
						c0.1-0.8,0.2-1.6,0.3-2.4c0-0.2,0-0.3,0-0.5c0-0.7,0.1-1.3,0.4-1.9c0.1-0.2,0.1-0.3,0.2-0.5c0,0,0.2-0.3,0.3-0.5
						c0.2-0.2,0.3-0.5,0.5-0.7c0.7-1,1.7-2.3,2.6-3.5c3.6-1.8,6.8-5.9,9.7-8.6c-1.9,1.2-2.2,0-1-1.3c8-8.8-0.2-1.3,7.3-10.7
						c8.2-11.3,44.6-49.9,53.7-58.3c2.8-6.4,9.5-11.5,12.8-17.2l-0.1,0.8c4-5.7,31.7-33.9,36.5-40.4l-1,0.6c3.7-6.2,4.8-3.9,9.1-7.5
						c-2.3-1.1,0.7-6.5,2.1-8.4l0.3,0.4c2-2.9,5.7-10.2,9.2-14.7l0.8,1.1c2.1-4.5,8.5-10.9,10.7-13.5c5.6-5.5,15.4-13.1,21.1-22.1
						l7.4-2.6l0.4-1c0,0-27-38.6-43.5-34.7l-0.8-1l-1.7,2.2c-2.7,2-2.5,4.2-3.4,3.1l3.1-3.3c-2.5,2.2-1.5,0-1.2-1.4
						c-1,0.9-2,1.8-3.1,2.4c-0.1,0.8,0.7,0,1.3-0.2c-0.8,1.6-1.5,4.3-3.4,5.5c-2.3,2.5-1.8-1.3-4.5,1.6c-14.6,14.9-29.2,29-43,45
						c-0.7,0-0.3-0.4-0.1-1c-3.8,5.1-7.7,9.2-11.1,13.9c-1.5,0.8-2.4,0.6-3.1,0.6c0.7,0-4.4,6.2-9.7,12.4c-2.7,3.1-5.4,6.2-7.5,8.5
						S323.1,119,323,119z"/>
				</g>
			</g>
		</g>
	</g>
</g>
</svg>
