<?xml version="1.0" encoding="utf-8"?>
<!-- Generator: Adobe Illustrator 25.4.1, SVG Export Plug-In . SVG Version: 6.00 Build 0)  -->
<svg version="1.1" id="レイヤー_1" xmlns="http://www.w3.org/2000/svg" xmlns:xlink="http://www.w3.org/1999/xlink" x="0px"
	 y="0px" viewBox="0 0 500 500" style="enable-background:new 0 0 500 500;" xml:space="preserve">
<style type="text/css">
	.st0{fill:#FFBE64;}
</style>
<g>
	<g>
		<g>
			<path class="st0" d="M322.6,475.2c-2.4-1.1-4.9-2.1-7.4-3.1c-22.8-9-47-15.1-72.2-20.8c-25.2-5.7-51.6-10.8-79.3-18.5
				c-19.3-5.7-40.3-12.1-60.4-21.8c-10-4.8-19.8-10.5-28.8-17.3c-9-6.7-17.1-14.6-23.8-23.1c7.8,10.3,17.3,19.2,27.6,26.7
				c10.4,7.5,21.6,13.6,33,18.6c22.9,10.1,46.9,16.4,70.2,22c23.3,5.6,46.5,10.6,68.8,16.3c5.6,1.4,11.1,2.9,16.6,4.4
				c5.5,1.6,10.9,3.1,16.2,4.8c5.4,1.6,10.6,3.5,15.8,5.3c5.1,1.9,10.3,3.8,15.2,5.9c-8.9-0.8-19.3-2-31.1-5.1
				c-28.2-8.2-57.3-14.2-86.7-20.8c0.2-0.9,0.6-2.6,0.7-3.5c-10.5-1.8-20.9-4-31.3-6.3c-10.4-2.4-20.8-5.2-31.2-8.6
				c-10.3-3.4-20.5-7.4-30.5-12.2c-10-4.8-19.7-10.5-28.9-17.2c-9.2-6.7-17.7-14.6-25.2-23.6c-1.8-2.3-3.6-4.6-5.4-6.9
				c-0.8-1.2-1.7-2.4-2.5-3.6c-0.8-1.2-1.6-2.4-2.4-3.7c-3.1-5-5.8-10.1-8.2-15.4c-4.8-10.5-8.3-21.5-10.9-32.7
				c-2.5-11.2-4.1-22.7-4.6-34.5c-0.5,3.4-1.2,1.4-1.8,0.7c0-0.2,0-0.5,0-0.7c0,0.2,0,0.4,0,0.7c-0.3-0.3-0.5-0.4-0.6,0.4
				c-0.1,0.8-0.3,2.4-0.2,5.3c-0.1-3,0-4.6,0.2-5.3c0.2-0.8,0.4-0.7,0.6-0.4c0.1,11.8,1.4,23.3,3.7,34.5
				c2.4,11.2,5.8,22.3,10.6,32.9c2.4,5.3,5.1,10.5,8.2,15.5c1.5,2.5,3.2,5,4.9,7.4c1.7,2.4,3.6,4.7,5.4,7c7.5,9,16.1,16.9,25.3,23.7
				c9.2,6.7,18.9,12.4,28.8,17.2c9.9,4.8,20,8.9,30.2,12.3c10.2,3.5,20.4,6.5,30.7,9.2c10.2,2.7,20.4,5.1,30.6,7.5
				c-7.9-1.8-15.9-3.6-23.9-5.6c-8-1.9-16.1-4-24.1-6.4c-4-1.1-8.1-2.5-12.1-3.7c-2-0.7-4-1.4-6-2.1l-3-1l-3-1.1
				c-8-2.9-16-6.4-23.9-10.3l-5.9-3l-5.8-3.3c-1.9-1.1-3.8-2.3-5.7-3.5l-2.8-1.8c-0.5-0.3-0.9-0.6-1.4-0.9l-1.4-1l-5.5-4
				c-1.8-1.4-3.6-2.9-5.3-4.3c-0.9-0.7-1.8-1.4-2.6-2.2l-2.5-2.4l-2.5-2.4l-1.3-1.2c-0.4-0.4-0.8-0.8-1.2-1.3l-4.8-5.1
				c-1.6-1.7-3-3.6-4.4-5.4l-2.2-2.8l-2.1-2.9c-1.3-1.9-2.6-3.9-3.9-5.9c-4.9-8-8.9-16.4-12.1-24.9c-3.2-8.6-5.6-17.3-7.3-26.2
				c-0.9-4.4-1.5-8.9-2-13.4c-0.5-4.5-0.9-9-1-13.6c-0.6-18.2,1.9-37,8.7-54.9c1.6-4.5,3.6-8.8,5.7-13.1c1.1-2.1,2.2-4.2,3.4-6.3
				c1.2-2,2.4-4.1,3.8-6.1c5.3-8,11.4-15.6,18.6-22.3c7.1-6.7,15.1-12.7,23.9-17.5c8.7-4.8,18-8.4,27.3-10.9c3.2-0.9,8-2,12.8-2.9
				c4.8-0.9,9.6-1.4,12.8-1.7c6.4,0.1,12.7,0.4,19,0.9c6.2,0.5,12.3,1.2,18.3,2c12,1.6,23.6,3.6,34.9,5.6c-3.2,1.7,0.4,5.8-0.7,8.2
				c-0.6,1.2-2.3,2-6.7,1.9c-4.4,0-11.4-1.1-22.8-2.7c-0.1,0.9-0.3,2.7-0.4,3.6c11.1,2.3,20.2,5.5,27,8.6c6.8,3.1,11.2,6.1,12.9,8.5
				c1.7,2.4,0.6,4.3-3.7,5.3c-4.3,1-11.8,1-22.6,0.2c-12.1-1-24.8-2-37.6-1.8c-12.7,0.2-25.7,1.8-37.7,5.7c-6,1.9-11.6,4.5-16.9,7.7
				c-5.2,3.3-10.1,7.2-14.5,11.8c-4.4,4.5-8.3,9.7-11.5,15.2c-3.2,5.5-5.9,11.4-7.6,17.4c-5.5,17.4-5.8,37-2.1,56
				c1.8,9.5,4.5,18.7,8.2,27.2c1.8,4.3,3.9,8.4,6.2,12.2c2.3,3.9,5,7.5,7.8,11.1c1,1.2,2,2.4,3,3.7c1.1,1.2,2.2,2.3,3.3,3.5
				c0.6,0.6,1.1,1.2,1.7,1.7l1.8,1.6l1.9,1.7c0.6,0.6,1.2,1.1,1.9,1.6c1.3,1,2.7,2.1,4,3.1c0.6,0.5,1.4,1,2.1,1.5l2.1,1.5l2.1,1.5
				c0.7,0.5,1.5,0.9,2.2,1.4c1.5,0.9,3,1.9,4.5,2.7c6.2,3.5,12.8,6.6,19.7,9.5c6.9,2.8,14,5.4,21.3,7.7c7.3,2.3,14.8,4.5,22.4,6.4
				c3.8,1,7.7,2,11.5,2.9c3.9,1,7.7,1.9,11.5,2.9c15.4,3.8,30.8,7.5,45.9,11.5c11,2.7,26.4,5.6,40.5,8.8c14,3.2,26.6,6.8,31.8,9.8
				c3.8,1.8,5.6,3.3,6.3,4.4c0.6,1.2,0.1,2.1-0.8,2.9c-18-6-36.2-10.6-54.3-14.9c-18.1-4.2-36.2-7.9-54-11.8
				c-10.9-2.5-21.7-5.1-32.4-7.8c-10.8-2.7-21.3-5.7-31.5-9.1c-10.3-3.4-20.2-7.4-29.7-12c-9.4-4.6-18.3-10-26.2-16.2
				c7.6,6.2,16.3,11.7,25.6,16.4c9.3,4.7,19.2,8.7,29.5,12.1c10.3,3.5,20.9,6.4,31.7,9.1c10.9,2.7,21.9,5.2,33,7.6
				c35.4,8.1,71.5,15.7,106.6,27.9c-1.9,1.3-3.6,2.8-2.1,5.1c0,0,2.7,0.9,6.1,2c3.4,1.1,7.4,2.6,10,3.5c1.2,0.7,2.4,1.5,3.4,2.1
				c1,0.7,1.9,1.4,2.7,2c1.6,1.3,2.9,2.5,3.8,3.5c1.8,2.1,2.3,3.7,1.7,5c-1,2.5-5.9,3.5-11.7,3.6
				C329.5,475.4,326.1,475.4,322.6,475.2z"/>
		</g>
	</g>
</g>
<g>
	<g>
		<g>
			<path class="st0" d="M396.5,457.9c0-1.7,0-3.4,0-5.1c0-1.7,0.1-3.4,0.1-5.1c0.2-7.8,0.8-15.5,1.8-23c1-7.6,2.3-15,3.9-22.4
				c1.6-7.4,3.5-14.6,5.6-21.9c2.1-7.2,4.4-14.4,6.8-21.4c4.9-14.1,10.3-28.1,15.7-42.1c5.4-14,10.9-28.1,15.7-42.6
				c3.5-10.1,6.4-20.7,8.7-31.8c2.3-11,3.8-22.4,4.6-33.7c1.7-22.8,0.6-45.8-2.4-66.8c1.6,12.5,2.4,25.2,2.5,38
				c0.1,12.7-0.7,25.5-2.1,38.3c-1.5,12.7-3.8,25.4-6.9,37.8c-3.1,12.4-7,24.7-11.5,36.9c-8.9,24.5-19.5,48.8-28.4,74.3
				c-2.2,6.4-4.3,12.9-6.2,19.4c-1.9,6.5-3.6,13.1-5.1,19.8c-1.4,6.7-2.8,13.4-3.7,20.3l-0.4,2.6l-0.3,2.6c-0.2,1.7-0.4,3.5-0.6,5.2
				c-0.2,3.5-0.6,6.9-0.6,10.4c-1.2-5.6-1.9-11.9-2.2-18.7c-0.1-6.8,0.3-14,1.6-21.7c3.6-18.2,8.8-35.5,14.7-52
				c5.8-16.5,12.2-32.1,18-47.5c0.9,0.3,2.5,0.9,3.4,1.2c3.7-11.1,7.3-21.9,10.6-32.6c3.3-10.7,6-21.2,8.2-31.9
				c4.4-21.4,6.9-43,6.9-64.8c0-10.9-0.6-21.7-1.8-32.6c-1.2-10.9-3-21.4-6-31.4c-1.5-5-3.2-9.8-5.3-14.4l-0.8-1.7l-0.8-1.7
				c-0.5-1.1-1.2-2.2-1.8-3.3c-0.6-1.1-1.3-2.1-1.9-3.2c-0.7-1-1.3-2.1-2-3.1l-2.2-3c-0.7-1-1.6-1.9-2.4-2.9c-1.5-2-3.3-3.7-5-5.5
				c-3.6-3.5-7.4-6.8-11.6-9.6c2,2.1,0.2,1.7-0.7,1.8c-0.2-0.1-0.3-0.2-0.4-0.3c0.1,0.1,0.3,0.2,0.4,0.3c-0.4,0-0.5,0.2-0.2,0.7
				c0.4,0.5,1.4,1.3,3.2,3c-1.8-1.6-2.8-2.5-3.2-3c-0.4-0.5-0.2-0.7,0.2-0.7c7.8,5.9,14.3,13.1,19.6,20.9c0.7,0.9,1.2,2,1.9,3
				c0.6,1,1.2,2,1.8,3c0.6,1.1,1.1,2.1,1.6,3.2l0.8,1.6l0.7,1.6c2,4.4,3.7,9,5.1,13.8c2.9,9.6,4.8,19.8,6.1,30.4
				c1.3,10.5,2.1,21.1,2.3,31.7c0.4,21.2-1.6,42.5-5.9,63.4c-2.1,10.5-4.9,20.7-8.2,31.1c-3.3,10.4-7.2,20.8-11.3,31.5
				c6.3-16.6,11.9-32.8,15.9-49.1c4-16.3,6.6-32.9,7.7-49.6c1.1-16.7,0.9-33.5-0.9-50.1c-0.9-8.3-2-16.6-3.6-24.5
				c-1.6-7.9-3.7-15.5-6.4-22.6c-1.4-3.5-2.9-6.9-4.6-10.2c-0.4-0.8-0.8-1.6-1.3-2.4l-1.4-2.3c-0.5-0.8-0.9-1.6-1.4-2.3l-1.5-2.2
				c-4.1-5.9-9.1-11.4-14.7-16.1c-11.2-9.6-24.9-16.6-39.2-20.1c-14.3-3.5-29.6-3.3-44.4,0.3c-14.8,3.6-29.1,10.5-41.1,20.2
				c-2.1,1.6-5,4.2-7.8,7c-2.8,2.8-5.4,5.8-7.1,7.8l-2.9,2.8c-1,1-1.8,2-2.7,3l-1.3,1.5c-0.4,0.5-0.8,1.1-1.3,1.6
				c-0.8,1.1-1.7,2.1-2.5,3.2c-3.2,4.4-6,9.1-8.5,14.1c-4.8,9.9-8.1,20.7-9.5,31.7c-0.9-1.5-2.4-1.4-3.9-1c-1.5,0.4-3.1,1.1-4.4,0.6
				c-0.6-0.3-1.1-0.8-1.5-2c-0.4-1.1-0.6-2.7-0.5-5.1c0.1-1.2,0.2-2.5,0.3-4.1c0.2-1.5,0.6-3.3,1-5.2c0.2-1,0.5-2,0.8-3.1
				c0.3-1.1,0.7-2.2,1-3.4c0.3-1.2,0.8-2.4,1.3-3.7c0.5-1.3,0.9-2.7,1.6-4.1c-0.8-0.3-2.5-1-3.4-1.3c-5.4,11.3-9.2,21.5-12.1,29.4
				c-0.4,1-0.8,2-1.1,2.9c-0.3,0.9-0.7,1.8-1,2.7c-0.6,1.7-1.3,3.2-1.9,4.6c-1.1,2.7-2.3,4.8-3.4,6.1c-1.1,1.2-2.1,1.5-3.1,1.1
				c-0.5-0.3-1-0.7-1.4-1.4c-0.4-0.8-0.9-1.8-1.2-3c-0.4-1.3-0.8-2.8-1-4.7c-0.2-1.8-0.4-3.9-0.6-6.3c-0.1-2.4,0-5.1,0.1-8.1
				c0.1-1.5,0.3-3,0.4-4.7c0.2-1.6,0.4-3.4,0.7-5.1c1.3-8,3.5-16.2,6.6-24.4c3-8.2,7-16.5,11.8-24.4c4.9-8,10.6-15.8,17.3-23
				c6.7-7.2,14.4-13.9,22.7-19.6c16.7-11.5,36-19.7,56.4-23.6c10.2-1.9,20.6-2.8,31.1-2.4c10.4,0.3,20.9,1.9,30.8,4.5
				c7.2,2,14.3,4.4,21.1,7.6l2.6,1.2l2.5,1.3c1.7,0.9,3.3,1.7,5,2.6c3.2,1.9,6.5,3.8,9.6,5.9c3.2,2,6.1,4.4,9.1,6.7
				c1.5,1.2,2.9,2.4,4.3,3.7l2.1,1.9l2,2c5.5,5.2,10.4,11.1,14.9,17.2l3.3,4.7c1,1.6,2,3.3,3,4.9c2,3.3,3.7,6.7,5.3,10.1
				c3.1,6.8,5.7,13.8,7.7,20.7c2,6.9,3.5,13.8,4.7,20.7c1.2,6.8,1.9,13.6,2.5,20.3c1.5,18.5,1.8,37.4,0.5,56.4
				c-0.6,9.5-1.6,19-3,28.5c-1.4,9.5-3.2,18.9-5.4,28.3c-2.2,9.3-4.8,18.6-7.8,27.6c-2.9,9-6.1,17.7-9.4,26.2
				c-6.6,17.1-13.6,33.3-20,49c-2.2,5.7-4.5,12.7-6.6,19.9c-2.1,7.3-3.9,14.9-5.3,22.2c-3,14.6-4.1,27.5-5.7,33.3
				c-1.6,8.2-3.4,8.7-5.5,7.3c0.2-19.6,3.9-39.3,9.4-58.6c5.5-19.3,12.8-38.3,20.1-57.4c4.6-11.7,9.3-23.5,13.5-35.6
				c4.3-12.1,8.1-24.5,11.1-37.2c3.1-12.6,5.3-25.5,7-38.4c1.6-12.9,2.5-26,2.6-39.1c-0.1,6.4-0.5,12.8-0.9,19.2
				c-0.5,6.4-1.1,12.8-2,19.2c-1.6,12.8-3.9,25.6-6.9,38.2c-3,12.7-6.7,25.2-11,37.4c-4.2,12.2-8.8,24.3-13.4,36.2
				c-7.5,19-15,37.7-20.7,56.7c-5.7,19-9.7,38.5-10.4,57.9c-1.8-1.4-3.7-2.9-5.5-0.5c0,0,0,0.8,0,2c0,1.3,0.1,3,0.1,5
				c0,1.9,0.2,4.1,0.3,6.1c0.1,1,0.1,2,0.2,2.9c0.1,0.9,0.2,1.8,0.3,2.6c-0.1,1.6-0.2,3-0.4,4.4c-0.1,1.3-0.2,2.6-0.3,3.7
				c-0.3,2.3-0.5,4.2-0.9,5.6c-0.7,3-1.8,4.5-3.1,4.8c-1.3,0.3-2.9-0.6-4.6-2.4c-0.8-0.9-1.7-2-2.6-3.3c-0.8-1.3-1.7-2.8-2.5-4.4
				c-0.4-0.8-0.7-1.7-1.1-2.6c-0.4-0.9-0.7-1.8-1.1-2.8c-0.4-1-0.7-2-1.1-3C397.1,460,396.8,459,396.5,457.9z"/>
		</g>
	</g>
</g>
</svg>
