<?xml version="1.0" encoding="utf-8"?>
<!-- Generator: Adobe Illustrator 25.4.1, SVG Export Plug-In . SVG Version: 6.00 Build 0)  -->
<svg version="1.1" id="レイヤー_1" xmlns="http://www.w3.org/2000/svg" xmlns:xlink="http://www.w3.org/1999/xlink" x="0px"
	 y="0px" viewBox="0 0 500 500" style="enable-background:new 0 0 500 500;" xml:space="preserve">
<style type="text/css">
	.st0{fill:#FFC574;}
</style>
<g>
	<g>
		<g>
			<g>
				<path class="st0" d="M80.5,21.2c0.9-0.4,1.8-0.9,2.4-1.2c0.7-0.3,1.1-0.5,1.1-0.5c-0.1-0.1-0.1-0.2-0.2-0.3
					C82.6,19.9,81.5,20.6,80.5,21.2z"/>
				<path class="st0" d="M79.6,27.1c0.3-0.2,0.7-0.4,1-0.5c-0.2,0-0.2-0.1-0.3-0.2C80,26.6,79.8,26.8,79.6,27.1z"/>
				<path class="st0" d="M83.9,19.2c-0.8-1.2-3-1.8-1.7-4c1.1-0.5,2.7-1.1,4.4-1.8c1.7-0.6,3.5-1.1,4.7-1.4c2.2-1.4-0.4-1.5-0.6-2.3
					c0.6-0.2,1.3-0.3,1.8-0.5c0.6-0.1,1.2-0.3,1.7-0.4c1-0.2,1.6-0.5,1.6-0.7C96.1,8,96.1,7.7,96,7.5c-0.1-0.2-0.3-0.4-1-0.4
					c-1.2-0.1-3.3,0.1-5.9,0.6c-2.5,1.8-5.8,3.9-8.6,6.1c-2.8,2.2-5.3,4.3-6.7,6c-1.4,1.6-1.8,2.6-0.5,2.5
					C74.8,22.4,77.7,21.1,83.9,19.2z"/>
				<path class="st0" d="M71.1,30.3c2.8-2.1,5.8-4,9-5.7c0.5-1.3,1.6-2.8,0.1-3.1C75.4,24.7,73,27.4,71.1,30.3z"/>
				<path class="st0" d="M425.8,461.8c0.2,0.2,0.2,0.4-1.1,1.3C425.1,462.6,425.4,462.2,425.8,461.8c-0.2-0.2-0.5-0.3-0.1-1
					c-3.6,4.9-8.2,10.4-13.3,15c-0.4,0.9-0.8,1.8-1.1,2.6c6.5-5.6,12.5-12,17.4-18.6c4.9-6.6,8.8-13.5,11.2-20.1
					c-1.3,2.1-2.3,4.2-3.4,6c-1.1,1.8-2.1,3.7-3.2,5.4c-1.1,1.7-2.2,3.5-3.4,5.2C428.6,458.1,427.3,460,425.8,461.8z"/>
				<path class="st0" d="M411.8,481.2c-0.5,0.4-0.9,0.8-1.4,1.2C411.9,481.6,411.9,481.3,411.8,481.2z"/>
				<path class="st0" d="M341.1,245.2c-10.2-3.2-19.6-4.6-29.1-5.8c9.9,2,19.8,4.6,28.9,7.4c9.1,2.8,17.6,5.7,24.8,8.2
					C357.7,251.3,349.5,248.2,341.1,245.2z"/>
				<path class="st0" d="M264.6,234.2c12.9,3.1,23.7,4.4,34.2,5.5c-10.4-2.1-20.8-4-31.2-5.6C266.7,234.1,265.6,234.1,264.6,234.2z"
					/>
				<path class="st0" d="M279.6,234.5c11.9,2.4,22.2,3.5,32.4,4.8C300.8,237,289.6,235.3,279.6,234.5z"/>
				<path class="st0" d="M481.2,360.3c2.2,9.2,2.6,15,2.8,18.3c0.5,1.5,1.1,3.4,1.9,6.1c0-0.6,0-1.2,0-1.7c-0.4-10-1.6-20-3.8-29.8
					c-0.6-2-1.2-3.9-1.8-5.7c-0.6-1.8-1.4-3.5-2-5l0.9,4.4l0.7,4.5C480.5,354.3,480.8,357.3,481.2,360.3z"/>
				<path class="st0" d="M484,378.6c-1.2-3.1-1.8-3.8-1.9-3.4c-0.2,0.4,0.1,2,0.4,3.5C483,381.9,484.1,385,484,378.6z"/>
				<path class="st0" d="M449.6,327.9c-0.1-0.4-0.3-0.8-0.4-1.1c-0.5-1.1-1.1-2.1-1.7-3.2C448.3,325.1,449,326.4,449.6,327.9z"/>
				<path class="st0" d="M389.2,246.4c6.6,3.6,13.1,7.3,19.4,11.4c-3.1-2.2-6.4-4.2-9.7-6.2c-1.6-1-3.3-1.9-4.9-2.8
					c-1.6-0.9-3.2-1.8-4.9-2.6c-3.3-1.6-6.5-3.2-9.7-4.5c-1.6-0.7-3.2-1.3-4.7-1.9c-1.5-0.6-3.1-1.1-4.6-1.6
					c1.7,0.8,3.3,1.9,4.9,2.7c1.9,0.5,4.1,1.2,6.6,2.1C384.1,243.9,386.7,245.1,389.2,246.4z"/>
				<path class="st0" d="M462.9,382.4c-0.3-19.9-5.4-39.1-13.7-55.6c-3.6-8.6-8.1-16.8-13.4-24.2c-1.4-1.8-2.7-3.7-4.1-5.4l-2.2-2.6
					c-0.7-0.9-1.4-1.7-2.2-2.5c-1.5-1.6-3.1-3.3-4.6-4.9c-1.6-1.5-3.2-3-4.8-4.6c-6.6-5.9-13.6-11-20.9-15.4
					c-7.3-4.3-14.8-7.9-22.3-10.9c-6.7-2.5-14.5-5.5-23.1-8.5c-8.6-2.9-18-5.7-27.5-8c-9.5-2.3-19.2-4.2-28.3-5.5
					c-9.1-1.3-17.7-1.8-25-1.6c3,0.7,5.8,1.4,8.6,1.9c-4.2-0.3-8.2-0.5-11.9-0.4c-23.2-3.6-46.4-5.8-69.8-7.3
					c-11.7-0.8-23.5-1.2-36-1.9c-12.4-0.7-25.3-1.8-38.6-4c-7.9-1.4-14.1-1.5-22.1-3.7c-8.2-2.3-16.2-5.1-24-8.7
					c-0.1,0.1,0,0.2,0.2,0.4c-8.1-3.6-16-8-23.5-13.3c-7.5-5.3-14.6-11.6-21-19c-6.3-7.4-11.8-16-15.8-25.4
					c-4.1-9.4-6.5-19.3-7.7-29.5c-0.9-9.5-0.4-19.1,1.4-28.4c0.5-2.3,0.9-4.6,1.6-6.9l0.9-3.4l1.1-3.4c0.7-2.3,1.6-4.5,2.4-6.7
					c0.4-1.1,0.9-2.3,1.4-3.4c0.5-1.1,1-2.2,1.5-3.3c1.6-3.2,2.7-4.5,3.8-5.6c1.1-1,2.1-1.8,3.4-3.6C32.2,50,37.4,44.6,43,39.2
					c5.7-5.3,11.7-10.7,19.8-16.4c0,0,0.5,0.6,0.7,0.9c2.3-2,4.6-3.5,6.6-4.6c-1.5,2.2-3.6,4.9-5.6,7.4c-1.9,2.6-3.7,5-4.7,6.7
					c-1,1.7-1.1,2.8,0.1,2.5c1.3-0.2,3.8-1.9,8.9-4.8c0,0,0,0,0,0c-1,0.9-1.8,1.7-2.5,2.5c-0.1,0.1-0.2,0.2-0.3,0.2c0,0,0,0,0,0
					c-3.7,4-5.5,6.8-6.8,9.9c2.3-2.4,4.8-4.7,7.4-6.9c-0.1,0.8-0.1,1.5,0.5,1.7c-0.2,0.3-0.3,0.5-0.5,0.8c-1.1,1-2,1.8-2,1.8
					c-0.1,0.6-0.2,1-0.2,1.4c-2.6,3.6-5.8,8-7.9,11.5c-2.1,3.5-3.2,6-1.8,5.5c1.8-1,5-6.2,9.5-11.5c0.4-0.2,0.8-0.4,1.3-0.7
					c-3,3.3-2.5,3.8-1.7,4c0.8,0.1,1.9,0,0.2,2c-4.8,5.2-8.7,11-12.5,16.9c-1.9,3-3.6,6-5,9.1c-0.7,1.5-1.4,3-2,4.6
					c-0.5,1.6-1.2,3.1-1.6,4.7c-1.9,6.3-3.1,12.7-3.5,19c-0.3,6.4,0.1,12.8,1.4,19c1.3,6.3,3.6,12.4,6.8,18.2c0.6,1,1.2,2,1.8,3
					c6.8,10.9,15.9,19.5,26.6,26.8c-0.8-0.2-1.7-0.5-2.6-0.8c4.2,3.1,8.8,5.8,13.6,8.1c2.4,1.2,4.9,2.2,7.3,3.2
					c2.5,0.9,5,1.8,7.6,2.5c12.6,3.4,25.8,5.1,39.3,6c13.5,0.9,27.5,1.1,42.2,1.8c30.9,1.5,60.9,4,92.3,8.6
					c-12.9-1.5-25.8-2.8-39-4.2c-5.9-0.8-11.8-1.5-17.5-2c5.9,0.7,11.7,1.4,17.5,2c22.7,3,45.7,7.7,63.8,8.2
					c1.8,0.7,1.7,1.1,3.5,1.6c12.7,3,25.3,6.9,36.6,9c0.1-0.2,1.5,0.2,2.6,0.4c1.2,0.2,2.1,0.4,1.4-0.3c11,3.3,23.6,8.2,34.5,12.6
					c2.3,1,4.7,1.9,7.2,2.8c2.4,0.9,4.9,1.8,7.4,2.6c9.6,4.8,18.9,10.3,27.9,16.7c8.9,6.5,17.6,13.8,25.3,22.3
					c7.9,8.5,14.8,18.1,20.7,28.4c5.9,10.4,10.8,21.6,14.4,33.5c3.5,11.9,5.4,26.2,5.5,38.8c-1.4-18.6-6-37.1-13.6-54.5
					c-0.8-2.1-1.6-4.3-2.4-6.4c-0.9-2.1-1.8-4.1-2.7-6.2c-1-2-2-4-3-5.9c-1-1.9-2.2-3.8-3.2-5.6c-0.6-0.9-1.1-1.8-1.7-2.7
					c-0.6-0.9-1.2-1.7-1.8-2.6c-1.2-1.7-2.3-3.4-3.6-4.9c-1.3-1.5-2.5-3-3.8-4.5c-1.3-1.4-2.6-2.7-4-4l-1.8-1.8l-1.8-1.7
					c-1.2-1.1-2.4-2.2-3.7-3.4c1.7,1.8,3.5,3.6,5.2,5.4c1.7,1.9,3.3,3.8,5,5.7c1.6,2,3.1,4,4.7,6c1.5,2,2.9,4.1,4.4,6.2
					c5.6,8.3,10.4,17.2,14.4,26.3c3.7,10.2,6.2,21,7.9,31.8c-0.1-0.2-0.1-0.4-0.2-0.6c-1.8-8.3-4.4-16.5-7.5-24.5
					c-1.1-3.9-2.6-7.6-4-11.3c-1.6-3.6-3.1-7.2-4.9-10.5c-1.7-3.4-3.7-6.5-5.6-9.5c-1-1.5-2.1-2.9-3.1-4.3c-1-1.4-2.1-2.7-3.2-4
					c-1.1-1.3-2.2-2.5-3.3-3.6c-1.1-1.2-2.3-2.4-3.5-3.6c-1.2-1.2-2.3-2.4-3.5-3.5c1.1,1.1,2,2.3,3.1,3.4l3,3.5l2.8,3.6
					c0.9,1.2,1.9,2.4,2.8,3.7c1.8,2.5,3.6,5,5.1,7.6l2.4,3.9l2.3,4l1.4,2.5l1.3,2.5c0.8,1.7,1.7,3.4,2.5,5.1
					c1.5,3.4,3.1,6.9,4.4,10.4c0.4,1.1,0.7,2.3,1.1,3.4c0.3,1.2,0.6,2.3,0.9,3.5l0.9,3.5c0.3,1.2,0.5,2.3,0.8,3.5
					c-0.2-0.5-0.4-1-0.6-1.4c-0.3-1-1-2.4-2-3.8c-0.9-1.4-2-2.8-3-3.8c-2.1-2.1-3.9-2.9-3.5,0.2c2.3,7.4,4.3,15.6,5.6,23.9
					c0.3,2.1,0.7,4.1,0.9,6.2c0.2,2.1,0.4,4.1,0.6,6.1c0.2,4.1,0.5,8,0.5,11.7c0.1,3.7-0.2,7.2-0.3,10.3c-0.2,3.1-0.5,5.9-0.8,8.2
					c-0.3,2.3-0.6,4.1-0.8,5.3c-0.2,1.2-0.3,1.9-0.4,1.9c-0.5,0.4-0.3-2.6,0.1-7.2c0.1-2.3,0.2-5.1,0.4-8.1c0-1.5,0-3,0-4.6
					c0-0.8,0-1.6,0-2.4c0-0.8-0.1-1.6-0.1-2.4c-0.1-1.6-0.1-3.2-0.2-4.7c-0.1-1.5-0.2-3.1-0.4-4.5c-0.2-2.9-0.6-5.6-0.9-7.9
					c-0.3-2.3-0.7-4.1-0.9-5.3c-0.3-1.2-0.4-1.8-0.4-1.5l0.3,4.4c0,1.5,0.1,2.9,0.1,4.4c-0.3-1.4-0.5-2.7-0.8-4
					c-0.3-1.3-0.7-2.6-1-3.8c-0.5-2.9-1.1-6.2-1.7-9.3c-0.6-3.1-1.5-5.9-2.3-7.7c-2.9-6.3-5.4-13-8.5-19.7
					c-3.1-6.7-6.8-13.5-11.4-19.6c-3-3.7-6.5-7.7-10.4-11.4c-1-0.9-2-1.9-3-2.8c-1-0.9-2.1-1.8-3.1-2.7c-1.1-0.9-2.1-1.8-3.2-2.7
					c-1.1-0.9-2.2-1.7-3.3-2.6c-0.6,0.5-4.2-3.6-3.4-1.8c-0.9-0.9-1.9-1.8-2.9-2.7c-1-0.9-2-1.8-3-2.6c-1-0.9-2-1.7-3-2.5
					c-1-0.8-2-1.5-3-2.2c-1.9-1.4-3.9-2.5-5.6-3.4c-1.7-0.8-3.2-1.4-4.4-1.6c-0.2-0.1-0.4-0.2-0.7-0.4c-0.6-0.4-1.5-0.8-2.5-1.3
					c-3.4-2.5-6.9-4.3-10.2-6.1c-1.6-0.9-3.3-1.6-5-2.3c-1.6-0.7-3.2-1.5-4.9-2.1c-3.3-1.2-6.5-2.4-9.9-3.5
					c-1.7-0.5-3.4-1.1-5.1-1.6c-1.7-0.5-3.5-1-5.4-1.6c-4.9-1.8-10-3.5-15.2-5.3c1.7,0.6,3.8,1.4,5.9,2.2c2.1,0.8,4.2,1.6,5.9,2.1
					c1.2,0.3,2.3,0.7,3.4,1c12.8,4.6,24.8,9.4,36.3,15.5c1,0.4,2.6,1,4.1,1.7c0.8,0.5,1.5,1.1,2.3,1.6c0.3,0,0.6,0,0.9,0
					c1.4,0.8,2.7,1.6,4.1,2.5c1.4,0.9,2.8,1.7,4.1,2.6c1.3,0.9,2.7,1.9,4,2.8l2,1.4c0.6,0.5,1.3,1,1.9,1.5c1.3,1,2.5,2,3.8,3
					c0.6,0.5,1.2,1,1.8,1.5c0.6,0.5,1.2,1,1.7,1.5c1.2,1,2.3,2,3.4,2.9c1.1,1,2.1,1.9,3.1,2.9c7.3,7.1,13.6,15.7,18.6,25.1
					c5,9.3,8.8,19.4,11.4,29.4c-3.4-9.8-7.8-19-13.1-27.3c6.3,10.6,11.1,21.5,14.4,32.5c0.4,1.7,0.8,3.4,1.1,5.2l1,5.4
					c0.3,1.8,0.5,3.6,0.7,5.5c-0.1-1.7-0.3-3.4-0.4-5.1c-0.2-1.7-0.5-3.4-0.7-5.1c0.4,1.7,0.8,3.3,1.2,5c0.3,1.7,0.7,3.4,1,5
					c0.4,1.7,0.6,3.4,0.8,5c0.2,1.7,0.6,3.4,0.7,5c0.8,9.3,0.7,18.8-0.6,28.3c-1.3,9.5-3.6,18.8-7,27.9
					c-6.7,18.1-17.4,34.8-31.1,48.2c0.2-0.9,0.4-1.8,0.8-2.8c6.2-6.7,11.8-14,16.2-21.5c4.5-7.5,7.8-15.1,9.7-22.3
					c-1,2.4-2,4.6-2.9,6.7c-1,2.1-1.9,4.1-2.8,6c-1,1.9-2,3.9-3.1,5.9c-1.1,2-2.4,3.9-3.7,6.1c-0.2-0.1-0.5-0.2-0.2-1
					c-3.2,5.6-7.5,11.8-12.3,17.3c0.8-2.5,1.8-5,2.6-7.7c0.8-1.7,2.1-3.5,3.5-5.6c0.7-1,1.4-2.1,2.1-3.3c0.4-0.6,0.7-1.1,1.1-1.7
					c0.3-0.6,0.7-1.2,1-1.8c0.8-1.2,1.5-2.5,2.3-3.7c0.7-1.3,1.4-2.5,2.1-3.8c1.4-2.5,2.6-5.1,3.9-7.6c2.4-5.2,4.5-10.4,6.2-15.7
					c1.8-5.3,3.1-10.8,4.2-16.3c0.9-5.5,1.7-11.1,1.8-16.8c1.7-20.2-1.7-40.7-9.2-59.1C458,345.9,462.1,364.2,462.9,382.4z
					 M39.6,60.9c-1,1.8-1.9,3.7-2.8,5.7c0.2-0.2,0.5-0.5,0.7-0.7C38.5,64.2,39.1,62.4,39.6,60.9z M23.8,105.6c0.9-7,2.4-15,4.9-23.3
					c0.7-2.1,1.3-4.1,2.2-6.3c0.8-2.1,1.7-4.2,2.7-6.2c1.9-4,4.1-8,6.4-11.7c0-0.1-0.1-0.2-0.2-0.3c-2.1,3-4.2,6.3-6.1,10
					c-0.9,1.8-1.9,3.7-2.7,5.7c-0.9,2-1.7,4.1-2.3,6.2C25.7,88.1,24.2,97,23.8,105.6z M30,164.5c0-0.1-0.1-0.3-0.1-0.4
					c0,0-0.1,0.1-0.1,0.1C29.8,164.3,29.9,164.4,30,164.5z M252.1,219c-7.3-0.1-15.4-0.8-24-1.4c-8.6-0.7-17.6-1.4-26.7-1.7
					c-5.4-0.5-10.9,0.7-18.2,0.3c-9.1-0.2-14.7,0.3-22.1,0.2l5.5,1.1c-6.4-0.6-11.6-0.5-16.8-0.5c-5.2,0-10.5-0.1-17.1-1.4
					c-0.1,0.4-2.1,0.9-4,0.6c-9.7-1.1-19.2-3.9-27.1-5.4c-9.9-2.5-19.4-6.3-27.1-9.5c-0.9-0.5-2.4-1-4.2-1.5
					c-1.8-0.6-3.8-1.4-5.7-2.3c-1.1-0.6-2.2-1.4-3.3-2c-1.1-0.7-2.2-1.4-3.3-2.1c-2.2-1.5-4.3-3-6.4-4.7c0.1,0.2,0.2,0.5,0.3,0.7
					c3.4,2.8,7,5.3,10.7,7.4c5.6,3.1,11.9,6.1,18.2,8.6c6.3,2.5,12.7,4.5,18.6,6.1c14.7,4.1,29,5.7,42.6,6.5
					c13.6,0.8,26.6,0.6,39.4,0.6c5.5-0.1,10.9-0.5,16.3-0.5c8.2-0.2,17.2,0.4,25.5,0.9c8.4,0.5,16,0.9,21.6,0.3
					C246.6,218.9,250.2,219.5,252.1,219z M275.2,205.7c-19.6-2-41.1-4.2-59.4-6.3c-7.4-0.7-21.7-1.4-33.3-0.8
					c-11.5,0.5-20.2,1.7-16.7,4.3c4.7-1.8,14.5-2.4,26.6-2.1c12.1,0.3,26.3,1.5,39.5,3.1C258.3,206.9,280.7,211.4,275.2,205.7z
					 M425.1,258.5c-1.7-1.2-3.5-2.4-5.2-3.6c-0.9-0.6-1.7-1.2-2.6-1.8c-0.9-0.6-1.8-1.2-2.7-1.7c-1.8-1.2-3.6-2.4-5.5-3.6
					c-1.9-1.2-3.8-2.4-5.8-3.7l5.6,3.3c0.9,0.5,1.9,1.1,2.8,1.7l2.7,1.8C418,253.2,421.5,255.9,425.1,258.5z M346.1,233.2
					c11.7,2.7,23.6,6.8,35.1,12.1c11.5,5.3,22.5,11.7,32.7,18.8c3.9,2.7,7.7,5.9,11.3,9.3c1.7,1.8,3.5,3.5,5.2,5.3
					c1.7,1.8,3.3,3.7,4.9,5.5c6.5,7.5,12,15.3,17.5,22.3l1-0.6l-1.3-1.5c-0.4-0.8-0.8-1.5-1.2-2.2c-0.4-0.7-0.8-1.4-1.2-2.1
					c-0.8-1.4-1.5-2.7-2.2-4c-0.7-1.3-1.5-2.5-2.2-3.8c-0.8-1.2-1.5-2.5-2.3-3.7c0.2,0.2,0.5,0.5,0.7,0.7c-0.4-0.4-0.8-0.9-1.1-1.3
					c-1.1-1.6-2.3-3.2-3.6-4.8c-1.4-1.6-2.8-3.1-4.5-4.8c-1.5-1.5-3.2-2.8-4.8-4.3c-8.9-8.4-18.8-15.9-29-21.9
					c-10.3-6-20.8-10.7-31-14c-12.5-4.3-23.6-6.3-36.2-9.1c1.7,0.6,3.9,1.4,6.1,2.1C342.2,232,344.3,232.7,346.1,233.2z"/>
				<path class="st0" d="M460.8,348.6c2.2,7.7,3.7,15.6,4.4,23.8c0.2,1.6,0.3,3.1,0.5,4.7c0.1,1.6,0.2,3.2,0.3,4.7l0.1,2.4
					c0,0.8,0,1.6,0,2.4l0.1,4.8c-0.5,15.2-4.4,31.5-11.5,46.8c-7.1,15.3-17.1,29.4-28.5,41.3c0.1,1.5,0.8,2.4,2.6,2.5
					c13.5-12.5,24.1-28,31.3-44.9c7.3-16.8,11.3-35,12.4-53.3c0-0.3-0.1-0.6-0.1-0.9c-0.8-7.9-1.6-18-3.8-28.5
					c-2.1-10.4-5.4-21-9.9-29.5c-4.6-8.4-9.6-16.5-15.4-23.9c-2.9-3.7-5.9-7.3-9.1-10.7l-1.2-1.3l-1.3-1.2l-2.5-2.4l-2.5-2.4
					l-2.7-2.2c4.7,4.7,9,9.7,13,14.9c3.9,5.2,7.4,10.7,10.6,16.3c3,5.7,5.8,11.6,8,17.7c0.6,1.5,1,3.1,1.6,4.6
					c0.5,1.5,1,3.1,1.4,4.7c0.4,1.6,0.8,3.2,1.2,4.7C460.1,345.4,460.4,347,460.8,348.6z"/>
				<path class="st0" d="M298.8,239.7c6.8,1.4,13.6,3,20.4,4.6c9.5,2.2,18.2,4.6,26.7,7.2c8.5,2.6,16.6,5.3,24.6,8.6
					c-11.4-5.5-23.4-10.2-35.9-14.4C322.1,242.1,310.7,241.1,298.8,239.7z"/>
				<path class="st0" d="M383.4,265.8c-1.1-0.5-2.1-1-3.2-1.5c-1.1-0.5-2.2-0.9-3.2-1.4c-2.1-0.9-4.2-1.9-6.4-2.7
					c8.5,4.1,16.6,8.7,24.2,13.8c7.6,5.1,14.8,10.8,21.2,17.2c21.8,20.1,35.9,48.9,39.8,79.5c0.3,3.5,0.7,7,0.7,10.4
					c0.5-14.4-1.6-28.8-5.8-42.5c-2.1-6.8-4.9-13.4-8-19.7c-3.2-6.3-6.8-12.3-11-17.8c-1-1.4-2.1-2.7-3.2-4.1
					c-1.1-1.3-2.1-2.7-3.3-3.9c-1.2-1.3-2.3-2.5-3.5-3.7c-0.6-0.6-1.2-1.2-1.8-1.8l-1.8-1.7c-4.8-4.7-10.2-8.8-15.5-12.6
					c-10.9-7.4-22.5-13.1-34.1-17.4c-0.9-0.3-1.8-0.7-2.7-1c21.3,9.6,40.7,22,56.1,38.5c-2.7-2.9-5.7-5.5-8.6-8.1
					c-3.1-2.5-6.1-5-9.4-7.3c-3.2-2.4-6.6-4.4-9.9-6.5C390.4,269.6,387,267.6,383.4,265.8z"/>
				<path class="st0" d="M458.5,341.3c0.2,0.9,0.5,1.7,0.7,2.6c0.2,0.9,0.4,1.7,0.6,2.6c0.6,2,1.2,3.9,1.7,5.9
					c-0.1-0.6-0.2-1.2-0.3-1.8c-0.1-0.6-0.2-1.2-0.4-1.8C460,346.1,459.3,343.7,458.5,341.3z"/>
				<path class="st0" d="M443.5,288.4c-0.1-0.2-0.3-0.4-0.4-0.6c-1-1.2-2-2.4-3-3.6c-1-1.2-2.1-2.3-3.2-3.5
					c-1.1-1.1-2.2-2.3-3.3-3.5c-1.1-1.1-2.3-2.2-3.4-3.3c-3.3-2.9-6.9-5.6-10.4-8.4c-3.7-2.6-7.3-5.3-11.2-7.8l2.6,1.8l1.3,0.9
					l1.2,0.9c1.7,1.3,3.3,2.5,4.9,3.7c1.6,1.2,3.2,2.6,4.7,3.9c1.6,1.3,3.1,2.5,4.5,3.9c1.5,1.3,2.9,2.6,4.3,3.9
					c1.4,1.3,2.7,2.7,4,4c0.7,0.6,1.3,1.3,2,1.9c0.7,0.6,1.3,1.3,1.9,1.9C441.2,286,442.4,287.2,443.5,288.4z"/>
				<path class="st0" d="M409.1,244c-1.7-1.1-5.1-3.4-6.8-4.4c-1.2-0.4-2.3-0.8-3.5-1.3c1.6,1,3.2,2,4.8,3L409.1,244z"/>
				<path class="st0" d="M301,208.1c16.3,3,32.2,6.5,47.7,11.1c15.5,4.5,30.7,10.2,45.4,17.5c1.5,0.5,3.1,1.1,4.6,1.6
					c-19-11.5-39.4-19.1-58.5-22.9c-3.8-0.8-9.6-1.3-13.2-2.4c-17.4-4.5-34.1-7-50.8-9c7.9,1.2,16,2.4,24.2,3.9
					C300.6,208,300.8,208.1,301,208.1z"/>
			</g>
		</g>
	</g>
</g>
</svg>
