<?xml version="1.0" encoding="utf-8"?>
<!-- Generator: Adobe Illustrator 25.4.1, SVG Export Plug-In . SVG Version: 6.00 Build 0)  -->
<svg version="1.1" id="レイヤー_1" xmlns="http://www.w3.org/2000/svg" xmlns:xlink="http://www.w3.org/1999/xlink" x="0px"
	 y="0px" viewBox="0 0 500 500" style="enable-background:new 0 0 500 500;" xml:space="preserve">
<style type="text/css">
	.st0{fill:#F9A84B;}
</style>
<g>
	<g>
		<g>
			<g>
				<g>
					<g>
						<g>
							<path class="st0" d="M71.4,37.5c-1.2,1.3-1.7,3.8-2.2,6.1C70.3,41.9,71,40,71.4,37.5z"/>
							<path class="st0" d="M69.1,43.6C69.1,43.6,69.1,43.7,69.1,43.6C69.1,43.6,69.1,43.6,69.1,43.6C69.1,43.6,69.1,43.6,69.1,43.6
								z"/>
							<path class="st0" d="M226.7,40.1c0.1,0.5,0.2,1.1,0.3,1.7C226.9,41.3,226.8,40.7,226.7,40.1z"/>
							<path class="st0" d="M69.9,162.7l1.7-0.1c1,3.1,0.7,3.6,0.5,4.2c-0.3,0.5-0.5,1,0.8,3.8c0.7,0.4,1.3,1.1,1.8,2.1
								c0.5,1,1,2.1,1.4,3.3c0.4,1.2,0.8,2.4,1.2,3.4c0.5,1,0.9,1.7,1.4,2.1c-0.2,0,1.1,2.8,0.4,2.9c1.5,0.3,1.8,2.6,3,4.1
								c0.6,0.4,0.1-0.6,0.1-1.3c0.9,1.2,1.7,2.4,2.6,3.5c0.6,1.6,0.2,2.4-0.9,0.9c0.8,1.2,1.8,3.1,3.3,5.3c1.6,2.2,3.3,4.8,5.6,7.5
								c1.1,1.4,2.3,2.8,3.7,4.3c0.7,0.7,1.4,1.5,2.1,2.2c0.7,0.7,1.5,1.4,2.2,2.2c3,2.9,6.3,5.7,9.7,8.3
								c6.9,5.1,14.4,9.4,21.2,12.2c1.7,0.8,3.3,1.4,4.9,1.9c0.8,0.3,1.5,0.5,2.2,0.8c0.7,0.2,1.4,0.4,2.1,0.7
								c1.4,0.4,2.6,0.8,3.7,1.1c1.1,0.3,2.1,0.5,2.9,0.6c-0.7-0.7-2-1-3.3-1.6c-1.3-0.5-2.5-1.1-3-2.1c1.7,0.1,2.9,0.5,3.8,0.9
								c0.9,0.3,1.7,0.6,2.5,0.3c0.2,0.6,0.7,1,1.4,1.4c0.7,0.4,1.7,0.7,2.6,0.9c2,0.5,4.1,1.1,5.2,2.3l1.2-1.1l1.6,1
								c7.6,0.1,8.5-0.2,9.2-0.1c0.3,0,0.6,0.1,1.6,0.2c1,0.1,2.8,0.2,6.2,0.1c7.9-0.8,11.1-3.2,15.4-3.5c-0.6,0.1-2.4-0.2-0.6-1
								c0.6,1,4.9-2,6.1-1.3c0.9-0.4,2.9-0.9,4.2-1.6c1.4-0.7,2.2-1.4,1-1.7c0.6,0.2,2.2-0.2,3.4-0.3c1.1-0.2,1.7-0.2,0.3,0.7
								c1.7-0.7,3.5-1.2,4.6-2.1l-2.4,0.6c5.6-2.7,9.1-3.5,12-6.8l-2.3,0.7c1.6-1,3-1.9,4.2-2.6c1.3-0.7,2.4-1,3.4-0.9
								c-0.9,0.9-2,1.7-2.9,2.5c5.2-3.5,8.1-6,11.5-10l-1.4,1.2c1-1.4,3.3-3.9,6-7.2c0.7-0.8,1.4-1.7,2.1-2.7
								c0.7-0.9,1.4-1.9,2.1-2.9c0.7-1,1.4-2.1,2.1-3.2c0.6-1.1,1.3-2.1,1.9-3.2c2.5-4.4,4.6-8.8,6-12.6c0.7-1.9,1.2-3.6,1.6-5
								c0.3-1.4,0.6-2.5,0.6-3.3l-2,2c0.3-1.6,0.6-3.2,0.8-4.8c-0.2,0.5,2.7,3.5,2.1,3.8c0.9-2.4,2.8-7.5,4.3-13.8
								c1.6-6.3,2.9-13.7,3.9-20.9c0.5-3.6,0.9-7.1,1.3-10.5c0.4-3.4,0.7-6.6,1-9.5c0.3-2.9,0.5-5.5,0.7-7.6
								c0.2-2.1,0.4-3.8,0.6-4.9c0.8-3.4,1.8-0.5,2-0.5c-0.2-4.2-1.1-1.9-0.8-5.4c0.2-1,0.9,0.2,1,0.8c-0.1-1.6,0.4-3-0.1-3.1
								c-0.5,1.9-1.9,1-2.8,1.8l0.3-4.5l0.9,0.2c0.1-1-2.3-2.7-1.7-7.1c0.5-7.5,0.2-15.7,0.1-23.3c0.5,0.1,0.9,1.7,1.3,3.3
								c0-1-0.2-2.6,0.2-3.5c-0.9,1.9-0.7-3.2-1.1-1.7c-2.4-5.4-0.9-12.7-2.8-17.5c-1-0.1-9.6-2-18.2-3.7c-8.6-1.6-17.3-3-18.4-2.9
								c-0.1-1.4-0.2-2.8-0.1-3.2c-0.5,0.4-0.5,3.2,0,4.6l1.3,0.1c0.8,3.3-0.7,0.9-0.3,4.1c-1,0.3-1.5-2.7-1.9-5.3
								c0.2,2.4-0.4,4.8,0.8,5.6c-0.2,2.3-1.3-0.1-1.4,2.6c0.4,1.9,1.6,4.3,1.2,6.5l-0.2,0c-0.7,5.4,2,8,1.2,13l-0.4-0.5
								c-0.5,1.7,0.4,5.1-0.2,8.2c0.2-0.9,0.9-1.7,1.1,0.2c-0.6,3.6,0,6-0.8,8.6l1,2.5c-0.2,6.2-0.4,21.6-1.8,37
								c-0.7,7.8-1.6,15.2-2.7,21c-1.1,5.9-2.4,10.3-3.2,12.7l0-0.4c-1.2,3.8-3,8.3-5.6,12.7c-0.3,0.5-0.7,1.1-1,1.7
								c-0.4,0.5-0.7,1.1-1.1,1.6c-0.4,0.6-0.8,1-1.1,1.6c-0.4,0.5-0.7,1-1.2,1.5c-1.6,2.1-3.6,4-5.7,5.9c-2.1,1.9-4.4,3.6-6.7,5.2
								c-2.4,1.5-4.7,2.9-7.1,4c-4.7,2.3-9.3,3.8-12.9,4.7c-0.6-0.1-1.3-0.3-1.9-0.3c-0.7-0.1-1.4,0-2.1,0c-1.4-0.1-2.8,0.1-4-0.1
								c1.3,0.4,0.9,1.1-0.2,1.1c-0.9,0-1.6,0-2.2,0c-0.5,0-0.9,0-1.2,0c-0.5,0-0.6,0.1-0.7,0.2c-0.2,0.2-0.3,0.6-4.2,0.3
								c-2.2-0.2-6.1-0.7-10.6-2.3c-4.5-1.5-9.6-4-14.2-7.2c-4.6-3.2-8.7-7-11.6-10.4c-1.4-1.8-2.8-3.5-3.7-5
								c-0.5-0.7-0.9-1.4-1.3-2c-0.3-0.6-0.6-1.2-0.9-1.6c-1.9-1.4-3.2-3.6-4.4-5.8c-0.6-1.1-1.2-2.3-1.7-3.4
								c-0.5-1.1-1.1-2.2-1.8-3.1l0.5,0.3c-1.2-2.1-4-9.9-5.4-18.6c-1.6-8.6-2.1-18-2.5-21.2l-0.1,0.9c-1.2-5.6,0.4-4.9,0.7-9.4
								c-1.6,0.7-2.7-4.2-2.8-6.1l0.4,0.1c-0.3-2.8-1.7-9.3-1.8-14l0.9,0.2c-0.9-3.9-0.1-11.3,0-14.1c0.4-3.2,1.2-7.3,2-11.6
								c0.8-4.3,1.4-8.9,1.5-13.2c1.1-1.7,2.2-3.4,3.4-5.1l-0.1-0.8c0,0-1.8-0.9-4.6-2c-2.8-1.2-6.6-2.6-10.7-3.8
								c-8.2-2.3-17.4-3.4-21.6,2.3l-0.8-0.3l-0.3,2.5c-0.9,2.9,0,4.4-0.9,4.1c0.2-1.4,0.5-2.7,0.7-4c-0.7,2.9-0.9,0.8-1.2-0.4
								c-0.3,1.2-0.6,2.4-1,3.4c0.3,0.6,0.4-0.4,0.7-0.8c0.1,1.7,0.6,4-0.1,5.9c-0.5,3.1-1.4,0-2,3.6c-2.9,18.8-4.7,37.4-3.8,56.8
								c-0.3,0.5-0.4-0.1-0.5-0.6c0.6,5.8,0.8,11.1,1.7,16.6c-0.2,1.6-0.7,2-1.1,2.5c0.3-0.5,1.3,7.1,2.9,15.1
								c0.8,4,1.8,8.1,2.6,11.2C69.3,160.5,69.9,162.6,69.9,162.7z"/>
						</g>
					</g>
				</g>
			</g>
		</g>
		<g>
			<g>
				<g>
					<g>
						<g>
							<path class="st0" d="M141.2,33.3c-1,1.4-1.1,3.9-1.2,6.2C140.9,37.7,141.3,35.8,141.2,33.3z"/>
							<path class="st0" d="M140,39.5C140,39.5,140,39.5,140,39.5C140,39.5,140,39.5,140,39.5C140,39.5,140,39.5,140,39.5z"/>
							<path class="st0" d="M183.2,487.3c0-0.6,0-1.2-0.1-1.9C183.1,486.1,183.1,486.7,183.2,487.3z"/>
							<path class="st0" d="M137.2,151.3l1.6,0.4c0,5.5-1.8,1.6-1.4,6.7c2.3,2-0.2,8.4,1,10.2c-0.2,0-0.2,2.4-1,2.3
								c1.2,0.8,0.3,2.5,0.6,4.1c0.3,0.6,0.4-0.4,0.7-0.8l0.4,3.6c-0.4,1.4-1.1,1.7-1.3,0.2c-0.4,9.4-1.6,54.3-1,64.4
								c0.9-1.3,0.3-4.4,1.8-5.6c0.8,2.7-0.3,3.9,0.6,5.1c-2.2,1-0.5,5.9-2.7,7.9l1.2,0.8l-0.8,1.3c1.3,11.7,0.6,2.7,0.3,13.1
								c0.2,6,1.9,8.9,1.3,12.2c0-0.5,0.8-1.8,1.1-0.3c-1.1,0.3,0.8,4.1-0.3,4.9c0.1,1.5,0,6.5,1.5,4.8c-0.7,0.8-1,5.3-1.7,2.6
								c0,1.5-0.3,2.9,0.1,4l0.4-1.9c0.2,5-0.9,7.8,0.4,11l0.6-1.9c0.1,3,0.2,5.5-1.3,6.7l-0.4-3.1c0,5,0.1,8,0.9,12.1l0-1.5
								c1.5,5.3,2.7,33,4.5,37.9l1.1-2.2l1,4.2c0-0.5-3.7-2-3.3-2.4c0.1,9,1,55.7,0.2,64c-0.6,3.3-1.8,0.6-2,0.6
								c0.4,4.1,1.2,1.8,1.1,5.2c-0.2,0.9-0.9-0.2-1-0.7c0.1,1.5-0.3,2.9,0.3,3c0.4-1.9,1.8-1.1,2.7-1.9l-0.1,4.5l-0.9-0.2
								c0,1,2.4,2.5,1.9,6.9c-0.4,7.4-0.1,15.4-0.3,22.8c-0.5-0.1-0.8-1.7-1.2-3.2c0,1,0.1,2.5-0.3,3.4c0.9-1.8,0.6,3.1,1,1.7
								c2.2,5.4,0.2,12.5,1.7,17.3c2,0.4,33.5,10.3,35.8,10.3c0,1.5-0.1,3-0.3,3.4c0.5-0.4,0.8-3.3,0.5-4.9l-1.2-0.3
								c-0.4-3.6,0.7-0.8,0.7-4.3c1-0.2,1.2,3,1.3,5.9c0.1-2.6,0.9-5.1-0.3-6.1c0.4-2.4,1.2,0.3,1.7-2.6c-0.3-2.1-1.3-4.8-0.7-7.1
								l0.2,0c1-5.7-1.5-8.8-0.5-14l0.3,0.6c0.6-1.9-0.2-5.5,0.4-8.9c-0.2,1-0.9,1.8-1.1-0.2c0.6-3.8,0-6.5,0.8-9.3l-1-2.7
								c0.2-13.4-1.2-66.3-1.4-79.8l0.2,0.5c-0.5-20.5-0.4-62.6-1.8-83.8c1-3.3,0.7-7.8,1-11.2c-0.4,1.9-1.1,1.3-1.1-0.2
								c0.1-10.4-0.7-0.7-1.1-11.2c-0.9-12.1,0.1-58.6,1-69.4c-1.4-5.8-0.4-13-1.3-18.7l0.3,0.6c-0.5-6.1,0.8-40.6,0.3-47.6l-0.2,1
								c-0.9-6.2,0.7-5.3,1.2-10.2c-1.6,0.6-2.5-4.6-2.7-6.7l0.4,0.1c-0.3-3-1.7-9.9-1.9-15l0.9,0.2c-1-4.2-0.6-12.1-0.7-15.1
								c0.4-6.9,1.9-17.5,0.7-26.7l2.5-5.9l-0.3-0.9c0,0-30.5-9.6-37,2.6l-0.9-0.2l0.1,2.4c-0.4,2.9,0.6,4.2-0.3,4l0.1-4
								c-0.3,2.9-0.7,0.9-1.2-0.2c-0.1,1.2-0.2,2.4-0.5,3.3c0.3,0.6,0.4-0.4,0.6-0.9c0.3,1.6,1.1,3.7,0.7,5.6
								c-0.1,3-1.4,0.2-1.5,3.7c-0.7,18.3-1.7,36-1.5,54.4c-0.4,0.4-0.4-0.1-0.5-0.6c0.4,5.6,0.2,10.5,0.6,15.6
								c-0.4,1.4-0.9,1.8-1.3,2.2C137.3,122,137.4,150.8,137.2,151.3z"/>
						</g>
					</g>
				</g>
			</g>
		</g>
	</g>
	<g>
		<g>
			<g>
				<g>
					<g>
						<path class="st0" d="M344.5,477.7c1-2.4,1.1-6.5,1.2-10.4C344.8,470.3,344.4,473.5,344.5,477.7z"/>
						<path class="st0" d="M345.7,467.2C345.7,467.2,345.7,467.1,345.7,467.2C345.7,467.2,345.7,467.2,345.7,467.2
							C345.7,467.2,345.7,467.2,345.7,467.2z"/>
						<path class="st0" d="M338.2,319c0.9-0.6,1.9-1.3,2.9-1.9C340.2,317.7,339.1,318.3,338.2,319z"/>
						<path class="st0" d="M348.5,277.8l-1.6-0.6c0-9.3,1.8-2.7,1.4-11.3c-2.3-3.4,0.2-14.2-1-17.2c0.2,0.1,0.2-4.1,1-3.9
							c-1.2-1.3-0.3-4.3-0.6-7c-0.3-1-0.4,0.7-0.7,1.4l-0.4-6.1c0.4-2.4,1.1-3,1.3-0.4c0.4-15.9,1.6-92,1-109.1
							c-0.9,2.2-0.3,7.5-1.8,9.5c-0.8-4.5,0.3-6.6-0.6-8.6c2.2-1.7,0.5-9.9,2.7-13.3l-1.2-1.3l0.8-2.2c-1.3-19.9-0.6-4.5-0.3-22.1
							c0-2.5-0.2-4.8-0.4-6.7l0-0.4l0-0.2c0-0.1,0,0,0,0l-0.1,0l-0.1-0.1c-0.1-0.1-0.2-0.1-0.3-0.2c-0.4-0.3-0.6-0.7-0.3-0.8
							c0,0-0.8-0.1-1.1-0.5c0.5,0.3,0.3,0,0.2-0.4c-0.2-0.4-0.4-0.8,0.2-0.4c-0.1-0.2-0.1-0.5-0.2-1c-0.2-0.4-0.5-1.1-1.2-1.8
							c0.4,0.3,0.6,0.3,0.9,0.4c0.2,0.1,0.5,0.4,0.8,1.1c0.1-0.2,0.2-0.2,0.2-0.6l-0.4-0.3c-0.1-0.1-0.1-0.1-0.1-0.1l-0.1-0.1
							c0-0.1-0.1-0.2,0-0.2c0.1,0,0.1,0,0.2,0c0.1,0,0.3,0.1,0.4,0.1c0.3,0.1,0.5,0.3,0.7,0.4c0.4,0.2,0.6,0.2,0.8-0.6
							c-0.2-0.4-0.4-0.7-0.7-1c0.8,0.1,1.5,0.4,1.7,2.5c-0.2,0.1-0.3,0.2-0.5,0.3c0.8,0.4,1.1,0.5,2.1,0.4l-0.2-0.3
							c0.2-0.1,0.5-0.1,0.8,0c0.2,0.1,0.4,0.1,0.6,0.2c0,0,0.1,0,0.1,0.1c0,0,0,0,0.1,0.1l0.3,0.3c0.4,0.4,0.9,0.8,1.4,1.3
							c1.9,1.8,4,4,6.3,6.4c1,1.1,2,2.2,3.1,3.3c1,1.1,2.1,2.2,3.1,3.4c1.9,2.4,4,4.7,5.8,7.1c0.9,1.2,1.8,2.3,2.6,3.4
							c0.8,1.1,1.6,2.2,2.3,3.3c0.7,1,1.4,2,2.1,2.9c0.7,0.9,1.2,1.8,1.7,2.6c1,1.6,1.9,2.7,2.5,3.5l-0.6-3.5
							c1.2,1.8,2.6,3.5,3.7,5.3c-0.1-0.4-1.3-0.7-2.4-1c-1.1-0.3-2.2-0.6-2.2-0.9c0.2,0.4,0.4,0.8,0.7,1.3c0.2,0.5,0.5,1,0.7,1.6
							c0.5,1.1,1.1,2.4,1.8,3.9c0.7,1.4,1.3,3.1,2,4.9c0.4,0.9,0.7,1.8,1.1,2.8c0.4,1,0.6,2,1,3c2.8,8.1,5,18.2,5.7,28.4
							c0.8,10.2-0.1,20.3-1.8,28.5c-1.7,8.2-3.9,14.5-5.2,17.3c-2.4,4.4-2,0.2-2.2,0.1c-1.8,5.7,0.3,2.9-1.9,7.5
							c-0.8,1.2-0.7-0.6-0.5-1.4c-0.8,2.1-2,3.8-1.6,4.2c1.5-2.4,2.3-0.7,3.6-1.4l-1.4,3c-0.5,1-1.1,2-1.6,3l-0.6-0.7
							c-0.7,1.3,0.5,4.6-3.4,10.1c-0.4,0.6-0.8,1.2-1.2,1.8c-0.4,0.6-0.8,1.2-1.2,1.8c-0.8,1.2-1.7,2.4-2.5,3.6
							c-1.7,2.4-3.6,4.7-5.3,7.1c-1.9,2.3-3.8,4.6-5.7,6.9c-1,1.1-2,2.2-3,3.3c-1,1.1-2,2.2-3,3.2c-0.1-0.3,0.2-0.8,0.7-1.7
							c0.5-0.8,1.2-1.8,1.9-2.8c-1.1,1.1-2.5,3-3.8,3.7c2.6-1.3-3,3.9-1.2,2.6c-1.1,1.9-2.5,3.7-4.2,5.4c-1.7,1.7-3.4,3.4-5.2,4.9
							c-1.9,1.5-3.7,3-5.4,4.5c-1.7,1.4-3.3,2.8-4.6,4.3c0.2,0.5,0.7,3,1.3,6.6c0.6,3.6,1.3,8.2,1.9,12.9c1.3,9.4,2,19,2.6,20
							c-2.4,1.4-4.7,2.9-5.5,3.2c0.9,0.1,5.6-2.6,7.9-4.4l-0.3-1.3c5.2-4,1.7-0.2,7-4c0.4,0.3-0.5,1.4-2.2,2.7
							c-0.8,0.7-1.8,1.4-2.8,2.2c-1.1,0.7-2.2,1.5-3.3,2.2c1-0.6,2.1-1.2,3.1-1.7c1-0.6,1.9-1.1,2.8-1.7c1.7-1.1,3-2.1,3.5-3.1
							c2-1.1,2-0.8,2.2-0.5c0.2,0.2,0.5,0.5,2.8-1c2.9-2.6,6.4-6.3,10.1-8.8l0.1,0.2c2.2-1.5,4.1-3,5.7-4.5c1.6-1.6,3-3.1,4.3-4.6
							c0.7-0.7,1.4-1.5,2-2.2c0.7-0.8,1.3-1.5,2.1-2.3c1.4-1.5,3-3.1,5-4.7l-0.5,1c1.5-1,3.2-3,5.2-5.3c1-1.1,2-2.3,3.1-3.5
							c1-1.2,2.1-2.4,3.3-3.6c-1.3,1.3-2.9,2-0.5-1c1.3-1.3,2.5-2.5,3.4-3.8c1-1.2,1.9-2.4,2.8-3.6c0.9-1.1,1.7-2.2,2.5-3.3
							c0.8-1.1,1.7-2.1,2.6-3.1l2.1-4.9c3.4-5.5,9.4-15.1,14.5-28c5.1-12.8,9.5-29,10.6-45.5c1.1-16.5-0.5-33-4-46.4
							c-3.3-13.5-7.7-24-10.5-29.9l0.6,0.9c-4.1-9-10.1-20.1-18.2-31.1c-1-1.4-2.1-2.7-3.1-4.1c-0.5-0.7-1.1-1.4-1.6-2.1
							c-0.5-0.7-1.1-1.4-1.7-2c-1.1-1.4-2.3-2.7-3.4-4.1c-0.6-0.7-1.2-1.4-1.7-2c-0.5-0.6-1.1-1.2-1.6-1.9c-1.2-1.3-2.3-2.6-3.5-3.9
							l-1.8-2l-2.3-2.5c-2.2-2.3-4.4-4.3-6.6-6.5c-1.1-1-2.3-2-3.5-3c-1.2-1-2.3-2-3.5-2.8l-3.6-2.6c-1.2-0.8-2.4-1.5-3.7-2.3
							c-2.4-1.6-4.9-2.7-7.3-3.9c-1.2-0.6-2.4-1-3.7-1.5c-1.2-0.5-2.4-1-3.6-1.3c-1.2-0.4-2.4-0.7-3.6-1.1c-1.2-0.4-2.4-0.5-3.6-0.8
							l-1.8-0.3l-0.9-0.2l-0.9-0.1c-1.2-0.1-2.3-0.2-3.5-0.4c-2.3-0.2-4.6-0.3-6.9-0.5c-2.4-0.1-4.7-0.2-7-0.3
							c-1.2,0-2.4-0.1-3.6-0.1l-0.9,0l-0.4,0c-0.1,0-0.2,0-0.2,0l-0.1,0.2l-0.4,1.4c-2.2,7.7-4.4,15.1-6.2,21.9l-0.2,0.6
							c0,0.3,0,0.6,0,0.9c0,0.6,0,1.2,0,1.9c0,1.2,0,2.5,0.1,3.7c0,2.4,0.1,4.8,0.1,7.1c0.1,4.6,0.2,8.9,0.2,13
							c-0.2,2.5-0.4,5.2-0.5,8.1c0,0.9-0.1,1.8-0.1,2.7c0,0.8-0.1,1.7-0.1,2.5c-0.1,3.3-0.1,6.7-0.2,9.6c0.4-3.2,1.1-2.1,1.1,0.4
							c-0.1,17.7,0.7,1.2,1.1,19c0.9,20.6-0.1,99.2-1,117.5c1.4,9.8,0.4,22,1.3,31.6l-0.3-1c0.5,10.3-0.8,68.7-0.3,80.7l0.2-1.6
							c0.9,10.5-0.7,9-1.2,17.3c1.6-1.1,2.5,7.9,2.7,11.3l-0.4-0.1c0.3,5.2,1.7,16.8,1.9,25.3l-0.9-0.3c1,7.1,0.6,20.4,0.7,25.5
							c-0.4,11.7-1.9,29.7-0.7,45.2l-2.5,10.1l0.3,1.5c0,0,30.5,16.2,37-4.4l0.9,0.3l-0.1-4.1c0.4-4.9-0.6-7.1,0.3-6.8l-0.1,6.7
							c0.3-4.9,0.7-1.5,1.2,0.4c0.1-2,0.2-4,0.5-5.7c-0.3-1-0.4,0.7-0.6,1.5c-0.3-2.6-1.1-6.3-0.7-9.5c0.1-5,1.4-0.3,1.5-6.2
							c0.7-30.9,1.7-60.9,1.5-92.2c0.4-0.7,0.4,0.1,0.5,1c-0.4-9.4-0.2-17.8-0.6-26.4c0.4-2.4,0.9-3,1.3-3.7
							c-0.4,0.7-0.6-11.1-0.7-23.3c0-6.1,0-12.2,0-16.8C348.4,281.2,348.4,278,348.5,277.8z"/>
					</g>
				</g>
			</g>
		</g>
	</g>
</g>
</svg>
