<?xml version="1.0" encoding="utf-8"?>
<!-- Generator: Adobe Illustrator 25.4.1, SVG Export Plug-In . SVG Version: 6.00 Build 0)  -->
<svg version="1.1" id="レイヤー_1" xmlns="http://www.w3.org/2000/svg" xmlns:xlink="http://www.w3.org/1999/xlink" x="0px"
	 y="0px" viewBox="0 0 500 665" style="enable-background:new 0 0 500 665;" xml:space="preserve">
<style type="text/css">
	.st0{fill:#FFFFFF;}
</style>
<g>
	<g>
		<g>
			<g>
				<g>
					<g>
						<polygon class="st0" points="230.3,201.1 229.8,201.2 229.3,202.3 						"/>
						<path class="st0" d="M225.3,206.1c0.2,0,0.2,0.2,0.5,0.2c0.9-1.2,1.7-2.4,2.4-3.7c-1,0.1-1.4,1-1.7,1.8
							C226.2,205.3,226,206.2,225.3,206.1z"/>
						<path class="st0" d="M224.2,206.5c-1.5,0.3-1.7,1.2-2,1.6C222.4,207.4,224.9,207.2,224.2,206.5z"/>
						<path class="st0" d="M276.3,170.5c0-0.1,0-0.3-0.1-0.5C276.2,170.2,276.2,170.4,276.3,170.5z"/>
						<path class="st0" d="M271.4,207.9l0.5,0.6c0.9-3.5,2.3-7.1,3.6-10.8c1.3-3.7,2.4-7.5,2.8-11.3l0.1,0.6
							c0.9-4.8,1.4-9.6,1.2-14.4c-0.2-4.8-1.1-9.4-2.7-13.8c-0.8-2.2-1.8-4.4-3-6.3c-1.3-2-2.8-3.8-4.7-5.1
							c-1.9-1.3-4.1-2.2-6.4-2.6c-2.3-0.4-4.6-0.4-7-0.2c0.3-0.1,0.4-0.3,0.7-0.4c-0.9,0.3-1.9,0.8-2.9,0.9
							c-0.3-0.1,0.2-0.4,0.6-0.5c-2.1-0.3-5,0.5-7.5,1.6c-1.3,0.6-2.5,1.1-3.5,1.6c-1,0.5-1.9,0.8-2.6,0.9c-1,0.6-1.2,1.2-0.5,1.3
							c-3.3,1.6-6.4,3.7-9.5,6c-3,2.3-5.8,4.9-8.3,7.7c-2.5,2.8-4.9,5.9-6.8,9.1c-1.9,3.2-3.5,6.6-4.7,10.1c-0.4,0.6-0.7,0.6-1,0.3
							c-0.8,3.1-1.5,6.2-1.8,9.3c-0.3,3-0.2,6,0.7,8.6c0.9,2.6,2.6,5,4.7,6.4c2.1,1.4,4.9,1.6,7.7,0.8c0.3-0.6-1.2-0.2-0.3-0.9
							c-1.7,0.2-3,0.6-4.5,0.6c-0.7,0-1.4,0-2-0.3c-0.6-0.3-1.3-0.7-1.7-1.3l0.6-0.1c-0.7-0.7-0.9-0.6-1.2-0.5
							c-0.2,0.1-0.5,0.2-1.1-0.9c-0.2-1,0.6-0.2,0.4-0.5c-0.7-0.9-1.3-1.9-1.7-3c-0.4-1.1-0.7-2.3-0.8-3.5c-0.3-2.5-0.2-5.1-0.1-7.8
							c0.6-0.5,1-1.9,1.6-3.5c0.6-1.5,1.2-3.2,2-3.9c0.2-1.5,0.9-2.8,0.6-3.6c4.8-8.8,11.5-16.8,19.9-22.8c4.2-3,8.7-5.5,13.5-7.3
							c2.4-1,4.8-1.6,7.3-2.1c2.5-0.4,5-0.5,7.3-0.2c2.3-0.1,4.7,0.4,6.7,1.7c2.1,1.3,3.7,3.4,4.8,5.8c0.6,1.2,1.1,2.5,1.5,3.8
							c0.2,0.7,0.4,1.3,0.6,2c0.2,0.7,0.4,1.4,0.5,2.1c0.7,2.8,1,5.6,1.4,8.5c-0.1,0.1-0.1,0.1-0.2,0c0.8,3.7,0.8,9.3-0.2,13.8
							c0,1.3,0.1,2.6,0.1,4c-1.8,6.7-4.3,13.2-7.2,19.6c-2.9,6.4-6.3,12.5-10,18.4c-7.6,11.8-17,22.6-28,31.3
							c-6.2,5-12.7,9.2-19.4,12.8c-6.7,3.6-13.5,6.4-20.5,8.4c-7,1.9-14.2,3-21.4,2.6c-7.2-0.4-14.5-2-21.4-5.3c0.1-0.1,0-0.3,0.7,0
							c-3.9-2-7.1-4.8-9.7-7.9c-2.6-3.1-4.7-6.6-6.6-10.3l0.2-0.1c-2.5-4.5-4.1-9.6-5.1-14.9c-1-5.3-1.4-10.8-1.5-16.2
							c-0.2-10.9,0.8-21.7,1.5-31.9c1.9-12.3,4.7-25.3,8.2-38.4c1.8-6.5,3.7-13,5.8-19.4c2.1-6.4,4.4-12.7,6.9-18.9l0.3,0.2
							c3.7-9.9,8.6-19.2,13.9-28.1c5.3-8.9,11.2-17.4,17.2-26.1c6.7-8.5,13.5-17.2,21-25.6c7.6-8.2,15.8-16,25.1-21.8
							c1.6-0.8,3.2-1.8,4.8-2.8c1.6-1,3.3-2.1,5-3.2l-0.6-0.9c-9,6.4-18.7,14.1-27.7,17.1c-12.3,4.8-24.1,9.7-35.9,14.9
							c-11.8,5.1-23.6,10.3-35.7,15.4C113,64,90.7,73.7,67.6,77.9C62.4,80,56.7,81.1,50.7,82c-3,0.5-6,0.9-9,1.4c-3,0.5-6,1.1-9,1.7
							l0.5,0.4c-2.3-0.3-4.6,0.6-6.8,1.2c-2.2,0.6-4.3,1-5.6-0.1l0.5-0.1c-0.6-0.3-1.2-0.3-1.8-0.1c-0.6,0.1-1.3,0.4-1.9,0.6
							c-1.3,0.5-2.6,0.9-3.2,0.1l-0.5,0.4c-2.9-0.5-0.2-0.7-2.3-1.4c-0.8-0.2-0.6,0.8-2.1,0l0-1.7c0,0,0,0,0,0
							c1.1,1.9,6.4-2.8,7.4-0.6c-1.5,0.5,2.6,0.1-0.5,1.7c1-0.1,5.4-1.8,4.7-2.7c0-1.2,1.4-2.7-1.6-2.5l-0.3,0.9
							c-1.2-0.4-0.8-0.1-1.4-0.6c-3.6,1.2-4.5,0.3-7.2,0.7c0,0,0.1,0,0,0.1c-0.5,0.5-1.2,0.9-1.9,1.2l-7,3l6.9,2
							c0.7,0.2,1.4,0.5,2.1,0.8c0.7,0.2,1.3,0.5,1.7,0.7c0.2,0.2,0.4,0.4,0.5,0.6c0.4,0.5,1.7,0.4,2.6,0.1c0.9-0.2,1.6-0.5,0.9,0.3
							c8.4,0.6,17.4-1.2,25.8-3.3c1-0.9,6.4-1.5,4.3-2.2c2.4,0.8,8.7-0.5,11-1.1c-0.1,0.1-0.1,0.3-0.5,0.4c4.9,0.5,4.9-2.9,9.6-2
							c0.3-1.6,7.7-1.6,9.6-4c0.6,0.2,0.9,0.4,0.7,0.7c7.5-2.1,15.9-4,22.2-5.9c5-2.9,13.2-3.5,17.2-6.7c3.9-0.9,10.3-2.2,15.4-4.7
							l-0.4,0.4c5.9-2.1,13.4-4.8,17.1-7.3c2.3,1,4.8-0.2,7.5-0.7c3.7-2.2,11.7-5,17.5-8.1c1.2,0.4,4.8-2.3,5.5-1.4
							c7.9-4.5,17-9,26.2-13.5c9.2-4.5,18.6-9.1,27.3-13.6l-0.2,0.2c1.5-1.6,2.9-3.9,4.3-5.8l-1.8-2.7c-0.3,0.3-0.5,0.7-0.8,1
							c-0.3,0.1-0.3-0.1,0.1-0.4c-1.4,1-3,1.8-4.5,2.5c-1.5,0.8-3.1,1.6-4.5,2.7c-0.1-0.2-0.1-0.2,0.3-0.7c-0.6,0.6-1.3,1.1-2,1.5
							c-0.7,0.5-1.5,0.9-2.3,1.4c-1.5,0.9-3.2,1.9-4.4,3.5l-0.4-0.1l-1.7,1.9c-0.2-0.3-0.5-0.8,0.6-1.6c-6,4.7-11.7,9.9-17.1,15.5
							c-5.4,5.6-10.4,11.5-15.1,17.7c-9.4,12.4-17.6,25.7-25,39.4l0.2-1.2c-0.8,1.9-1.5,3.8-2.2,5.6c-0.2-0.1-0.1-0.4-0.1-0.7
							c-4.1,6.5-6.5,14.3-9.5,21.1c-0.2-0.1-0.1-1.3-0.7-0.4c-0.6,2.8-1.7,4.7-2.6,6.4c-0.9,1.7-1.5,3.1-0.9,4.8
							c-0.2,0.2-0.7,0.2-0.7-0.4c-4.7,14.7-9.2,29.8-12.8,44.9c-0.4,6.5-1.7,13.2-2.7,20c-1.1,6.8-1.9,13.7-1.5,20.5l-0.4-0.1
							c0.2,8.7,0.2,17.6,1.3,26.5c0.6,4.5,1.4,9,2.7,13.3c1.3,4.3,3.3,8.5,5.9,12.3c2.1,3.2,4.3,5.5,6.7,7.5c2.4,2,5.1,3.7,8.4,5.5
							l-0.1,0.5c6.1,2.1,12.3,4.4,19,5.4c6.7,1.1,13.8,0.8,20-1.7l-0.7,0.8c0.5-0.3,1.2-0.6,2-0.9c0.8-0.2,1.7-0.5,2.5-0.7
							c1.6-0.4,2.8-1,2.1-1.7c0.8-0.1,1.6-0.1,2.4-0.2c3.8-2.6,7.6-3.9,11.6-5.5c2-0.8,4.1-1.7,6.1-2.8c1-0.6,2.1-1.2,3.1-1.9
							c1-0.7,2.1-1.5,3.1-2.4l-0.4,0.7c1.1-0.9,2.3-1.9,3.5-2.8c1.2-0.9,2.3-1.7,3.3-2.2c-0.2,0.2,0,0.3-0.5,0.8
							c4.2-2,7.9-5.2,11.4-8.6c0.8-0.9,1.7-1.8,2.5-2.7l1.3-1.3l1.2-1.4c0.8-0.9,1.6-1.8,2.4-2.7c0.8-0.9,1.6-1.8,2.4-2.7l-0.2,1.3
							c0.6-1,1.5-2.1,2.4-3.4c0.9-1.2,2-2.5,3.2-3.9c1.1-1.4,2.2-2.8,3.2-4.1c1-1.4,1.9-2.8,2.7-4.1l0.1,0.5
							c0.5-0.9,0.9-1.9,1.3-2.9l0.7,0.3C265.5,222,268.5,215.1,271.4,207.9z"/>
						<path class="st0" d="M254.1,144.5C254.2,144.5,254.2,144.5,254.1,144.5C254.5,144.4,254.3,144.4,254.1,144.5z"/>
						<path class="st0" d="M9.7,81.8c0.4-0.1,0.7-0.1,1-0.2C10.6,81.5,10,81.7,9.7,81.8z"/>
					</g>
				</g>
			</g>
		</g>
	</g>
	<g>
		<g>
			<g>
				<g>
					<g>
						<polygon class="st0" points="169.9,110.3 169.8,110.2 170.1,110.7 						"/>
						<path class="st0" d="M170.2,111.9c0.1,0.1,0.2,0.2,0.3,0.3l-0.8-1.7C168.9,109.9,170.7,112.3,170.2,111.9z"/>
						<path class="st0" d="M170,111.9c-0.4-0.2,0.1,0.5,0.2,0.7C169.8,112.1,170.6,112.5,170,111.9z"/>
						<path class="st0" d="M157,122.9C157,122.9,157,122.8,157,122.9C157,122.8,157,122.8,157,122.9z"/>
						<path class="st0" d="M155.2,127.8l0.4,0.6c-0.1-1.4,1.4-1.1,1.8-2l0.1,0.2c1.9-1.2,2.9-3.3,4.3-5.1c0,0.1,0.1,0.2,0.2,0.3
							c-0.1-0.2-0.2-0.7-0.1-0.7c0.1,0.1,0.2,0.3,0.2,0.3c1.1,0.6,0.6-1.4,1.4-0.9c0-0.2-0.2-0.6-0.5-0.8c1.2-1.3,2.5-2.6,3.3-4.4
							c0.2,0.1,0.4,0.3,0.6,0.6c0-2.3,1.7-2.8,3-3.5c-0.3-0.4-0.4-0.3-0.6-0.8c-0.8-0.1,0,1.5-0.8,1.1l-0.2-0.4
							c-0.4,0,0.7,0.9,0,0.7c-0.3-0.2-0.3-0.5-0.4-0.5c-0.4,0.6-1.2,0.7-1,2c-0.7-0.7-0.6,0.4-1.4-0.1c0.1,0.4-0.1,0.5,0.3,1
							c-2.2,1.1-3.5,3.4-5.5,4.9c0.3,2.2-2.2,1.3-2.9,2.6c0,0-0.1-0.1-0.1-0.2c-0.1,0.6-0.4,1.2-1,1.4l0.1,0.9
							c-3.6,0.7-5.5,3.6-8.5,5c-3.3,1.9-6.7,2.6-8.2,6.8c-0.1-0.2-0.2-0.2-0.2-0.3c-0.6,0.9-1.8,0.9-2.4,1.8l-0.1-0.2
							c-1.1,2.7-4.3,2.7-5.3,5.5c-2.5,1.5-5.1,3.4-7.4,5.5l-0.2-0.3c-1.6,2-4.7,1.6-6.4,3.3c-1.3,0.3-2.1,1.4-3,2.4
							c-0.9,1.1-1.8,2.1-3.2,2.1c-1.1-0.5-1.7,0.4-2.3,1.2c-0.6,0.9-1.2,1.7-2.3,1.1c-1.9-0.7-3.4-0.5-4.6,0.4
							c-1.3,0.7-2.4,2.1-3.6,3.3c-1.5-0.1-2.8,0.6-4.1,1.1c-0.7,0.3-1.4,0.5-2.1,0.5c-0.7,0-1.4-0.1-2.1-0.6c-0.6,0.7-1.3,0.4-2-0.1
							c-0.7-0.5-1.4-1.2-2.1-1l0,0.5c-0.5-1.4-1.2,2-1.4-0.1l0.1-0.1c-0.2-1.1-0.7,2.5-0.9,1.2l-0.1,0.5c-0.3,0.1,0-0.6-0.2-0.8
							c-0.1,0.1-0.1,1-0.3,0.6c0.1-2.2-0.9,0.4-0.7-2c0.2,0-0.2-1,0.3-1.4c-0.1-0.3-0.6-0.2-0.7,0.9c-0.2,1.1-0.5,2-0.2,2.9l0.2-0.8
							c0,0.8,0,0.4,0,1c0.4,0.1,0.4,1.3,0.7,1.8c0,0,0,0,0-0.1c0.3-0.9,0.6-0.3,0.7-0.2l0,0.4c0.1,0.9,0.6-1.8,0.4-0.2
							c1-0.3,2-0.3,3.1-0.3c0.1-0.6,0.8,0.1,0.5-1.1c0.3,1.3,1.1,1.6,1.4,1.5c0,0.1,0,0.3-0.1,0.2c0.7,1.7,0.6-1.6,1.3,0.4
							c-0.1-1.5,1,0.4,1.1-1.4c0.1,0.3,0.2,0.6,0.2,0.9c1-0.1,2.1,0.3,2.9,0.2c0.4-1.4,1.8,0.2,2-1.7c0.6,0.3,1.5,0.8,2-0.1l0,0.2
							c0.7-0.3,1.6-0.6,1.8-1.9c0.7,1.6,0.9,1.2,1.4,1.6c0.2-0.9,1.3-1,1.8-2c0.4,0.7,0.5-0.5,0.9,0.5c1.3-2.9,3.9-3.1,6.7-2.6
							l0,0.1c0-0.7-0.3-2.1-0.4-3c0.1,0.1,0.2,0.3,0.1,0.3c0.3-0.4,1.1,0.5,1.4,0.1c0.1,0.2,0.1,0.2,0.1,0.4
							c0.1-0.6,1.1,0.5,1.1-0.6l0.2,0.3l0.1-0.5c0.2,0.3,0.4,0.9,0.2,0.8c3.4-1.3,5.5-4.9,8.7-6.6l0.1,0.4l0.2-0.9
							c0.1,0.2,0.1,0.3,0.1,0.4c1.1,0.1,1.3-1.3,2.1-1.7c0.1,0.2,0.2,0.5,0.4,0.7c0-1.2,1.6,0.6,0.7-1.4c0.1,0.1,0.4,0.5,0.4,0.6
							c1.1-1.6,2.6-2.6,4.3-3.3c0.1-2.5,2.5-1.9,2.9-4.1l0.2,0.3c0.9-2.3,3.4-2.3,5-3.7c0.8-0.4,1-1.1,1.7-1.6l0.3,0.4
							c0.1-2.3,3.5-0.4,3.5-3l0.3,0.6c-0.4-1,1-0.2-0.2-1.6l0.5,0.3c-0.5-2.5,2.1-0.2,2.3-2.2l0.2,0.4c0.1-0.5,0.2-0.9,0.7-0.7
							c0,0.1,0.1,0.2,0.1,0.3c1.8,0.7,1.7-1.5,2.6-2.1l0.4,0.7c-0.1-1.1,1.2-1,1.5-1.7l0.2,0.3l0-0.6l0.5,0.6
							C154.3,129.5,154.6,128.4,155.2,127.8z"/>
						<path class="st0" d="M162,121.5C162,121.5,162,121.5,162,121.5C162,121.5,162,121.5,162,121.5z"/>
						<path class="st0" d="M82.9,166.9c0,0-0.1-0.1-0.1-0.2C82.8,166.9,82.9,166.9,82.9,166.9z"/>
					</g>
				</g>
			</g>
		</g>
	</g>
	<g>
		<g>
			<g>
				<g>
					<g>
						<polygon class="st0" points="380,247.1 379.8,247 379.8,247.7 						"/>
						<path class="st0" d="M378.8,249.6c0.1,0.1,0.2,0.2,0.3,0.3c0.1-0.7,0.2-1.5,0.2-2.3C378.3,247.1,379.6,249.9,378.8,249.6z"/>
						<path class="st0" d="M378.3,249.7c-0.7-0.1-0.5,0.8-0.4,1.1C377.7,250.1,378.9,250.4,378.3,249.7z"/>
						<path class="st0" d="M328.2,251c0.1,0,0.1,0,0.2,0C328.4,250.9,328.3,250.9,328.2,251z"/>
						<path class="st0" d="M315.4,245.4l-0.6,0.3c1.4,0.6,2.4,1.6,3.4,2.6c1.1,1,2.2,2,3.5,2.6l-0.3,0.1c3,2.1,6.3,3.4,9.6,4.2
							c3.4,0.8,6.7,1.2,10.2,1.5c-0.1,0.1-0.2,0.2-0.3,0.3c0.4-0.2,0.8-0.5,1.2-0.4c0.1,0.2-0.2,0.3-0.3,0.3
							c1.3,1.3,4.4-0.1,5.2,0.8c0.4-0.1,0.6-0.5,0.4-0.9c5.4,0.2,11.3-0.1,16.5-1.8c0.3,0.1,0.4,0.4,0.4,0.8c2.2-1.2,4.3-2,6.5-2.8
							c2.2-0.7,4.4-1.4,6.5-2.4c-0.1-0.5-0.6-0.2-0.5-0.9c-0.8,0.1-1.2,0.6-1.7,1.1c-0.5,0.5-1,1-1.7,0.8l0-0.5
							c-1,0.1,0.2,1.1-0.9,0.9c-0.5-0.2-0.1-0.6-0.3-0.5c-1.8,0.9-3.9,1.1-5.6,2.5c-0.7-0.8-2.2,0.4-3.1-0.4c-0.5,0.5-1,0.4-1.1,1.1
							c-3.7,0.2-7.4,0.4-11.2,0.4c-3.8,0-7.7-0.2-11.4-0.9c-1.9,0.6-3.9,0.1-5.8-0.8c-1.9-0.9-3.7-1.9-5.8-2.5c0-0.1,0-0.1,0.1-0.2
							c-0.7,0-1.5-0.3-2.4-0.6c-0.8-0.3-1.6-0.8-2.2-1.3L322,249c-3.7-3.5-6.9-7.1-9.3-11.4c-2.4-4.3-4-9.2-4.3-14.2
							c-0.5-5.7,0.2-11,1.1-16.2c0.9-5.2,2-10.5,2.6-16.3c0.2,0.1,0.3,0,0.3,0.3c0.6-3.3,2.3-5.9,3-9l0.2,0.1
							c0.1-0.7,0.2-1.4,0.4-2.1l-3.4-0.9c-0.1,1.8-0.4,3.6-0.7,5.3c-0.4,1.8-0.8,3.5-1.4,5.3c-1,3.5-2.1,6.8-2.7,10.3
							c-3.5,8.4-8.4,17.5-13.8,25.6l-0.3-0.2c-1,1.6-2.1,3.2-3.5,4.6c-0.6,0.7-1.3,1.4-2,2.1c-0.7,0.7-1.4,1.3-2.1,1.9
							c-0.7,0.6-1.4,1.3-2.1,1.9c-0.7,0.6-1.5,1.2-2.2,1.9c-1.4,1.3-2.9,2.5-4.2,3.9c-1.6,1.1-3.2,2.4-4.7,3.8
							c-1.5,1.3-3,2.5-4.8,3.4c-0.9,0.4-1.8,0.8-2.8,1c-1,0.1-2.1,0.1-3-0.3c-1-0.4-1.8-1.2-2.3-2.1c-0.5-0.9-0.7-2-0.6-3
							c0.4-1.3,0.6-2.5,0.8-3.8c0.2-1.3,0.4-2.8,0.5-4.2c0.1-0.7,0.1-1.4,0.3-2.1c0.1-0.7,0.3-1.4,0.5-2c0.4-1.3,0.9-2.5,1.8-3.4
							c3.1-3.9,5.4-7.9,7.5-12.1c1-2.1,2.1-4.2,3.1-6.4c1.1-2.1,2.1-4.3,3.3-6.5c0.8-0.8,1.5-1.6,2.3-2.4c0.8-0.8,1.5-1.7,2.2-2.5
							c1.5-1.6,2.9-3.4,4.4-5c1.5-1.7,3.1-3.1,4.8-4.5c0.9-0.7,1.8-1.3,2.7-1.8c0.5-0.3,0.9-0.6,1.4-0.8c0.5-0.2,1-0.5,1.5-0.7
							c0.6-0.9,1.5-1.5,2.4-2.1c1-0.5,2-0.9,3.1-1.2c2.1-0.7,4.4-1.2,6.3-1.9l-0.3-0.4c0.9,0.5,1.5-0.1,2.4-0.4
							c0.4-0.2,0.8-0.3,1.2-0.2c0.3,0.1,0.6,0.4,0.5,1c-0.1,0-0.1,0-0.2,0c0.1,0.6,0.7,0.3,1.4,0.1c0.7-0.1,1.5-0.1,1.2,0.5l0.5-0.2
							c0.7,1-0.4,0.4-0.2,1.3c0.2,0.3,1-0.2,0.9,0.6c-1,0.4-0.7,0.9-0.7,1.6c0.1,0.6-0.2,1.3-1.3,0.9c0.1-0.2-0.2-0.1-0.5-0.1
							c-0.3,0-0.6-0.2-0.8-0.5c-0.1,0-0.2,0.2-0.3,0.4c0,0.2,0,0.5,0.4,0.8c0.3,0.4,0.5,0.8,0.8,1.2c0.2,0.2,0.3,0.3,0.6,0.4
							c0.2,0.1,0.4,0.2,0.9,0.1c-0.1-0.2-0.3-0.4-0.4-0.7c1,0.2,0.5,0,1.2,0.2c0.6-0.7,1.1-1.2,1.5-1.6c0.5-0.4,0.9-0.9,1.1-1.8
							c0,0,0,0-0.1,0c-0.5-0.5-0.7-1.1-0.9-1.7c-0.1-0.6-0.2-1.1-0.4-1.5c0.1-0.2,0.1-0.3,0.2-0.5c0.3-0.5-0.5-0.8-1.1-0.9
							c-0.6-0.1-1-0.1-0.2-0.4c-0.9-0.7-2-1.4-3.2-1.7c-1.1-0.3-2.2-0.3-3.3-0.3c-2.1,0.2-4,0.9-5.5,1.7c-0.2,0.7-2.3,1.2-1.1,1.9
							c-1.4-0.7-3.6,0.3-4.3,0.8c0-0.1-0.1-0.3,0.1-0.3c-2.4-0.5-0.8,2.5-3.4,1.7c0.7,1.4-2.7,1.3-2.4,3.3c-0.4-0.1-0.6-0.3-0.7-0.6
							c-2.4,1.7-5.2,3.5-7.1,5.1c-0.3,1.2-1.4,2-2.3,2.8c-0.9,0.8-1.8,1.7-1.8,3c-1.4,0.8-3.5,2.2-4.4,4.3l0-0.3
							c-1.4,1.9-3.2,4.3-3.2,6.3c-1.8-0.4-2.1,0.6-3.2,1.1c-0.2,1.8-2.2,4.3-2.8,6.8c-0.9-0.1-0.7,1.9-1.8,1.4
							c-1.4,7-5.2,14.2-8.9,20.8l0-0.1c0.3,1.1,1.4,2.5,2,3.7c-0.1,0.1-0.3,0-0.3-0.2c0,0.7-0.4,1.3-0.7,2c-0.3,0.7-0.6,1.4-0.4,2.2
							c-0.2,0-0.2,0-0.4-0.3c0.3,0.7,0.1,1.5,0.2,2.5c0.1,0.9,0.4,2,1.4,2.6l-0.2,0.3c0.4,0.3,0.8,0.5,1.2,0.7
							c-0.3,0.2-0.7,0.7-1.2,0c0.4,0.4,0.8,0.8,1.2,1.2c0.5,0.3,0.9,0.7,1.4,0.9c1,0.5,2.1,0.8,3.2,0.9c2.1,0.2,3.9-0.3,5.5-0.9
							c1.6-0.6,3-1.5,4.3-2.4c0.6-0.5,1.3-1,1.8-1.5l1.6-1.5c4.2-4,8.2-8.2,12.1-12.4l0,0.6c0.4-0.7,0.7-1.4,1-2.1
							c0.1,0.1,0.1,0.3,0.1,0.4c1.2-0.9,2-2.1,2.8-3.3c0.8-1.2,1.4-2.5,2.4-3.6c0.1,0.1,0.2,0.7,0.6,0.5c0.4-2.3,3-1.9,1.9-4
							c0.1,0,0.6,0.2,0.6,0.5c2.7-5.1,5.6-10.1,8.5-15.2c0.1-2.6,1.2-4.9,2.1-7.3c0.5-1.2,1-2.4,1.3-3.6c0.3-1.2,0.6-2.5,0.6-3.8
							l0.4,0.1c0.5-4.8,2.2-9.5,3.4-14.3l-1.2-0.3c-0.6,1.5-1.2,3.1-1.7,4.7c-1,2.5-1.2,4.4-2,7l-0.5-0.1c0.2,2.5-0.9,4.7-1.9,7
							c-1,2.3-1.9,4.7-1.3,7.3l-0.6-0.4c0.9,0.9-0.8,2.9,1,2.8l-0.7,0.8c0.9,1.8,0.5,3.2,0,4.7c-0.4,1.5-1,3.2-0.2,5.2l-0.4-0.3
							c0.3,1.1,0.7,2.3,0.4,3.1c-0.1-0.1-0.2,0-0.3-0.3c-0.7,1.7-0.4,3.6,0.1,5.3c0.6,1.7,1.4,3.4,1.9,5.1l-0.9-0.2
							c1.3,1.4,1.7,4.6,3.1,6.5l-0.4,0l1,0.8l-0.6,0.4C311.2,241.5,313.4,243.4,315.4,245.4z"/>
						<path class="st0" d="M341.9,256.9C341.9,256.9,341.9,256.9,341.9,256.9C341.8,256.9,341.8,256.9,341.9,256.9z"/>
						<path class="st0" d="M318.4,183.4c0,0.2,0,0.4-0.1,0.6C318.5,184,318.4,183.6,318.4,183.4z"/>
					</g>
				</g>
			</g>
		</g>
	</g>
	<g>
		<g>
			<g>
				<g>
					<g>
						<polygon class="st0" points="487.4,217.2 487,217.4 486.9,218.5 						"/>
						<path class="st0" d="M484.3,222.7c0.2,0,0.3,0.1,0.5,0.1c0.5-1.3,0.8-2.6,1.2-3.9C484.2,219.5,485.6,222.5,484.3,222.7z"/>
						<path class="st0" d="M483.4,223.4c-1.3,0.7-1.2,1.7-1.3,2.1C482.1,224.7,484.2,223.8,483.4,223.4z"/>
						<path class="st0" d="M471.2,199.7c0-0.1,0-0.2,0-0.3C471.2,199.5,471.2,199.6,471.2,199.7z"/>
						<path class="st0" d="M447.8,222.7l0.1,0.8c4.8-4.5,11.2-7.9,16.1-12.6l-0.2,0.5c1.7-1.3,3.3-2.7,5-4c1.6-1.3,3.3-2.7,4.5-4.6
							c0.6-1,1.1-2,1.2-3.3c0.1-1.2-0.2-2.4-1-3.4c-0.7-1-1.7-1.6-2.8-2c-1-0.4-2.1-0.5-3.2-0.5c-1.1,0-2.1,0.1-3.2,0.3
							c-1,0.2-2,0.6-3,0.9c-1,0.3-1.9,0.8-2.9,1.2c-0.9,0.5-1.9,0.9-2.8,1.4c-3.6,2-6.9,4.6-9.9,7.6c0.1-0.2,0.1-0.4,0.2-0.7
							c-0.4,0.7-0.8,1.6-1.5,2.2c-0.3,0.1,0-0.4,0.1-0.7c-1.7,0.9-3.4,2.9-4.7,5c-0.7,1-1.3,2-1.9,2.9c-0.6,0.9-1.1,1.5-1.6,1.9
							c-0.5,0.9-0.3,1.5,0.3,1.3c-1.7,2.8-3.4,5.7-4.4,8.7c-0.5,1.5-0.7,3-0.5,4.5c0.1,1.5,0.7,2.9,1.5,4.1c1.6,2.5,4.4,4.4,7.2,5.3
							c3,0.9,6.1,0.8,9.3,0.3c0.6,0.1,0.8,0.4,0.6,0.8c2.7-0.8,5.4-1.7,8-2.6c2.7-1,5.3-2,7.9-3.2c5.2-2.4,10.2-5.2,14.6-8.8
							c0-0.6-1.2,0.4-0.7-0.7c-1.6,0.9-2.7,2.2-3.8,3.3c-1.2,1.1-2.4,2.2-4,2.7l0.1-0.6c-2.2,0.9,0.2,1.2-2.3,2
							c-1,0.1-0.1-0.6-0.5-0.4c-2.2,1.3-4.5,2.3-6.9,3.3c-2.3,1-4.7,1.9-6.9,3c-0.7-0.3-2,0-3.4,0.2c-1.4,0.3-2.9,0.4-3.8,0
							c-1.2,0.5-2.4,0.4-2.9,1c-2.1-0.2-4.1-0.6-5.8-1.3c-1.7-0.8-3.4-1.9-4.6-3.3c-1.2-1.4-2.1-3-2.3-4.7c-0.2-1.7,0.1-3.6,0.9-5.5
							c0.8-1.9,1.9-4,3.1-5.9c1.2-2,2.5-3.9,3.8-5.7c2.8-3.6,6-7,9.6-9.7c0.7-0.9,1.5-1.6,2.4-2.3c0.9-0.7,1.8-1.4,2.9-1.9
							c1-0.6,2.1-1,3.2-1.5c1.1-0.4,2.3-0.8,3.5-1c1.2-0.3,2.3-0.5,3.4-0.5c1.1,0,2.2,0.1,3.1,0.5c0.5,0.1,0.9,0.4,1.2,0.6
							c0.3,0.2,0.5,0.5,0.7,0.7c0.1,0.3,0.3,0.6,0.3,0.9c0,0.3,0,0.7,0,1.1c-0.1,0-0.1,0-0.2-0.1c0,1-1.1,2.7-2.6,4.1
							c-1.5,1.4-3.4,2.9-5,4.1l-2.2,2.8c-10.2,7.1-20.4,14.3-32,18.5c-2.9,1-5.8,1.9-8.8,2.4c-3,0.5-6,0.8-9.1,0.9
							c-6.1,0-12.2-1.1-17.5-3.7c-0.8-0.4-1.5-0.7-2.2-1.2c-0.7-0.4-1.5-0.8-2.1-1.3l-1-0.7c-0.6-0.4-1.1-0.9-1.7-1.3l-1.6-1.2
							l-0.8-0.6l-0.4-0.3l-0.2-0.1l-0.1-0.1c0,0-0.1-0.1-0.1,0c-1,0.9-1.9,1.8-2.8,2.8c-0.4,0.5-0.9,1-1.3,1.6
							c-0.2,0.3-0.4,0.6-0.6,0.9l-0.5,0.8c-0.2,0.5-0.5,0.9-0.7,1.4c-0.1,0.2-0.2,0.5-0.3,0.8c-0.1,0.3-0.2,0.5-0.2,0.9
							c-0.3,1.4-0.3,2.8,0.2,4.1c0.9,2.6,3.6,4.4,6.5,4.3c0.7,0,1.5-0.1,2.1-0.3c0.6-0.1,1.1-0.3,1.6-0.5c1-0.4,1.9-0.9,2.7-1.4
							c0.9-0.5,1.5-1,2.2-1.5c0.7-0.5,1.4-1,2.1-1.5c1.4-1.1,2.7-2.1,4-3.2c10.5-8.9,19.2-20,24.7-33.2c0.1,0.1,0.3,0,0.1,0.7
							c1.8-3.7,3.4-7.2,5-10.9c0.4-1,0.7-2.1,0.8-3.3c0-0.6,0-1.4-0.2-2c-0.2-0.7-0.5-1.3-0.9-1.9c-0.8-1.2-2-2-3.3-2.4
							c-1.3-0.4-2.4-0.4-3.6-0.3l0-0.2c-1.4,0.2-2.7,0.6-3.9,1c-1.2,0.5-2.5,1.1-3.5,1.7c-1.1,0.6-2.1,1.2-3.2,1.8
							c-1.1,0.6-2.1,1.2-3.2,1.8c-4.2,2.5-8.4,5.2-12.4,8c-8,5.7-15.3,12.3-20.9,19.6c-6.5,6.9-12.6,14.9-17.7,23.6
							c-5.2,8.7-9.5,18.2-12.5,27.9l0.6,0.2c0.7-3.5,1.5-7,2.2-10.5l0.4,0.1c3.4-18.5,9.4-35.7,13-54.1c5.1-18.6,6.8-39.1,12.2-57.8
							c4.5-11.3,4.1-27.6,8.9-38.1c4.3-10.6,7.8-21.2,11.9-31.5l-2.5-0.6c-0.1,11.6-0.3,23.3-1.2,35.1c-2.1,10.5-3.9,21.1-6.4,31.4
							c-0.3,1.3-0.6,2.6-0.9,3.9l-1.1,3.8c-0.7,2.5-1.4,5.1-2.3,7.6c-0.9,2.5-1.8,5-2.7,7.4c-1,2.4-2.1,4.8-3.3,7.1
							c-0.5,2.4-1.5,4.8-2.5,7.1c-1,2.4-2.2,4.7-3.6,7c-1.3,2.3-2.7,4.6-4,7c-1.4,2.3-2.7,4.7-3.8,7.2l0.6-0.1
							c-3,2.8-2.3,8.7-5.3,9.8l0.1-0.4c-1.9,1.3-0.2,5.4-1.9,5.9l0.3,0.6c-1.1,2.3-0.7,0-1.8,1.5c-0.3,0.7,0.7,0.7-0.3,1.9
							c-2-0.8-2.9,5.5-5,4.3c0.7-1.2-1.9,1.3-0.7-1.6c-0.7,0.6-2.8,4.2-1.7,4.5c0.7,0.9,0.6,2.8,2.7,1.1l-0.4-0.9
							c1.1-0.3,0.7-0.3,1.4-0.3c1.9-2.8,3.1-2.6,4.8-4.4c0,0-0.1,0-0.1,0c0.1-1.9,1.7-3.6,2.5-4.7l0.6-0.2c1.2-0.2,0.3-4.2,1.2-2.6
							c3.1-6.1,6.7-13.1,10-20.1c0-1.2,2.5-5.3,0.7-4.3c2-1.2,4.7-6.3,5.4-8.3c0.1,0.1,0.2,0.3,0,0.5c3.2-3.2,0.4-5.1,3.8-7.9
							c-1.2-1.1,2.9-6.4,2-9.1c0.5-0.3,0.8-0.4,1-0.1c1.1-3.3,2.4-6.7,3.6-10c1.1-3.3,2.2-6.6,3.1-9.4c0-2.6,0.9-5.5,1.7-8.4
							c0.8-2.8,1.4-5.7,1-8c1.2-3.4,3-9,3.2-14l0.1,0.5c0.4-2.8,0.8-5.9,1.1-8.9c0.3-2.9,0.2-5.7-0.1-7.7c1.9-1.5,1.9-3.9,2.6-6.3
							c-0.2-1.9-0.1-4.8,0-7.9c0-3.1,0.1-6.4-0.2-9.3c0.1-0.1,0.2-0.3,0.3-0.6l-6.1-1.4c-0.8,1.2-1.2,4-2.2,3.9
							c-2,8-4.4,16.6-6.9,25.4c-2.5,8.7-5.2,17.6-8,25.7l0-0.3c0.1,2.3,0.9,5.1,1.2,7.5c-0.1,0.2-0.3,0.1-0.2-0.3
							c-0.5,3.1-2.2,5.6-2.7,8.7c-0.2-0.1-0.2-0.1-0.2-0.6c-0.1,3-2.2,5.7-2.1,9.2l-0.3,0.1l-0.1,2.2c-0.4-0.1-0.9-0.4-0.5-1.5
							c-6.3,25.9-10.5,53.2-16.9,79.8l-0.1-1.1l-0.6,5.3c-0.2-0.1-0.2-0.3-0.2-0.6c-2.1,6.4-2.7,13.5-4.3,19.9
							c-0.2-0.1-0.3-1.1-0.7-0.3c-0.1,4.9-3,7.3-1.6,10l3.6,1c0-0.1,0-0.1-0.1-0.2c0.2-0.2,0.7-0.2,0.7,0.3
							c1.8-6.4,4.2-12.8,7.2-18.9c3.1-6,6.7-11.9,10.7-17.3c0.6-1.3,1.3-2.5,2.1-3.8c0.8-1.2,1.5-2.5,2.4-3.7
							c1.8-2.3,3.6-4.7,5.7-6.9c4-4.5,8.5-8.6,12.4-13.1l0.2,0.3c5.4-5.5,11.8-10.1,18.7-14c3.4-2,7.1-3.7,10.6-5.4
							c1.8-0.7,3.7-1.1,5.5-1.1c0.9,0,1.8,0.2,2.5,0.6c0.7,0.4,1.2,1.1,1.5,1.9c0.3,1.3-0.1,2.7-0.6,4c-0.5,1.3-1,2.6-1.5,3.9
							c-0.5,1.3-1.1,2.5-1.6,3.9c-0.6,1.3-1.3,2.7-2.1,4.1l-0.5-0.1c-1.9,5.3-5.5,10-9.4,14.4c-4,4.4-8.2,8.4-11.8,13l0.1-1
							c-0.6,2-5.5,4.3-3.8,5.2l-1.9,0.9c-0.6,0.9-1.2,1.6-1.9,2.3c-0.7,0.7-1.4,1.3-2.2,1.8c-1.6,1.1-3.5,1.9-5.5,1.7
							c-2-0.2-3.7-2-3.6-4c0-1,0.3-2,0.7-3c0.4-1,0.9-2,1.6-3.2c-0.1,0.3-0.1,0.6-0.1,0.9c0.3-0.6,0.7-1.1,1.1-1.7
							c0.2-0.3,0.5-0.6,0.7-0.8c0.1-0.1,0.1,0,0.2,0l0.2,0.1l0.4,0.3c0.5,0.4,1,0.8,1.5,1.2c0.5,0.4,0.9,0.7,1.2,1.1
							c-0.3-0.1-0.3,0-0.8-0.2c1.4,1.5,3.1,2.8,5.1,3.8c1,0.5,2,1,3,1.3l1.6,0.5c0.5,0.1,1.1,0.3,1.6,0.4c4.3,1,8.8,1.1,13,1.1
							l-1,0.8c2.1-0.4,5-0.5,8.1-0.9c3.1-0.3,6.3-1,8.9-1.9l-0.2,0.4l2.5-1.3l0.3,0.7C436.4,230.2,442.1,226.5,447.8,222.7z"/>
						<path class="st0" d="M444.7,205.8C444.7,205.8,444.8,205.7,444.7,205.8C444.9,205.6,444.8,205.6,444.7,205.8z"/>
						<path class="st0" d="M352.2,217c-0.2,0.3-0.4,0.5-0.6,0.7C351.8,217.7,352.1,217.3,352.2,217z"/>
					</g>
				</g>
			</g>
		</g>
	</g>
	<g>
		<g>
			<g>
				<g>
					<g>
						<path class="st0" d="M356,431.9l-0.2-0.2c0,0.2,0,0.4,0.1,0.6C356,432.2,356,432,356,431.9z"/>
						<path class="st0" d="M354.9,433.6c0.1,0.1,0,0.3,0.1,0.4c0.2-0.3,0.3-0.6,0.4-0.9c0.1-0.3,0.2-0.7,0.2-1
							c-0.3-0.5-0.3,0.1-0.3,0.6C355.2,433.3,355.1,433.9,354.9,433.6z"/>
						<path class="st0" d="M354.6,433.4c-0.4-0.4-0.6,0.4-0.8,0.7c0.1-0.3,0.3-0.2,0.5-0.2C354.5,433.8,354.6,433.8,354.6,433.4z"/>
						<path class="st0" d="M328.8,390.9c0,0.1,0,0.1,0.1,0.2C328.8,391,328.8,390.9,328.8,390.9z"/>
						<path class="st0" d="M325.1,376.6l-0.7-0.2c0.6,1.4,0.5,2.8,0.5,4.3c0,1.5-0.2,3,0.2,4.4l-0.3-0.2c0.3,7.4,2.5,14,5.2,20.7
							c-0.1-0.1-0.3-0.1-0.4-0.1c0.3,0.3,0.9,0.5,0.9,0.9c-0.1,0.1-0.3,0-0.4-0.1c-0.3,0.9,0.3,1.9,0.8,2.8c0.6,0.9,1.2,1.7,1,2.3
							c0.3,0.4,0.8,0.3,1,0c2.4,5,5.7,10.1,9.9,13.9c0.1,0.3-0.1,0.5-0.5,0.7c2.3,1.2,4,2.9,5.8,4.3c1.7,1.4,3.5,2.7,5.4,3.2
							c0.2-0.4-0.3-0.6,0.2-1c-0.4-0.4-1-0.2-1.6-0.2c-0.6,0-1.2,0-1.6-0.7l0.4-0.3c-0.6-0.7-0.7,0.9-1.2-0.1
							c-0.1-0.5,0.4-0.4,0.3-0.6c-0.8-0.4-1.6-1.1-2.3-1.7c-0.8-0.6-1.6-1.3-2.7-1.7c0.4-1-1.5-1.8-1.3-3c-0.6-0.2-0.9-0.7-1.5-0.5
							c-0.5-0.8-1.1-1.6-1.6-2.4c-0.6-0.8-1-1.6-1.5-2.4c-0.5-0.8-1.1-1.6-1.5-2.4l-1.4-2.5l-0.7-1.3l-0.6-1.3l-1.3-2.7
							c-0.4-0.9-0.7-1.8-1-2.8c-0.3-0.9-0.7-1.9-0.9-2.8c-0.7-0.8-1.2-1.7-1.5-2.6c-0.2-0.5-0.3-1-0.4-1.5c-0.1-0.5-0.1-1.1-0.2-1.6
							c-0.1-1.1-0.1-2.2-0.3-3.3c-0.1-1.1-0.2-2.2-0.5-3.3c0.1,0,0.1,0,0.2,0c-0.7-1.4-1.1-3.5-1-5.2l-0.9-1.4
							c0.5-5.3,0.7-10.6,1.1-15.9c0.4-5.3,1-10.6,2.4-15.8c2.8-11.9,7.1-21.7,8-34c0.2,0.1,0.3,0,0.3,0.3c0.6-3.4,2.1-6.3,2.6-9.5
							l0.2,0.1c0.6-8.2,4.5-16.3,4.2-24.4c0.9-4.7,1.7-9.7,2-14.9c0-2.6-0.3-5.3-1.7-7.7c-0.7-1.2-1.7-2.2-2.9-2.7
							c-1.2-0.6-2.5-0.8-3.8-0.6l0-0.4c-1.1,0.2-2.1,0.5-3,1c-0.9,0.4-1.8,1-2.6,1.6c-1.7,1.2-3.2,2.5-4.6,3.9
							c-1.4,1.5-2.6,3-3.9,4.5c-1.3,1.5-2.5,3.1-3.5,4.9c-1.4,1.6-2.5,3.3-3.6,5.1c-1.1,1.8-2,3.8-3,5.7c-1,1.9-1.9,3.8-2.9,5.7
							c-1,1.9-2.2,3.6-3.5,5.2c-2.1,1.7-3.2,4.6-4.2,7.4c-1,2.8-2,5.6-3.9,7.2c-7.3,7.4-9.9,17-12.2,26.8c-1.2,2-2.1,4.1-2.8,6.2
							c-0.8,2.1-1.5,4.3-2.2,6.5c-0.7,2.2-1.4,4.3-2.2,6.4c-0.8,2.1-1.7,4.1-3,6c-0.1,2.2-1.1,4.2-2.3,6.2c-0.6,1-1.2,2-1.8,3.1
							c-0.5,1.1-1,2.1-1.2,3.3l0.5,0c-1.8,1.2,0.9,4.1-1.5,4.6l0-0.2c-1.3,0.6,1.9,2.7,0.5,2.8l0.5,0.3c-0.1,1.1-0.6,0-1,0.7
							c0,0.3,0.9,0.4,0.4,0.9c-2.1-0.4-0.2,2.7-2.6,2.1c0.2-0.6-1.2,0.7-1.3-0.8c-0.3,0.3-0.7,2.1,0.4,2.2c1,0.4,1.8,1.3,2.9,0.5
							l-0.7-0.4c0.9-0.2,0.5-0.2,1.1-0.2c0.5-1.4,1.6-1.2,2.4-2.1c0,0,0,0-0.1,0c-0.7-0.9,0.1-1.7,0.3-2.2l0.5-0.1
							c1-0.1-1.3-2,0.1-1.2c0.4-2.9,1.4-6,2.2-9.2c-0.5-0.6,0.8-2.3-0.5-2c1.5-0.4,2.6-2.6,2.8-3.4c0.1,0.1,0.2,0.2,0.1,0.3
							c2.2-1.1-0.9-2.5,1.6-3.3c-1.3-0.7,1.4-2.6,0.1-4.1c0.4-0.1,0.7,0,0.9,0.1c0.5-1.4,1.1-2.8,1.8-4.1c0.7-1.3,1.3-2.6,1.8-3.7
							c-0.2-1.2,0.3-2.4,0.9-3.5c0.5-1.1,1-2.2,0.5-3.4c0.9-1.2,2.5-3.2,2.7-5.4l0.1,0.3c0.8-2.2,1.9-4.9,1.6-6.9
							c1.8,0.1,2-1,2.9-1.7c-0.1-1.8,1.5-4.6,1.9-7c0.9,0,0.6-1.9,1.7-1.5c0.9-7.1,5.7-14.1,10.7-19.5l0,0.1c-0.1-1.1-0.7-2.8-1-4
							c0.1,0,0.3,0.1,0.2,0.2c0.5-1.2,2.1-1.7,2.6-3c0.2,0.1,0.2,0.1,0.2,0.4c0.2-1.3,2.1-1.7,2.1-3.4l0.3,0.1l0.1-1
							c0.3,0.2,0.8,0.6,0.4,0.9c3.1-4.7,5.9-9.7,8.9-14.7c1.5-2.5,3-5,4.6-7.4c0.8-1.2,1.6-2.4,2.5-3.6c0.9-1.2,1.7-2.3,2.6-3.2
							l0,0.5c0.3-0.7,0.6-1.3,1-2c0.1,0.1,0.1,0.3,0.1,0.4c1.2-0.7,2.1-1.5,3.1-2.3c1-0.8,2-1.4,3.1-1.3c0,0.2-0.3,0.6,0,0.8
							c0.2-0.2,0.3-0.2,0.5-0.2c0.1,0,0.3,0,0.4,0c0.3,0.1,0.5,0.3,0.6,0.5c0.3,0.3,0.5,0.5,1.4-0.2c0,0.1-0.3,0.5-0.5,0.6
							c0.8,0.4,1.5,1.1,2,2.2c0.5,1.1,0.8,2.3,0.9,3.7c0.1,1.3,0,2.7-0.2,4.1c-0.2,1.4-0.5,2.9-0.7,4.3c1.3,5.1-1.4,10.1-1,15.3
							l-0.4-0.1c-0.1,6.7-3.3,13.1-4.8,19.7c-0.9,2.7-1,4.6-1.7,7.4l-0.5-0.1c0.5,5.1-4.3,9.2-3.7,14.6l-0.6-0.5
							c0.8,1-1.1,2.8,0.7,3l-0.7,0.7c1.4,3.8-2.6,5.7-2,10.1l-0.3-0.4c0.1,1.1,0.1,2.4-0.5,3.2c0-0.1-0.2-0.1-0.2-0.4
							c-2.3,3.1-1.2,7.2-1.8,10.8l-0.7-0.5c0.3,0.9,0.2,2.2,0,3.5c-0.2,1.3-0.4,2.7-0.3,3.9l-0.4-0.2l0.4,1.2l-0.7,0
							C324.5,370.8,325,373.7,325.1,376.6z"/>
						<path class="st0" d="M330.2,406.4C330.2,406.4,330.2,406.4,330.2,406.4C330.1,406.3,330.1,406.3,330.2,406.4z"/>
						<path class="st0" d="M274.4,385.5c-0.1,0.1-0.2,0.2-0.2,0.3C274.3,385.8,274.3,385.6,274.4,385.5z"/>
					</g>
				</g>
			</g>
		</g>
	</g>
	<g>
		<g>
			<g>
				<g>
					<g>
						<polygon class="st0" points="357.3,332.5 357.3,332.3 357.2,332.9 						"/>
						<path class="st0" d="M356.5,333.9c0,0.1,0,0.3,0,0.4l0.5-1.8C356.8,331.5,356.7,334.6,356.5,333.9z"/>
						<path class="st0" d="M356.4,333.7c-0.2-0.4-0.3,0.4-0.3,0.7C356.1,333.8,356.4,334.6,356.4,333.7z"/>
						<path class="st0" d="M340,335.9C340.1,335.9,340.1,335.8,340,335.9C340.1,335.8,340,335.8,340,335.9z"/>
						<path class="st0" d="M336.4,339.4l0.1,0.7c0.5-1.3,1.6-0.3,2.3-1l0,0.2c2.1-0.1,3.8-1.5,5.8-2.4c0,0.1,0,0.3,0,0.4
							c0.1-0.2,0.1-0.7,0.2-0.6c0,0.1,0,0.3,0,0.4c0.6,1,1.2-0.9,1.6-0.1c0.1-0.1,0.1-0.6,0-0.9c1.6-0.5,3.3-0.9,5-1.9
							c0.1,0.1,0.1,0.4,0.1,0.8c1.3-1.9,2.9-1.3,4.4-1c0-0.5-0.2-0.5,0-1c-0.5-0.6-0.9,1.2-1.3,0.3l0-0.5c-0.3-0.3,0,1.1-0.4,0.6
							c-0.1-0.4,0-0.6-0.1-0.6c-0.7,0.2-1.4-0.1-2,1c-0.2-1-0.7,0-1-0.9c-0.1,0.4-0.3,0.3-0.3,1c-2.4-0.3-4.7,0.9-7.1,1.2
							c-0.8,2.1-2.5,0-3.7,0.9c0-0.1,0-0.1,0-0.2c-0.3,0.5-0.9,0.9-1.5,0.7l-0.3,0.9c-3.4-1-6.2,0.8-9.4,0.8
							c-3.6,0.4-6.9-0.2-9.6,3.1c0-0.2-0.1-0.3,0-0.4c-0.9,0.6-1.9,0.2-2.7,0.8l0-0.2c-1.9,2.1-4.7,1-6.5,3.1
							c-2.7,0.5-5.6,1.3-8.4,2.3l-0.1-0.4c-2.1,1.2-4.6-0.4-6.8,0.5c-1.2-0.3-2.3,0.4-3.5,1c-1.2,0.6-2.3,1.2-3.6,0.7
							c-0.8-0.9-1.6-0.3-2.4,0.2c-0.8,0.5-1.7,1.1-2.4,0.1c-2.8-2.9-5.4-1.2-8.5,0.3c-1.2-0.7-2.6-0.4-4-0.4c-1.3,0-2.7-0.1-3.7-1.5
							c-0.8,0.5-1.3,0-1.8-0.8c-0.5-0.7-0.9-1.5-1.6-1.5l-0.1,0.5c0-1.5-1.7,1.5-1.2-0.6l0.1-0.1c0.1-1.1-1.4,2.2-1.1,0.9l-0.2,0.5
							c-0.3,0,0.2-0.6,0-0.9c-0.1,0-0.4,0.9-0.4,0.5c0.8-2-0.9,0.2,0-2.1c0.2,0.1,0.1-1,0.7-1.3c0-0.3-0.5-0.3-0.9,0.6
							c-0.5,1-1,1.8-1.1,2.7l0.4-0.7c-0.2,0.8-0.1,0.4-0.3,1c0.4,0.2,0,1.3,0.1,1.9c0,0,0,0,0-0.1c0.6-0.8,0.6-0.2,0.7,0l-0.1,0.4
							c-0.2,0.9,1.1-1.5,0.4-0.1c1,0,1.9,0.3,2.9,0.6c0.3-0.5,0.7,0.3,0.8-0.9c-0.2,1.3,0.5,1.9,0.7,1.9c0,0.1-0.1,0.3-0.1,0.2
							c0.1,1.8,1-1.4,1,0.8c0.4-1.4,0.8,0.7,1.5-1c0,0.3-0.1,0.6-0.1,0.9c0.9,0.3,1.7,0.9,2.5,1.2c0.9-1.2,1.5,0.9,2.3-0.8
							c0.4,0.4,1,1.3,1.8,0.7l-0.1,0.2c0.7,0,1.6,0,2.2-1.1c0.1,1.7,0.4,1.4,0.7,2c0.5-0.7,1.5-0.4,2.3-1.1c0.1,0.8,0.6-0.3,0.6,0.8
							c1.1-1.1,2.2-1.4,3.3-1.3c1.1,0.1,2.3,0.7,3.4,1.5l0,0.1c0.3-0.6,0.5-2.1,0.8-2.9c0,0.1,0,0.3,0,0.3c0.4-0.2,0.8,0.9,1.2,0.6
							c0,0.2,0,0.2,0,0.4c0.3-0.5,0.8,0.9,1.2-0.1l0,0.3l0.2-0.4c0,0.4,0.1,1-0.1,0.8c3.4,0.1,6.6-2.3,10-2.5l-0.1,0.4l0.5-0.7
							c0,0.2,0,0.3,0,0.4c0.9,0.5,1.6-0.7,2.4-0.7c0,0.2,0,0.6,0.1,0.8c0.4-1.1,1.2,1.2,1.1-1c0,0.1,0.2,0.6,0.1,0.8
							c1.5-1,3.2-1.3,4.9-1.4c0.9-2.2,2.9-0.8,3.9-2.7l0.1,0.4c1.5-1.8,3.8-0.8,5.6-1.6c0.8,0,1.2-0.6,2-0.8l0.1,0.5
							c0.9-2.1,3.2,0.9,4.1-1.4l0.1,0.7c0-1.1,0.9,0.1,0.4-1.5l0.4,0.5c0.4-2.5,2,0.6,2.8-1.1l0,0.4c0.2-0.4,0.5-0.7,0.8-0.4
							c0,0.1,0,0.2,0,0.3c1.3,1.4,2-0.6,3-0.8l0.1,0.8c0.3-1,1.4-0.4,1.9-0.9l0,0.4l0.2-0.6l0.2,0.7
							C335,340.5,335.6,339.7,336.4,339.4z"/>
						<path class="st0" d="M344.9,337.1C344.8,337.1,344.8,337.1,344.9,337.1C344.8,337.1,344.8,337.1,344.9,337.1z"/>
						<path class="st0" d="M259.4,348.3c0-0.1,0-0.1-0.1-0.2C259.4,348.3,259.4,348.3,259.4,348.3z"/>
					</g>
				</g>
			</g>
		</g>
	</g>
	<g>
		<g>
			<g>
				<g>
					<g>
						<path class="st0" d="M84.1,570.7l0,0.5c0.4,0.3,0.8,0.6,1.2,0.8C84.9,571.6,84.5,571.1,84.1,570.7z"/>
						<path class="st0" d="M90.4,575.3c-0.1-0.2,0-0.3-0.1-0.5c-1.5-0.1-3.1-0.6-4.6-1.5c0.1,0.6,0.5,1,1,1.2c0.4,0.3,1,0.3,1.5,0.4
							C89.2,575,90,574.7,90.4,575.3z"/>
						<path class="st0" d="M91.4,576c1.4,1,2.2,0.3,2.6,0.1C93.4,576.7,91.5,575.1,91.4,576z"/>
						<path class="st0" d="M196.5,531.1c-0.1,0.1-0.1,0.3-0.2,0.4C196.4,531.3,196.5,531.2,196.5,531.1z"/>
						<path class="st0" d="M197.6,501.8l-0.7,0.1c1,0.9,1.8,2.1,2.3,3.4c0.5,1.3,0.8,2.8,0.8,4.2c0.1,2.9-0.5,5.9-1,8.7l-0.1-0.4
							c-0.3,0.9-0.5,1.8-0.8,2.6c-0.3,0.8-0.6,1.7-1,2.5c-0.4,0.8-0.8,1.6-1.1,2.4c-0.4,0.8-0.9,1.6-1.3,2.4c-1.8,3.1-3.9,6-6.2,8.7
							c-4.7,5.4-10.3,10.1-16.5,14.2c0.2-0.2,0.1-0.4,0.3-0.6c-0.5,0.6-1,1.4-1.7,1.7c-0.3,0,0-0.4,0.2-0.6
							c-0.8,0.2-1.7,0.6-2.6,1.1c-0.9,0.5-1.8,1.1-2.8,1.7c-1.8,1.2-3.5,2.3-4.6,2.4c-0.7,0.5-0.9,1.1-0.3,1.2
							c-10.4,5.5-22,10.2-33.4,14.3c-0.6,0-0.8-0.2-0.7-0.7c-4.7,2.2-9.8,3.7-15,4.8c-1.3,0.3-2.6,0.5-3.9,0.7
							c-1.3,0.2-2.7,0.4-4.1,0.5c-2.8,0.2-5.7,0.1-8.5-0.5c-0.5,0.4,1.1,0.7-0.1,1c1.9,0.7,3.7,0.5,5.4,0.2c1.6-0.3,3.2-0.6,4.8-0.4
							l-0.4,0.5c1.2,0,1.3-0.3,1.4-0.6c0.1-0.3,0.2-0.5,1.4-0.4c1,0.2-0.1,0.6,0.3,0.6c4.7-1,9.6-1.6,13.7-3.8
							c1.3,0.7,4.9-1.2,6.9-0.8c1.1-0.7,2.3-1,2.5-1.7c8-2.2,15.9-5.2,23.5-8.8c3.8-1.8,7.6-3.7,11.3-5.8c3.7-2,7.4-4.2,11-6.6
							c2.8-3,6.4-5.5,10-8.5c3.6-2.9,7.2-6.3,9.6-10.6c0.1,0,0.1,0,0.2,0.1c0.4-0.7,0.7-1.5,1.1-2.4c0.4-0.9,0.8-1.7,1.2-2.7
							c0.8-1.9,1.6-3.8,2.3-5.6c0-1.1,0.1-2.2,0.1-3.3c0.8-2.7,1.3-5.6,1-8.6c-0.2-3-1.2-6-3-8.5c-1.7-2.5-4.1-4.6-6.7-6.1
							c-2.6-1.5-5.4-2.6-8.4-3.1c-5.9-1.1-11.8-0.5-17.3,0.6c-5.6,1.1-11,2.5-16.4,4c-6.1,1.8-12,3.9-17.6,6.2
							c-5.6,2.3-11.1,4.9-16.2,7.9c-10.4,5.9-19.9,13.3-28.2,22.6c-0.1-0.2-0.3-0.1,0.1-0.6c-1.5,1.6-3.1,3.1-4.6,4.5l2.4,2.9
							c4-2.6,7.9-4.9,11.6-7.7l0.1,0.2c6.4-5.3,13.5-10.2,20.4-15.3c6.9-5.1,13.5-10.5,18.8-16.5c7.2-6.5,14.5-14,20.7-22.5
							c3.1-4.3,5.9-8.8,8.1-13.6c2.3-4.8,4.1-9.7,5.1-14.8l0.4,0.1c0.7-4.1,1.2-8.2,1.2-12.3c0-4.1-0.5-8.2-2.1-12.1
							c-0.8-1.9-1.9-3.8-3.4-5.3c-1.5-1.6-3.4-2.8-5.4-3.5c-4.2-1.5-8.8-1-12.7,0.7c-4.2,1.3-8,3.8-11.3,6.7c-3.2,3-6.2,6.2-8.8,9.7
							c-5.4,6.9-9.6,14.5-14,21.8c-3.2,4.3-5.3,10.1-7,15.9c-1.7,5.8-3.1,11.5-5.4,16c-4.4,9.3-7.2,19-9.2,28.8
							c-2,9.8-3.2,19.8-4.3,29.9c-2.3,9.1-3.6,18.4-4.9,27.6c-1.3,9.2-2.8,18.3-5.3,27.1c0,8.7-4.4,17.6-5.1,27.2l0.5-0.3
							c-1.8,3.3,1.3,7.8-1,9.8L73,636c-1.2,1.8,2.2,4.4,0.9,5.4l0.5,0.3c0,2.2-0.6,0.2-0.9,1.9c0,0.6,0.9,0.3,0.6,1.6
							c-2.2,0.2,0.3,5.4-2.1,5.5c0-1.2-1,1.9-1.4-0.8c-0.3,0.8-0.2,4.5,0.9,4.2c1.1,0.3,2,1.8,2.9-0.5l-0.8-0.5
							c0.8-0.7,0.4-0.6,1-0.8c0.1-2.9,1.3-3.3,1.9-5.3c0,0,0,0-0.1,0c-0.9-1.4-0.3-3.4-0.1-4.5l0.5-0.4c0.9-0.6-1.6-3.4-0.1-2.4
							c0-5.9,0.6-12.6,1.4-19.2c-0.5-1,0.7-5-0.6-3.7c1.5-1.5,2.6-6.3,2.8-8.1c0.1,0.1,0.2,0.2,0.1,0.5c2.2-3.2-0.9-4.4,1.7-7.4
							c-1.4-0.8,1.4-5.9,0-8c0.4-0.4,0.7-0.4,0.9-0.2c1-5.9,2.7-12.4,3.7-17.4c-0.5-4.5,2.4-10.3,1.3-14.2c0.9-3,2.6-7.8,2.7-12.1
							l0.1,0.5c0.8-4.8,1.9-10.8,1.5-14.3c2-1.1,2.1-3.2,3.1-5.1c-0.1-3.3,1.5-9.7,2-14.7c0.9-0.6,0.6-4,1.8-4
							c1.1-13.9,6.5-30.5,13.6-43.3l0,0.2c0.1-2-0.3-4.6-0.3-6.7c0.2-0.1,0.3,0,0.2,0.3c0.9-2.6,3-4.3,4-6.8
							c0.2,0.1,0.2,0.1,0.1,0.6c0.7-2.5,3.2-4.1,3.9-7.1l0.3,0c0.2-0.6,0.4-1.2,0.6-1.8c0.3,0.2,0.7,0.6,0.1,1.4
							c3-4.8,6.3-9.5,9.9-13.9l1.4-1.6c0.5-0.5,1-1.1,1.4-1.6c1-1,1.9-2.1,3-3.1l1.5-1.5c0.5-0.5,1-1,1.5-1.5c1-0.9,2.1-1.8,3.3-2.6
							c2.3-1.6,4.7-3,7.3-3.9c2.5-0.9,5.2-1.3,7.7-1c2.5,0.4,4.9,1.6,6.6,3.5c1.8,1.9,3,4.4,3.7,7.1l-0.6-0.7c0.6,1.3,1.2,2.6,1.6,4
							c-0.2,0-0.3-0.2-0.4-0.4c0.1,1.4,0.1,2.8,0.2,4.2l0,2.1c0,0.7,0.1,1.4,0,2.2c0,0.7,0,1.4,0,2.2c0,0.7-0.1,1.4-0.2,2.1
							c-0.1,1.4-0.4,2.8-0.7,4.2c-0.2-0.1-0.4-1-0.7-0.3c0,2.1-0.8,3.6-1.4,4.9c-0.6,1.3-1.1,2.3-0.4,3.6c-0.2,0.1-0.7,0.1-0.7-0.4
							c-1.7,5.5-4.5,10.7-7.8,15.6c-3.3,4.9-7.1,9.5-11.3,13.7c-2.6,4.3-6.3,8.1-10.2,11.7c-3.9,3.6-8,7-11.5,10.9l-0.2-0.3
							c-9.6,9.5-22.2,16.4-33.5,24.3c-2.5,1.6-4.4,3-6.4,4.4l0.7,0.9c0.8-0.9,1.7-1.7,2.5-2.6c0.4-0.4,0.9-0.9,1.4-1.4
							c0.5-0.5,1-0.9,1.5-1.4l0.4,0.3c3-4,7.3-6.9,11.6-9.7c4.4-2.7,8.9-5.3,12.7-8.8l-0.2,0.9c0.8-1.8,5.5-2.8,4.1-4l1.8-0.4
							c1.2-1.3,2.6-2.3,4-3.1c1.4-0.8,3-1.3,4.6-1.9c1.6-0.6,3.2-1.1,4.9-1.7c1.7-0.7,3.5-1.5,5.3-2.6l-0.4,0.6
							c2-1.2,4.4-2.3,6.1-2.5c-0.2,0.1-0.1,0.2-0.5,0.5c1.8-0.2,3.6-0.6,5.3-1.1c1.8-0.5,3.5-1.1,5.3-1.7c0.9-0.3,1.8-0.6,2.7-1
							l2.7-0.9c1.8-0.6,3.6-1.1,5.4-1.5l-0.7,0.9c1.7-0.8,4.2-1.3,6.8-1.5c2.7-0.2,5.4-0.2,7.8-0.2l-0.3,0.3
							c0.8-0.1,1.6-0.2,2.4-0.2l-0.1,0.7c2.9,0.5,5.7,1.3,8.2,2.6C193.6,497.6,196,499.4,197.6,501.8z"/>
						<path class="st0" d="M170.8,551.3C170.9,551.3,170.9,551.3,170.8,551.3C171,551.1,171,551.2,170.8,551.3z"/>
						<path class="st0" d="M76.6,646.2c-0.1,0.3-0.1,0.5-0.2,0.7C76.5,646.9,76.5,646.4,76.6,646.2z"/>
					</g>
				</g>
			</g>
		</g>
	</g>
	<g>
		<g>
			<g>
				<g>
					<g>
						<polygon class="st0" points="295.2,612.3 294.8,612.4 294.8,613.3 						"/>
						<path class="st0" d="M293.3,616.6c0.2,0,0.3,0.1,0.4,0.1l0.4-3.1C292.6,613.8,294.3,616.5,293.3,616.6z"/>
						<path class="st0" d="M292.6,617c-1,0.5-0.6,1.3-0.6,1.7C291.8,618.1,293.5,617.5,292.6,617z"/>
						<path class="st0" d="M238.7,593.1c0,0.1,0.1,0.2,0.1,0.3C238.8,593.2,238.8,593.1,238.7,593.1z"/>
						<path class="st0" d="M234.4,570l-0.7-0.3c1.1,4.4,0.1,9.4,0.9,14l-0.3-0.3c0.3,5.9,1.2,11.6,2.9,17c0.7,2.8,1.8,5.4,2.8,8
							c0.6,1.3,1.2,2.6,1.7,3.9c0.3,0.7,0.6,1.3,0.9,2c0.3,0.6,0.7,1.3,1,1.9c-0.1-0.1-0.3-0.1-0.5-0.2c0.5,0.4,1.1,0.8,1.3,1.4
							c-0.1,0.2-0.4,0-0.5-0.2c0,1.3,0.9,2.9,2,4.3c1,1.4,2.1,2.5,2.2,3.4c0.5,0.5,1,0.5,1.1,0c2.7,3.5,6.2,6.6,10.3,7.9
							c4.2,1.3,8.7,0.9,12.7-0.6c0.4,0,0.6,0.3,0.6,0.7c3.4-1.9,6.4-3.8,9.5-6.1c3.1-2.3,6.1-4.9,8.9-7.7c-0.1-0.5-0.9,0.3-0.7-0.6
							c-2.1,1.4-2.4,4.2-4.6,5.1l-0.1-0.5c-1.4,0.9,0.5,1.1-1.1,1.8c-0.8,0.1-0.2-0.5-0.5-0.4c-1.2,1.2-2.7,2.2-4,3.1
							c-1.4,1-2.7,1.9-3.9,3c-0.6-0.3-1.4,0-2.2,0.4c-0.4,0.1-0.9,0.3-1.3,0.4c-0.4,0.1-0.9,0-1.2-0.1c-0.7,0.6-1.6,0.6-1.8,1.3
							c-2.9,0.4-5.7,0.2-8.3-0.5c-2.6-0.7-5.1-2.1-7.3-4c-2.2-1.9-4.1-4.3-5.7-7c-0.4-0.7-0.8-1.3-1.2-2l-1.1-2.1l-1-2.1l-0.5-1.1
							c-0.2-0.4-0.3-0.7-0.4-1.1c-1-1.2-1.7-2.6-2.4-4.1c-0.6-1.5-0.9-3.2-1.3-4.9c-0.2-0.8-0.3-1.7-0.5-2.6
							c-0.1-0.9-0.3-1.7-0.4-2.6c-0.3-1.7-0.6-3.5-1-5.3c0.1-0.1,0.1-0.1,0.2,0c-0.9-2.2-1.4-5.6-1.5-8.4l-0.9-2.3
							c0.6-17,1.3-34.3,3.1-51.6c0.2-2.5,0.4-4.9,0.7-7.3c0.2-2.4,0.4-4.9,0.4-7.3c0-2.5-0.1-5-0.6-7.5c-0.5-2.5-1.2-5-2.6-7.4
							c-1.3-2.4-3.3-4.5-5.7-6c-1.2-0.8-2.5-1.4-3.8-1.8c-1.3-0.4-2.7-0.7-4-0.8c-5.4-0.4-10.7,1.5-14.6,4.9
							c-0.1-0.2-0.3-0.2,0.1-0.5c-1.2,0.9-2.3,1.8-3.4,2.7c-0.5,0.5-1.1,0.9-1.6,1.4c-0.3,0.2-0.5,0.5-0.8,0.7c-0.3,0.3-0.7,0.7-1,1
							c-2.7,2.8-4.7,5.8-6.5,8.6l-0.3,0.1c-0.2,0.4-0.4,0.8-0.7,1.2l0.2,0.1c0.1,0,0.3,0,0.4,0l0.9,0l1.7,0c1.1,0,2.2-0.1,3.2-0.1
							c0.5,0,1,0,1.5-0.1l1.6-0.2l1.6-0.2l1.6-0.4l1.5-0.4c0.3-0.1,0.5-0.1,0.7-0.2l0.6-0.2c0.8-0.3,1.6-0.5,2.4-0.9
							c1.6-0.6,3.1-1.4,4.6-2.1c5.9-3.2,10.9-7.6,14.6-12.5c2.7-2.7,5.4-5.6,8-8.7c2.6-3,5.1-6.3,7.5-9.6c2.4-3.4,4.6-6.9,6.6-10.5
							c2-3.6,3.7-7.4,5.1-11.1l0.3,0.2c2.1-6.1,4-12.2,4.9-18.6c0.1-0.8,0.3-1.6,0.3-2.4l0.2-2.4c0.1-1.6,0.1-3.3,0-4.9
							c-0.2-1.7-0.5-3.3-1.2-4.9c-0.7-1.6-1.7-3.1-3.1-4.3c-1.3-1.3-3.1-2.2-4.9-2.6c-1.8-0.4-3.6-0.4-5.3-0.3
							c-1.7,0.1-3.4,0.4-5.1,0.7c-1.7,0.3-3.4,0.5-5.1,0.9c-3.4,0.6-6.7,1.4-10,2.4c-1.6,0.5-3.2,1.1-4.7,1.8
							c-0.7,0.3-1.5,0.7-2.2,1.1c-0.2,0.1-0.4,0.2-0.6,0c-0.1-0.2-0.1-0.4-0.1-0.6c0.1-0.4,0.3-0.9,0.8-0.8c0.5,0.1,0.9,0.6,1,1.1
							c0.1,0.3,0.1,0.5,0.1,0.8c0,0.1,0,0.3,0,0.4c0,0.1,0,0.1-0.2,0.2l-0.3,0.1c0,0-0.1,0-0.1,0l0,0.1c-0.3,1-0.5,2.2-0.7,3.3
							c-0.4,2.3-0.6,4.6-0.9,7c-0.4,4.7-0.9,9.4-2.6,13c-6,15-7.1,30.6-8.3,46.6c-3.7,14.3-3.5,29.2-7.9,42.8
							c0.2,6.9-3.9,13.7-4.7,21.2l0.5-0.2c-1.8,2.4,1.1,6.2-1.3,7.6l-0.1-0.3c-1.3,1.3,2,3.6,0.6,4.3l0.5,0.3
							c-0.1,1.7-0.6,0.1-1,1.4c0,0.5,0.9,0.3,0.5,1.3c-2.2-0.1-0.1,4.2-2.6,4c0.1-0.9-1.1,1.3-1.3-0.8c-0.3,0.6-0.6,3.4,0.4,3.3
							c1,0.4,1.8,1.7,2.9,0l-0.7-0.5c0.9-0.5,0.5-0.4,1.1-0.5c0.4-2.3,1.6-2.4,2.3-3.9c0,0,0,0-0.1,0c-0.8-1.3,0-2.7,0.3-3.6
							l0.5-0.3c1-0.4-1.4-2.8,0.1-1.9c0.3-4.7,1.1-10,1.9-15.1c-0.5-0.8,0.7-3.9-0.7-3c1.5-1.1,2.5-4.9,2.6-6.3
							c0.1,0.1,0.2,0.2,0.2,0.4c2.1-2.5-1.1-3.5,1.5-5.8c-1.4-0.6,1.2-4.6-0.3-6.4c0.4-0.3,0.7-0.3,0.9-0.2
							c0.8-4.6,2.2-9.7,2.9-13.6c-0.7-3.6,2-8,0.7-11.2c0.8-2.3,2.2-6.1,2.1-9.5l0.2,0.4c0.6-3.8,1.3-8.5,0.7-11.3
							c1.9-0.8,1.9-2.5,2.7-4c-0.3-2.7,0.9-7.7,0.9-11.6c0.9-0.4,0.3-3.2,1.5-3.2c-0.1-11.1,3.3-24.2,7.4-35.3l0,0.2
							c-0.3-1.6-1.3-3.6-1.8-5.3c0.1-0.1,0.3-0.1,0.2,0.2c0.1-1.1,0.5-2,1-3l0-0.1l0,0l0.1-0.1l0.1-0.2c0.1-0.1,0.1-0.2,0.1-0.3
							c0-0.2,0-0.4-0.3-0.6c0.2,0.2,0.2,0.2,0.6,0.4c-0.1-0.1-0.3-0.2-0.4-0.2c-0.1,0-0.2,0.1-0.2,0.2c0,0.1,0,0.2,0.1,0.4
							c0.1,0.1,0.3,0.2,0.4,0.1c0.3-0.1,0.5-0.1,0.7-0.2c0.2-0.1,0.2-0.2,0.4-0.5l0.2,0.2c0.1-0.1,0.1-0.2,0.2-0.3
							c0.1-0.1,0.4-0.3,0.5-0.4c0.1,0.2,0.1,0.4,0.1,0.6c0,0.1-0.1,0.2-0.1,0.3c0,0-0.1,0.1-0.2,0.1c0,0-0.1,0-0.1,0l1.3-0.5
							l1.5-0.4c1-0.3,2-0.5,3.1-0.7c2.1-0.4,4.3-0.8,6.5-1.1c2.3-0.3,4.6-0.6,6.9-0.9c2.2-0.3,4.4-0.5,6.3-0.3
							c1.9,0.2,3.6,0.8,4.8,2c1.3,1.2,2.1,3,2.6,5.1c0.5,2.1,0.6,4.3,0.6,6.5c0,1.1,0,2.3-0.1,3.4c-0.1,1.1-0.2,2.3-0.4,3.4
							l-0.2-0.7l0.1,3.6c-0.2-0.1-0.3-0.2-0.3-0.4c-1.5,4.2-1.8,9-3.7,13c-0.2-0.1-0.2-0.8-0.7-0.4c-0.2,1.7-1,2.8-1.6,3.7
							c-0.7,0.9-1.1,1.7-0.5,2.9c-0.2,0.1-0.6,0-0.6-0.4c-1.8,4.2-4,8.3-6.6,12.1c-2.6,3.9-5.6,7.5-8.7,10.9
							c-1.7,3.6-4.4,6.7-7.3,9.7c-2.9,3-6,5.7-8.7,8.7l-0.2-0.3c-3.1,3-6.8,5.4-11,6.9c-1,0.3-2.2,0.7-3.1,0.9l-1.5,0.3l-1.5,0.2
							c-1,0.1-1.9,0.1-2.8,0.1c-0.5,0-0.9-0.1-1.4-0.1l-0.7-0.1l-0.3,0c0,0-0.1,0-0.1,0l0.1-0.1l0.1-0.2c1-1.4,1.9-2.7,2.9-4
							c0.6-0.7,1.2-1.4,1.8-2l0.4-0.5l0.5-0.5c0.3-0.3,0.6-0.7,1-1c1.3-1.3,2.7-2.6,4.7-3.7l0.3,0.4c1.4-1.3,3.2-2.2,5.1-2.6
							c1.9-0.4,3.9-0.4,5.9-0.1c1.9,0.4,3.7,1,5.4,1.9c1.7,0.9,3.2,1.9,4.8,3.1c-0.3,0-0.6,0-0.8,0c0.4,0.1,0.7,0.3,1.1,0.7
							c0.3,0.4,0.6,0.8,0.8,1.2c0.5,0.8,0.9,1.5,1.6,0.9c0,0.5,0,1,0.1,1.5c0.5,0.5,0.9,1.1,1.2,1.7c0.3,0.6,0.5,1.2,0.7,1.9
							c0.3,1.3,0.3,2.6,0.3,3.9c-0.1,2.7-0.6,5.4,0,8.7l-0.4-0.5c0.2,1.8,0.4,3.9-0.1,5.1c0-0.2-0.2-0.1-0.3-0.5
							c-2,5.4-0.6,11.7-1.1,17.5l-0.7-0.7c0.7,2.9-0.5,8-0.3,11.7l-0.4-0.2l0.4,1.9l-0.7,0c-0.2,2.4-0.1,4.8-0.1,7.1
							C234.2,565.3,234.3,567.7,234.4,570z"/>
						<path class="st0" d="M244,617.3C244,617.3,244,617.2,244,617.3C243.9,617.1,243.9,617.2,244,617.3z"/>
						<path class="st0" d="M201.1,572.9c-0.1,0.2-0.1,0.4-0.2,0.6C201,573.4,201,573.1,201.1,572.9z"/>
					</g>
				</g>
			</g>
		</g>
	</g>
	<g>
		<g>
			<g>
				<g>
					<g>
						<polygon class="st0" points="333.2,504.5 333,504.6 333.4,505.2 						"/>
						<path class="st0" d="M333.5,507.7c0.1,0,0.3,0.1,0.4,0l-1.1-2.2C331.7,505.9,334.3,507.5,333.5,507.7z"/>
						<path class="st0" d="M333.2,508.1c-0.6,0.5,0.1,1,0.3,1.3C332.9,508.9,334.1,508.3,333.2,508.1z"/>
						<path class="st0" d="M297.7,552.3c0,0,0.1-0.1,0.1-0.2C297.8,552.2,297.7,552.2,297.7,552.3z"/>
						<path class="st0" d="M285.7,562.1l0.1,0.7c1.1-1.1,2.5-1.8,3.9-2.4c0.7-0.3,1.4-0.6,2.2-0.9c0.7-0.4,1.4-0.8,2-1.3l-0.1,0.3
							c0.9-0.5,1.7-0.9,2.5-1.4c0.8-0.5,1.6-1.1,2.4-1.6c1.6-1,3-2.3,4.4-3.5c1.4-1.2,2.7-2.5,4.1-3.8c1.3-1.4,2.6-2.7,3.9-4.1
							c0,0.1,0.1,0.3,0,0.4c0.1-0.4,0.1-1,0.4-1.3c0.2,0,0.1,0.3,0.1,0.4c1-0.2,1.7-1.1,2.4-2c0.6-0.9,1.2-1.9,1.8-1.9
							c0.2-0.4,0-0.9-0.4-0.9c3.8-4.5,7.6-9.7,10-15.2c0.3-0.2,0.6,0,0.8,0.2c1.2-5.3,4.3-9.5,6.5-14.3c-0.4-0.4-0.7,0.3-0.9-0.4
							c-1.2,1.3-0.2,3.3-1.6,4.3l-0.3-0.4c-0.8,0.8,0.9,0.7-0.1,1.5c-0.5,0.2-0.5-0.4-0.6-0.2c-0.4,1.1-1,2.1-1.5,3.2
							c-0.5,1-0.9,2.1-1,3.4c-1.1,0-1.4,2.1-2.6,2.3c0,0.7-0.4,1.2,0,1.7c-2.5,3.2-4.8,6.6-7.5,9.9c-1.3,1.7-2.7,3.2-4.1,4.8
							c-0.7,0.8-1.5,1.5-2.2,2.3c-0.7,0.7-1.5,1.5-2.3,2.1c-0.4,1-1.1,1.9-1.8,2.6c-0.8,0.7-1.7,1.3-2.7,2c-1,0.6-2,1.2-3,1.8
							c-1,0.6-1.9,1.3-2.9,2c-0.1,0-0.1-0.1-0.1-0.2c-1,1.2-2.8,2.7-4.5,3.3l-1,1.5c-5.3,1.9-10.3,4.5-15.4,5
							c-2.5,0.3-5-0.1-7.1-1.3c-2.1-1.2-3.8-3.1-4.9-5.4c-1.3-2.6-1.9-5.3-1.9-8c0-2.8,0.4-5.5,1-8.3c0.6-2.8,1.4-5.6,2.1-8.4
							c0.7-2.9,1.5-5.8,2.1-8.9c0.2,0.1,0.3,0,0.2,0.4c0.5-1.7,1.4-3.2,2.2-4.7c0.8-1.5,1.7-2.9,2.3-4.4l0.2,0.1
							c1.4-4,3.9-7.7,6.5-11.1c2.7-3.4,5.4-6.7,7.7-10.2c5-5,11-10,17.4-14.5l-0.6-0.7c-1.6,2.5-3.4,5-5.2,7.4l-0.3-0.3
							c-2.4,3.4-5.7,6.2-9,8.6c-3.4,2.4-6.9,4.5-10.3,6.9c-3.9,1.8-7.6,4.2-11.5,6.3c-2,1-4.1,1.8-6.4,1.8c-1.1,0-2.3-0.2-3.3-0.7
							c-1-0.5-1.9-1.3-2.5-2.1c-0.5-1.3-1-2.5-1.5-3.9c-0.5-1.4-0.9-2.9-1.1-4.4c-0.5-3.1-0.2-6.4,1.4-8.6c2.8-4.6,4.7-9.3,6.5-14.1
							c1.7-4.8,3.3-9.8,5.3-14.7c3-3.9,5.4-8.1,8.2-12c2.8-3.9,6-7.6,10.1-10.1c1.1-2,3.2-3.3,5.5-4.2c2.3-0.9,4.7-1.4,6.8-2.2
							l-0.3-0.4c1,0.5,1.8-0.2,2.6-0.7c0.8-0.5,1.7-0.8,2.2,0.3l-0.2,0.1c0.4,0.6,0.9,0,1.5-0.5c0.6-0.5,1.2-1,1.3-0.3l0.3-0.5
							c1.2,0.2,0,0.6,0.8,1.1c0.3,0.1,0.5-0.9,1-0.3c-0.4,1,0.3,1.2,0.9,1.5c0.6,0.3,1.2,0.7,0.5,1.6c-0.2-0.2-0.2,0.1-0.3,0.5
							c-0.1,0.3-0.3,0.6-0.9,0.5c0.1,0.2,0.3,0.5,0.7,0.6c0.3,0.2,0.8,0.2,1.1-0.2c0.9-0.6,2.2-0.7,2-2.1l-0.8,0.4
							c0.3-0.9,0.1-0.5,0.4-1.1c-0.3-0.3-0.5-0.6-0.7-0.9c-0.2-0.3-0.3-0.5-0.3-0.8c-0.2-0.6-0.3-1.1-0.8-1.7c0,0,0,0.1,0,0.1
							c-1.3,0.4-2.1-0.5-2.8-0.9l-0.2-0.5c-0.1-0.5-0.8-0.2-1.2,0.1c-0.5,0.3-0.8,0.5-0.4-0.2c-1.9-0.1-3.8-0.1-5.8,0.3
							c-1,0.2-2,0.4-2.9,0.7c-0.9,0.3-1.8,0.7-2.7,1.1c-0.2,0.8-2.6,1.3-1.3,1.9c-1.5-0.7-4,0.7-4.8,1.4c0-0.1-0.1-0.3,0.1-0.3
							c-1.3,0-1.5,0.7-1.7,1.3c-0.2,0.6-0.4,1.2-1.8,1.1c0.8,1.3-2.7,2-2.1,3.9c-0.4-0.1-0.7-0.2-0.8-0.5c-2.3,2.3-5,4.6-6.8,6.6
							c-0.2,1.3-1.2,2.3-2.1,3.3c-0.9,1-1.7,2.1-1.5,3.4c-1.2,1.1-3.4,2.9-4,5.2l-0.1-0.3c-1.3,2.2-2.9,5.1-2.7,7.2
							c-1.9-0.2-2.1,1-3.1,1.7c-0.1,1.9-1.8,4.9-2.2,7.7c-0.9,0.1-0.5,2.1-1.7,1.8c-0.4,3.9-1.4,7.8-2.7,11.8c-0.3,1-0.6,2-1,3
							c-0.4,1-0.7,2.1-1.1,3.1c-0.6,2.1-1.2,4.3-1.5,6.7l-0.1-0.1c0.7,1.2,2.3,2.4,3.4,3.2c-0.1,0.1-0.3,0.2-0.3-0.1
							c0.3,0.7,0.4,1.5,0.5,2.3c0.1,0.4,0.2,0.8,0.4,1.2c0.2,0.4,0.4,0.8,0.7,1.1c-0.2,0.1-0.2,0.1-0.5,0c0.7,0.5,1.2,1.3,1.9,2
							c0.7,0.7,1.5,1.4,2.7,1.3l0,0.3c0.5,0,0.9,0,1.4-0.1c-0.1,0.4-0.3,0.9-1,0.6c2,0.7,4.1,0.7,5.9,0.4c1.8-0.3,3.5-0.8,5-1.4
							c1.6-0.6,2.9-1.3,4.4-2.1c1.4-0.8,2.8-1.5,4.2-2.4c5.4-3.3,10.4-7.3,15.2-11.4l-0.1,0.6l1.4-2.1c0.1,0.2,0.1,0.3,0.1,0.4
							c2.8-1.7,4.2-4.8,6.3-7c0.1,0.1,0.1,0.7,0.6,0.5c0.6-2.4,3.4-2,2.3-4.2c0.1,0,0.6,0.2,0.6,0.5c0.7-1.2,1.5-2.5,2.2-3.8l-3-3
							c-3.9,2.9-7.8,5.8-11.7,8.8c-0.6,1.2-1.5,2.3-2.4,3.3c-0.9,1-1.9,2-2.9,3c-0.9,1-1.9,2-2.8,3.1c-0.9,1.1-1.6,2.3-2.2,3.5
							l-0.3-0.3c-0.9,1.5-1.8,3.1-2.8,4.5c-1,1.5-2.1,2.9-3.2,4.3c-1,1.5-2.2,2.9-3.1,4.4c-0.5,0.8-1,1.5-1.5,2.3
							c-0.4,0.8-0.9,1.6-1.3,2.4c-0.8,1.3-1.3,2.4-1.7,3.6c-0.5,1.2-0.9,2.3-1.5,3.7l-0.5-0.1c-0.2,2.7-1.5,5-2.7,7.4
							c-0.6,1.2-1.2,2.4-1.6,3.7c-0.4,1.3-0.6,2.6-0.4,4.1l-0.6-0.5c0.8,1-1,3.1,0.8,3.1l-0.7,0.8c0.9,1.9,0.5,3.4,0.1,5.1
							c-0.4,1.7-0.7,3.7,0.5,5.6l-0.5-0.2c0.6,1.1,1.2,2.3,1.2,3.2c-0.1-0.1-0.2,0-0.4-0.2c-0.1,2,0.9,3.9,2.4,5.4
							c1.5,1.5,3.3,2.5,4.9,3.5c-0.3,0.2-0.5,0.3-0.8,0.4c1.1,0.1,2.3,0.7,3.7,1.1c1.4,0.4,2.9,0.7,4.2,0.5l-0.2,0.4
							c0.4-0.2,0.9-0.3,1.3-0.6l0.1,0.7C280.2,565.1,282.9,563.4,285.7,562.1z"/>
						<path class="st0" d="M311.7,543.7C311.7,543.7,311.7,543.7,311.7,543.7C311.7,543.8,311.7,543.8,311.7,543.7z"/>
						<path class="st0" d="M307.5,427c0.2,0.1,0.3,0.2,0.4,0.4C307.9,427.3,307.6,427.1,307.5,427z"/>
					</g>
				</g>
			</g>
		</g>
	</g>
	<g>
		<g>
			<g>
				<g>
					<g>
						<path class="st0" d="M378.4,600.3L378.4,600.3l-0.1,0c0,0,0.2,0,0.3,0C378.5,600.3,378.4,600.3,378.4,600.3
							C378.3,600.3,378.4,600.3,378.4,600.3z"/>
						<path class="st0" d="M379.3,601.1c0.1,0,0.3,0.1,0.4,0.2c-0.4-0.5-0.9-0.9-1.5-1c-0.5-0.1,0,0,0.5,0.3
							C379.2,600.8,379.6,601.2,379.3,601.1z"/>
						<path class="st0" d="M379,601.2c-0.4-0.1,0.1,0.5,0.2,0.8c-0.2-0.3,0-0.3,0-0.4C379.3,601.5,379.4,601.4,379,601.2z"/>
						<path class="st0" d="M368.7,556.7c0,0.1,0,0.1,0.1,0.2C368.8,556.8,368.7,556.7,368.7,556.7z"/>
						<path class="st0" d="M365.8,543l-0.7-0.2c1,2.6-0.1,5.5,0.4,8.2l-0.2-0.2c0,1.7-0.1,3.4,0.1,5.1c0.2,1.7,0.4,3.3,0.6,5
							c0.4,3.3,1.2,6.5,1.9,9.9c-0.1-0.1-0.3-0.1-0.4-0.2c0.3,0.3,0.7,0.6,0.7,1c-0.1,0.1-0.3-0.1-0.4-0.2c-0.5,0.8-0.2,1.8,0.2,2.8
							c0.4,0.9,0.8,1.8,0.4,2.3c0.2,0.4,0.7,0.5,1,0.2c0.3,1.3,0.6,2.6,0.9,3.9c0.3,1.3,0.6,2.7,1,4c0.8,2.6,1.8,5.2,3.1,7.4
							c-0.1,0.3-0.3,0.4-0.7,0.5c1.5,1.7,2.7,3.4,3.8,5.1c1.1,1.7,2.2,3.4,3.5,4.9l-2.6-0.5c0.1,0,0.2,0,0.3-0.1
							c-0.2-0.4-0.4-0.4-0.5-0.8c-0.1-0.1-0.1-0.1-0.1-0.1l3.7,0.8c-0.8-0.6-2.1-0.6-2.2-1.8l0.4-0.2c-0.3-0.9-1,0.6-1.1-0.5
							c0.1-0.5,0.5-0.3,0.4-0.4c-1.3-1.4-1.9-3.3-3.6-4.5c0.7-0.8-0.8-2-0.2-3c-0.5-0.3-0.6-0.9-1.3-0.8c-0.4-1.7-0.9-3.5-1.3-5.2
							c-0.2-0.9-0.4-1.8-0.7-2.7l-0.6-2.7c-0.4-1.8-0.8-3.7-1.2-5.5c-0.4-1.8-0.6-3.7-0.8-5.6c-0.6-0.8-0.9-1.7-1.1-2.7
							c-0.2-1-0.2-2-0.1-3c0.1-2.1,0.4-4.2,0-6.3c0.1,0,0.1,0,0.2,0c-0.6-1.3-0.8-3.4-0.6-5l-0.8-1.4c1.6-9.9,1-20.1,2.8-30.1
							c1.6-11.4,4.3-21.2,3.2-32.7c0.2,0,0.3,0,0.3,0.3c0-3.3,1-6.1,1-9.2l0.2,0c-0.4-3.9,0.1-7.8,0.5-11.7c0.2-2,0.4-3.9,0.4-5.8
							c0-1.9-0.1-3.8-0.4-5.7c0.4-4.4,0.4-9.2,0.5-14c-0.1-2.4-0.2-4.8-0.3-7.2c-0.1-1.2-0.1-2.4-0.3-3.6c-0.2-1.2-0.7-2.4-1.4-3.4
							l0.3-0.2c-0.5-0.6-1-1.1-1.7-1.4c-0.7-0.3-1.4-0.4-2.1-0.3c-1.6,0.3-2.9,1.7-4,2.5c-1.2,1-2.3,2-3.4,3.1
							c-2.2,2.2-4.1,4.7-5.4,7.5c-2.4,3.2-3.7,7-4.9,10.8c-1.3,3.8-2.5,7.6-4.7,10.9c-3.7,3.6-2.6,11-6.1,14.5
							c-6.3,7.5-7.8,16.7-9.3,26c-3.9,7.7-4,16.7-8.4,24c0.1,4.1-4,7.5-4.8,11.8l0.5,0c-1.8,1.1,1,3.9-1.3,4.3l0-0.2
							c-1.3,0.5,1.9,2.5,0.6,2.7l0.5,0.3c-0.1,1-0.6,0-1,0.7c0,0.3,0.9,0.4,0.5,0.9c-2.1-0.4-0.2,2.5-2.5,2c0.1-0.5-1.1,0.6-1.3-0.7
							c-0.3,0.3-0.6,2,0.4,2.1c1,0.4,1.8,1.3,2.9,0.5l-0.7-0.4c0.9-0.1,0.5-0.2,1.1-0.1c0.4-1.3,1.6-1.2,2.3-2c0,0,0,0-0.1,0
							c-0.8-0.9,0-1.6,0.3-2.1l0.5-0.1c1-0.1-1.4-1.9,0.1-1.1c0.3-2.7,1.1-5.7,2-8.6c-0.5-0.6,0.7-2.2-0.6-1.9
							c1.5-0.4,2.4-2.4,2.6-3.3c0.1,0.1,0.2,0.1,0.2,0.3c2.1-1.1-1-2.3,1.5-3.2c-1.4-0.7,1.2-2.5-0.2-3.8c0.4-0.1,0.7-0.1,0.9,0.1
							c0.9-2.6,2.3-5.3,3.1-7.5c-0.6-2.3,2.1-4.4,0.9-6.5c0.8-1.2,2.3-3.1,2.2-5.2l0.1,0.3c0.7-2.1,1.5-4.8,1-6.6
							c1.9,0,1.9-1,2.7-1.7c-0.2-1.7,1-4.4,1.2-6.8c0.9,0,0.4-1.9,1.5-1.6c0.2-6.7,4-13.7,8.3-19.2l0,0.1c-0.2-1.1-1.1-2.6-1.5-3.7
							c0.1,0,0.3,0,0.2,0.2c0.3-1.2,1.8-1.8,2.1-3c0.2,0.1,0.2,0.1,0.3,0.3c0-1.3,1.8-1.8,1.6-3.4l0.3,0.1l0-1
							c0.3,0.2,0.8,0.5,0.5,0.8c2.4-4.7,4.3-9.8,6.5-14.7c2.1-4.9,4.7-9.7,8.5-13.2l0,0.5c0.3-0.6,0.6-1.3,1-1.9
							c0.1,0.2,0.1,0.3,0.1,0.4c0.3-0.1,0.6-0.3,0.7-0.4c0.1-0.1,0.3-0.2,0.4-0.2c0.2-0.2,0.5-0.4,0.8-0.5c0.3-0.2,0.8-0.3,1.1-0.1
							c0.4,0.1,0.7,0.4,0.8,0.8c-0.2,0.1-0.5,0.2-0.6,0.5c0.3,0,0.4,0.2,0.5,0.4c0,0.1,0,0.2,0,0.3c0,0.1,0,0.3-0.1,0.4
							c-0.1,0.6-0.1,0.9,1,1.2c-0.1,0.1-0.6,0.2-0.8,0c0.1,0.3,0.1,0.5,0.2,0.8l0.1,1c0.1,0.7,0.1,1.4,0.2,2
							c0.1,1.4,0.2,2.7,0.2,4.1l0,2.1l-0.1,2.1c-0.1,1.4-0.2,2.7-0.3,4.1c0.5,1.1,0.7,2.3,0.8,3.5c0.1,1.2,0,2.4-0.1,3.6
							c-0.2,2.4-0.3,4.9,0.2,7.3l-0.4-0.1c0.4,3.1,0.2,6.3-0.3,9.4c-0.5,3.2-1.1,6.3-1.4,9.5c-0.5,2.6-0.2,4.4-0.5,7.1l-0.5,0
							c1.3,4.7-2.8,9.1-1.3,14l-0.6-0.4c0.9,0.8-0.7,2.8,1.1,2.7l-0.6,0.8c1.9,3.4-1.7,5.6-0.7,9.6l-0.4-0.3c0.2,1.1,0.3,2.3-0.1,3
							c0-0.1-0.2-0.1-0.3-0.3c-1.9,3.1-0.5,6.8-0.8,10.2l-0.7-0.4c0.8,1.7-0.3,4.7,0,6.9l-0.4-0.2l0.4,1.1l-0.7,0
							C365.2,537.6,365.8,540.3,365.8,543z"/>
						<path class="st0" d="M367.9,571.4C367.9,571.4,367.9,571.4,367.9,571.4C367.8,571.3,367.8,571.3,367.9,571.4z"/>
						<path class="st0" d="M321,546c-0.1,0.1-0.1,0.2-0.2,0.3C321,546.3,321,546.1,321,546z"/>
					</g>
				</g>
			</g>
		</g>
	</g>
	<g>
		<g>
			<g>
				<g>
					<g>
						<polygon class="st0" points="362.3,493.2 362.2,493 362.3,493.7 						"/>
						<path class="st0" d="M362.2,494.7c0,0.1,0.1,0.3,0.1,0.4l-0.2-1.8C361.8,492.3,362.4,495.3,362.2,494.7z"/>
						<path class="st0" d="M362.1,494.5c-0.2-0.4,0,0.4,0,0.7C362.1,494.6,362.4,495.4,362.1,494.5z"/>
						<path class="st0" d="M355.7,496.3C355.7,496.3,355.8,496.3,355.7,496.3C355.7,496.3,355.7,496.3,355.7,496.3z"/>
						<path class="st0" d="M354.6,499.5l0.1,0.7c0.1-1.2,0.7-0.1,0.9-0.7l0,0.2c0.9,0.1,1.5-1.2,2.2-1.9c0,0.1,0,0.2,0,0.3
							c0-0.2-0.1-0.7,0-0.6c0,0.1,0.1,0.3,0.1,0.4c0.4,1,0.4-0.8,0.7,0c0-0.1,0-0.6-0.2-0.9c0.6-0.4,1.3-0.8,1.7-1.8
							c0.1,0.1,0.1,0.4,0.2,0.8c0.2-1.9,0.9-1.3,1.6-1.2c-0.1-0.5-0.2-0.5-0.2-1c-0.3-0.5-0.1,1.2-0.5,0.4l-0.1-0.4
							c-0.2-0.3,0.2,1.1,0,0.6c-0.1-0.4-0.1-0.6-0.1-0.6c-0.2,0.2-0.6-0.1-0.6,1c-0.3-0.9-0.3,0-0.6-0.9c0,0.4-0.1,0.3,0,1
							c-1-0.3-1.8,0.8-2.7,1c0,2-1.1-0.2-1.4,0.6c0-0.1,0-0.1,0-0.2c-0.1,0.5-0.3,0.8-0.5,0.6l0,0.8c-1.6-1.4-2.6,0-4-0.4
							c-1.5-0.2-3-1.3-3.9,1.5c0-0.2-0.1-0.3,0-0.4c-0.3,0.5-0.8-0.1-1.1,0.3l0-0.2c-0.6,1.7-2,0.2-2.6,2c-1.1,0-2.4,0.4-3.4,1.1
							l-0.1-0.4c-0.8,1-2.1-0.9-2.9-0.1c-1.1-0.7-1.6,2.5-2.8,1.5c-0.9-1.7-1,2.3-1.9,0.5c-1.6-2.7-2.5-0.6-3.4,1.3
							c-1.2-0.8-1.9,1.9-3.3,0c-0.3,1.4-1.3-1.5-1.8-1l0.1,0.5c-0.4-1.4-0.1,2-0.6,0l0-0.1c-0.3-1,0.1,2.5-0.1,1.3l0.1,0.5
							c-0.1,0.2-0.1-0.6-0.2-0.8c0,0.1,0.1,1,0,0.7c-0.3-2.1-0.2,0.5-0.6-1.9c0.1,0-0.2-0.9-0.2-1.4c-0.1-0.2-0.3-0.1-0.1,0.9
							c0.1,1.1,0.2,2,0.5,2.9l-0.1-0.8c0.2,0.8,0.1,0.4,0.2,1c0.2,0.1,0.4,1.2,0.6,1.7c0,0,0,0,0-0.1c-0.1-1,0.1-0.4,0.2-0.3
							l0.1,0.4c0.2,0.9-0.1-1.8,0.1-0.2c0.3-0.4,0.7-0.5,1.1-0.6c0-0.6,0.3,0,0-1.1c0.3,1.3,0.6,1.6,0.7,1.5c0,0.1,0,0.3,0,0.2
							c0.5,1.7,0-1.6,0.5,0.4c-0.2-1.5,0.4,0.4,0.3-1.3c0.1,0.3,0.1,0.6,0.2,0.9c0.4,0,0.8,0.5,1.1,0.5c0-1.3,0.7,0.5,0.6-1.3
							c0.2,0.3,0.6,1,0.8,0.3l0,0.2c0.3-0.1,0.6-0.3,0.6-1.4c0.4,1.7,0.4,1.3,0.6,1.9c0.1-0.8,0.5-0.6,0.6-1.4
							c0.2,0.8,0.2-0.4,0.4,0.8c0.4-2.3,1.6-1.7,2.7-0.2l0,0.1c0-0.6-0.1-2.1-0.1-2.9c0,0.1,0.1,0.3,0,0.3c0.1-0.2,0.5,0.9,0.6,0.6
							c0,0.2,0,0.2,0,0.4c0.1-0.5,0.5,0.9,0.5-0.1l0.1,0.3l0-0.4c0.1,0.4,0.2,0.9,0.1,0.8c1.4,0.1,2.5-2.1,3.9-2l0,0.4l0.2-0.7
							c0,0.2,0,0.3,0,0.4c0.5,0.6,0.6-0.5,1-0.4c0,0.2,0,0.6,0.1,0.8c0.1-1.1,0.6,1.3,0.4-0.9c0,0.1,0.1,0.6,0.1,0.8
							c0.6-0.8,1.3-0.9,2-0.7c0.2-2,1.2-0.4,1.5-2.1l0.1,0.4c0.5-1.5,1.6-0.2,2.3-0.6c0.4,0.1,0.5-0.4,0.8-0.5l0.1,0.5
							c0.2-1.9,1.5,1.4,1.7-0.7l0.1,0.7c-0.1-1,0.4,0.3,0-1.4l0.2,0.5c-0.1-2.4,0.9,0.9,1.1-0.7l0.1,0.4c0.1-0.3,0.2-0.6,0.3-0.3
							c0,0.1,0,0.2,0,0.3c0.7,1.5,0.8-0.3,1.3-0.4l0.1,0.8c0-0.9,0.6-0.2,0.8-0.6l0.1,0.4l0-0.5l0.2,0.7
							C354.1,500.3,354.3,499.6,354.6,499.5z"/>
						<path class="st0" d="M358,497.9C358,497.9,358,497.9,358,497.9C358,497.9,358,497.9,358,497.9z"/>
						<path class="st0" d="M323.5,508c0,0,0-0.1-0.1-0.1C323.4,508,323.5,508,323.5,508z"/>
					</g>
				</g>
			</g>
		</g>
	</g>
	<g>
		<g>
			<g>
				<g>
					<g>
						<polygon class="st0" points="389.7,522.3 390,522.3 389.4,522.1 						"/>
						<path class="st0" d="M388.4,521.3c-0.1,0-0.3,0-0.4,0l1.7,0.6C390.8,521.8,387.7,521.5,388.4,521.3z"/>
						<path class="st0" d="M388.6,521.2c0.4-0.2-0.4-0.3-0.7-0.4C388.6,520.9,387.7,521.2,388.6,521.2z"/>
						<path class="st0" d="M389.7,502.3C389.7,502.4,389.8,502.4,389.7,502.3C389.8,502.4,389.8,502.4,389.7,502.3z"/>
						<path class="st0" d="M387.5,497.1l-0.7-0.1c1.1,1.1-0.3,2,0.1,3l-0.2-0.1c-0.5,2.4,0.4,4.8,0.6,7.3c-0.1,0-0.3-0.1-0.3-0.1
							c0.2,0.1,0.6,0.3,0.6,0.4c-0.2,0-0.3-0.1-0.4-0.1c-1.1,0.4,0.6,1.6-0.3,1.8c0.1,0.2,0.6,0.3,0.9,0.2c0.1,1.9,0.2,4,0.9,6
							c-0.2,0.1-0.5,0.1-0.8,0c1.7,1.8,0.9,3.5,0.5,5.2c0.5,0.1,0.5-0.1,1,0.1c0.6-0.5-1.1-1.1-0.2-1.5l0.4,0.1
							c0.3-0.3-1.1-0.1-0.5-0.5c0.4-0.1,0.6,0.1,0.6,0c-0.1-0.8,0.3-1.5-0.7-2.3c1-0.1,0.1-0.8,1-1c-0.4-0.2-0.3-0.4-0.9-0.5
							c0.7-2.6,0-5.5,0.3-8.2c-1.8-1.5,0.7-2.8,0.2-4.4c0.1,0,0.1,0,0.2,0c-0.4-0.5-0.6-1.3-0.3-1.9l-0.7-0.6
							c2.1-3.4,1.3-7.2,2.6-10.7c0.5-2,1.2-3.9,1.7-5.8c0.4-1.9,0.4-3.8-0.5-6c0.2,0,0.3,0,0.3,0.1c-0.2-1.2,0.7-2.1,0.5-3.3l0.2,0
							c-1.1-3,1.3-5.5,0.1-8.4c0.8-3.1,1.4-6.7,1.7-10.1l0.4,0.1c-0.1-2.8,2.4-4.9,2.5-7.7c1.5-2.5-0.7-6.1,1.2-8.5
							c2.3-1.2-1-4.5,1.4-5.5c3.7-2.4,2.9-6,2.3-9.8c1.9-2.6,0.4-6.4,3.4-8.6c-0.8-1.8,2.6-2.3,2.7-3.9l-0.5-0.1
							c1.5,0-1.4-1.9,0.7-1.5l0.1,0.1c1.1,0.1-2.1-1.5-0.9-1.3l-0.5-0.2c0-0.4,0.6,0.2,0.9,0c0-0.1-0.9-0.4-0.5-0.5
							c2,0.7-0.1-1,2.2-0.2c-0.1,0.2,1,0,1.3,0.6c0.3,0,0.4-0.6-0.6-1c-1-0.4-1.8-1-2.7-0.9l0.7,0.4c-0.8-0.2-0.4-0.1-1-0.2
							c-0.3,0.4-1.4,0.1-1.9,0.2c0,0,0,0,0.1,0c0.8,0.6,0.2,0.7,0,0.8l-0.4-0.1c-0.9-0.2,1.5,1.2,0.1,0.5c0,1.1-0.4,2.1-0.7,3.2
							c0.5,0.4-0.3,0.8,0.8,0.9c-1.3-0.2-2,0.5-2,0.8c-0.1-0.1-0.2-0.1-0.2-0.1c-1.8,0,1.3,1.2-0.9,1c1.4,0.6-0.8,0.8,0.8,1.7
							c-0.3,0-0.6-0.1-0.9-0.2c-0.4,0.9-1.2,1.8-1.6,2.6c1,1.1-1.1,1.5,0.4,2.6c-0.5,0.4-1.5,0.9-1,1.8l-0.2-0.1
							c-0.2,0.8-0.4,1.8,0.5,2.7c-1.7-0.3-1.5,0.1-2.1,0.3c0.6,0.8,0,1.7,0.5,2.7c-0.8-0.1,0.1,0.8-1,0.5c1.5,2.9-0.1,5.4-2.4,7.3
							l-0.1-0.1c0.5,0.5,1.8,1.2,2.5,1.8c-0.1,0-0.3-0.1-0.3-0.1c0.1,0.5-1.1,0.6-1,1.1c-0.2-0.1-0.2-0.1-0.3-0.2
							c0.4,0.5-1.1,0.6-0.4,1.3l-0.3-0.1l0.3,0.4c-0.4-0.1-0.9-0.3-0.8-0.4c-0.7,1.8-0.8,3.9-0.9,5.9c-0.1,2-0.2,4.1-0.8,6l-0.3-0.2
							l0.5,0.9c-0.2,0-0.3-0.1-0.3-0.2c-0.9,0.8,0,2.1-0.4,2.9c-0.2,0-0.5-0.3-0.7-0.2c0.8,0.9-1.6,0.8,0.5,1.6
							c-0.1,0-0.6-0.1-0.7-0.2c0.3,2.1-0.2,4.1-1,5.9c1.6,2-0.5,3.5,0.7,5.5l-0.4-0.1c0.9,2.4-1,4.5-1.1,6.8c-0.3,0.9,0,1.6-0.1,2.6
							l-0.5-0.1c1.5,1.9-2.2,3.1-0.5,5.1l-0.6-0.2c1,0.4-0.5,1,1.2,1.1l-0.6,0.2c2.1,1.5-1.4,1.9-0.1,3.5l-0.4-0.2
							c0.3,0.4,0.5,0.9,0,1.1c-0.1-0.1-0.2,0-0.3-0.2c-1.8,0.9-0.2,2.5-0.4,3.7l-0.8-0.2c0.8,0.7-0.2,1.7,0.2,2.5l-0.4-0.1l0.5,0.5
							l-0.7-0.1C387,495.1,387.5,496.1,387.5,497.1z"/>
						<path class="st0" d="M387.2,507.4C387.2,507.4,387.2,507.4,387.2,507.4C387.2,507.4,387.2,507.4,387.2,507.4z"/>
						<path class="st0" d="M406.2,407.5c0.1,0,0.1,0,0.2-0.1C406.2,407.4,406.2,407.5,406.2,407.5z"/>
					</g>
				</g>
			</g>
		</g>
	</g>
	<g>
		<g>
			<g>
				<g>
					<g>
						<path class="st0" d="M477.8,615.5l-0.2-0.1c0.1,0.2,0.2,0.4,0.3,0.6L477.8,615.5z"/>
						<path class="st0" d="M477.6,617.5c0.1,0.1,0.2,0.2,0.3,0.3c-0.1-0.7-0.2-1.4-0.4-2c-0.5-0.2-0.2,0.2,0,0.8
							C477.7,617.2,477.9,617.7,477.6,617.5z"/>
						<path class="st0" d="M477.2,617.6c-0.5-0.1-0.3,0.6-0.2,1C476.8,617.9,477.8,618.3,477.2,617.6z"/>
						<path class="st0" d="M445.2,595.7c0,0,0.1,0.1,0.1,0.1C445.4,595.7,445.3,595.7,445.2,595.7z"/>
						<path class="st0" d="M437,586.3l-0.7,0.2c2,1.5,2.2,4.4,3.8,6.3l-0.3,0c2.8,5.5,6.8,9.7,11,14.2c-0.1,0-0.3,0.1-0.4,0
							c0.4,0.1,0.9,0.1,1.1,0.4c-0.1,0.2-0.3,0.1-0.4,0.1c-0.1,1.7,2.9,2.4,2.8,3.6c0.3,0.2,0.8,0,0.9-0.4c1.6,1.7,3.4,3.3,5.3,4.7
							c1.9,1.4,4,2.5,6.1,2.9c0.1,0.2,0,0.5-0.2,0.8c2.1-0.1,3.7,0,5.5,0c1.7,0,3.5-0.1,5-0.7c-0.1-0.5-0.5-0.3-0.5-0.9
							c-0.5-0.1-0.8,0.4-1.2,0.8c-0.3,0.4-0.8,0.7-1.3,0.4l0-0.5c-0.7-0.2,0,1.2-0.8,0.7c-0.3-0.4,0-0.6-0.1-0.6
							c-0.7,0.2-1.5,0.1-2.2,0.1c-0.7,0-1.5,0-2.3,0.4c0-0.5-0.4-0.6-0.8-0.8c-0.4-0.1-0.9-0.3-0.9-0.9c-0.5,0.2-0.9-0.1-1.3,0.4
							c-2.4-1.6-4.8-3.5-7.2-5.7c-2.4-2.2-4.7-4.7-6.7-7.3c-1.7-0.7-2.7-2.1-3.5-3.8c-0.8-1.6-1.5-3.4-2.7-4.8
							c0-0.1,0.1-0.1,0.2-0.1c-1.1-0.8-2.1-2.2-2.6-3.6l-1.3-0.7c-1.4-4.3-3.2-8.3-4.9-12.4c-1.8-4.1-3.5-8.3-4.6-12.6
							c-2.9-9.8-4.1-18.8-9.2-27.7c0.2,0,0.3-0.1,0.4,0.1c-1.2-2.7-1.2-5.4-2.4-7.9l0.2,0c-3.4-6.1-3.7-13.6-7.4-19.3
							c-2.4-7.6-5.7-16-9.8-23.3l0.3-0.2c-0.6-0.9-1.3-1.8-2.1-2.5c-0.8-0.8-1.8-1.3-2.9-1.5c-1.3-0.2-2.6,0.2-3.6,0.7
							c-1.1,0.5-2.1,1.2-3,1.9c-1.9,1.5-3.5,3.3-4.6,5.5c-1.4,1.8-2.2,4-2.6,6.3l-0.4,2.7l2-1.5c3.9-3.1,7.3-6.7,11.4-9.3
							c1.1-0.3,2.1-1,2.9-1.9c0.8-0.9,1.6-1.9,2.3-2.9c0.7-1,1.4-2.1,2.1-3c0.8-0.9,1.6-1.6,2.7-2c1.9-1.1,3.6-2.3,5.1-3.8
							c1.4-1.5,2.8-3.1,3.9-4.8c1.1-1.8,2.1-3.6,3-5.5c0.8-1.9,1.7-3.8,2.4-5.8c5.1-5.8,6.6-13.8,12-19.2c0.5-3.7,5-5.7,6.5-9.4
							l-0.5-0.1c1.9-0.6-0.3-3.7,2-3.5l0,0.2c1.3-0.2-1.4-2.7-0.1-2.5l-0.4-0.3l1.7-0.2l0,0c0.7,0.6-0.4,0.5-0.1,1.1
							c0.2,0.2,0.8-0.6,0.9,0.1c-1.6,1.5,1.8,1.4,0,3c-0.3-0.4-0.2,1.2-1.3,0.7c0,0.4,1.1,1.5,1.8,0.7c0.9-0.6,2-0.8,2-2.1l-0.7,0.4
							c0.4-0.8,0.1-0.4,0.5-0.9c-0.7-1,0.1-1.9-0.1-2.8c0,0,0,0-0.1,0.1c-1.1,0.2-1.2-0.8-1.4-1.2l0.2-0.4c0-0.1,0.1-0.1,0.1-0.2
							l0.1-1.1l-5.8,1.8c-0.5,0.2,1.1,2-0.1,1c-0.8,2.3-2.1,4.8-3.3,7.2c0.4,0.6-1,1.8,0.3,1.8c-1.5,0-2.7,1.6-3,2.3
							c-0.1-0.1-0.2-0.2-0.1-0.3c-2.2,0.5,0.6,2.3-1.9,2.5c1.2,0.9-1.6,1.9-0.4,3.4c-0.4,0-0.7-0.1-0.9-0.3c-1.2,2.1-3,4.2-4.1,5.9
							c0.3,2.2-2.7,3.3-1.9,5.6c-1,0.9-2.7,2.2-3,4l-0.1-0.3c-0.5,0.9-1,1.8-1.5,2.8c-0.4,0.9-0.7,1.9-0.6,2.8
							c-1.8-0.5-1.9,0.4-2.9,0.8c-0.1,1.5-1.9,3.5-2.5,5.5c-0.8-0.2-0.7,1.5-1.7,0.9c-1.6,5.8-7,10.6-12.4,13.3l0-0.1
							c-0.1,1,0.2,2.6,0.1,3.8c-0.1,0-0.2-0.2-0.1-0.3c-0.7,0.9-2.2,0.7-2.9,1.5c-0.1-0.2-0.1-0.2-0.1-0.4c-0.5,1-2.2,0.6-2.5,2.1
							l-0.2-0.2l-0.4,0.8c-0.2-0.3-0.5-0.8-0.1-0.9c-1.5,1-2.9,2.1-4.3,3.1c-1.5,1-2.9,2.1-4.4,3.2l4.4,3.4c0.5-2.5,1.4-5.1,2.9-7.4
							c0.7-1.1,1.6-2.2,2.6-3.2c1-0.9,2.1-1.9,3.1-2.2c0,0.1-0.1,0.3-0.1,0.4c0.3-0.4,0.6-0.7,0.9-0.9c0,0.2,0,0.3-0.1,0.4
							c0.1,0.1,0.3,0.1,0.4,0.1c0.5,0.2,0.9,0.2,1.6,0.7c0.6,0.4,1.3,1.1,1.7,2c-0.2,0.1-0.6,0-0.7,0.3c0.8,0.4,0.8,1.2,0.9,1.8
							c0.1,0.6,0.2,1.1,1.4,1c-0.1,0.1-0.5,0.4-0.7,0.3c2.6,4.1,4.4,8.7,5.7,13.4c3.2,3.2,3,8,5.7,11.6l-0.4,0.1
							c2.9,4.8,3.2,10.8,5,16.2c0.5,2.3,1.4,3.7,2,6l-0.5,0.2c2.9,3.3,0.7,8.5,3.9,11.9l-0.7-0.1c1.2,0.3,0.4,2.5,2,1.8l-0.3,0.9
							c3,2,0.5,5.2,3,8.1l-0.5-0.1c0.6,0.8,1.2,1.7,1,2.5c-0.1-0.1-0.2,0-0.4-0.2c-0.6,3.3,2.2,5.7,3.2,8.6l-0.8,0
							c1.4,1,1.6,3.9,2.7,5.5l-0.4,0l0.9,0.7l-0.7,0.3c0.5,1.2,1.1,2.2,1.8,3.3C435.7,584.2,436.4,585.3,437,586.3z"/>
						<path class="st0" d="M451,607.4C451,607.4,451,607.4,451,607.4C450.9,607.4,451,607.4,451,607.4z"/>
						<path class="st0" d="M446.5,425.4c0,0.1,0.1,0.2,0.1,0.3C446.7,425.6,446.6,425.5,446.5,425.4z"/>
					</g>
				</g>
			</g>
		</g>
	</g>
</g>
</svg>
