<?xml version="1.0" encoding="utf-8"?>
<!-- Generator: Adobe Illustrator 25.4.1, SVG Export Plug-In . SVG Version: 6.00 Build 0)  -->
<svg version="1.1" id="レイヤー_1" xmlns="http://www.w3.org/2000/svg" xmlns:xlink="http://www.w3.org/1999/xlink" x="0px"
	 y="0px" viewBox="0 0 500 74" style="enable-background:new 0 0 500 74;" xml:space="preserve">
<style type="text/css">
	.st0{enable-background:new    ;}
</style>
<g class="st0">
	<path d="M54.6,17c-1.5,2.7-4.4,8.5-8.9,17.5C42,42,38.9,47.9,36.2,52.1c-4.5,7.4-6.9,11.3-7.3,11.7c-1.7,2.2-3.7,3.3-5.9,3.3
		c-1.6,0-3-0.5-4.2-1.4c-1.3-1-2-2.3-2-3.8c0-1.3,3-6.5,9.1-15.9c-2.2-2.8-5.4-7.2-9.6-13c-3.1-4.3-7.7-10.7-13.8-19.3
		C2,13,1.7,12.1,1.7,11.2c0-1.5,0.7-2.7,2-3.8C4.9,6.4,6.3,6,7.9,6c1.9,0,3.6,0.9,5.2,2.6l3.3,4.6c0.2,0.3,2.7,4.1,7.5,11.2
		c3,4.6,5.7,8.2,8,10.9c2.2-3.9,5.4-9.9,9.5-17.8c0.9-1.8,2.2-4.5,3.9-8c1.1-2.3,3-3.5,5.6-3.5c1.6,0,3,0.5,4.2,1.4
		c1.3,1,2,2.3,2,3.8C57.1,12,56.3,14,54.6,17z"/>
	<path d="M113,65.7c-2.3-0.1-4.6-2.5-6.9-7.2c-1.5-3-2.9-6.5-4-10.5c-2.1,0.3-5.6,0.6-10.5,0.8c-4.6,0.3-8.1,0.6-10.5,1
		c-1.3,2.8-3.6,7.1-6.9,12.7c-1.3,1.8-3,2.8-5.3,2.8c-1.6,0-3-0.5-4.3-1.4c-1.3-1-1.9-2.2-1.9-3.7c0-1.3,2.1-5.7,6.3-13.3
		c-0.4-0.8-0.6-1.5-0.5-2.2c0.1-1.2,1.5-2.2,4.2-2.9c4.1-6.3,8.7-12.9,13.7-19.6c7.2-9.7,11.7-14.6,13.4-14.6c3.2,0,5.3,1.7,6.4,5.1
		c0.6,2.7,1.5,6.9,2.7,12.4c1.8,7.4,3.9,15.8,6.5,25.4c0.2,0.7,0.9,2.4,2.2,5.1c1,2.2,1.6,3.9,1.6,5c0,1.5-0.6,2.7-1.9,3.7
		S114.6,65.7,113,65.7z M96.8,26.2c-2.3,3.4-5.4,8.1-9.3,14.1c1.3-0.3,3.3-0.5,6.1-0.6c3.2-0.2,5.3-0.3,6.1-0.4
		C99,35.8,98,31.5,96.8,26.2z"/>
	<path d="M146.7,34.1c-1.3,4.2-3.1,10.4-5.5,18.8c-0.6,2.9-1.1,5.8-1.6,8.7c-1.2,3.6-3.4,5.5-6.6,5.5c-2,0-3.6-0.6-4.7-1.8
		c-1-1-1.5-2.2-1.5-3.7c0-4.2,1-9.2,3-15.2c3-9,4.6-13.9,4.8-14.9c0.8-4,1.7-7.9,2.6-11.9c1.3-5.4,2.7-9.1,4.2-10.9
		c1.5-1.8,3.4-2.7,5.8-2.7c2.6,0,4.6,1.2,5.8,3.5c1.2,2.2,2.4,6.8,3.7,13.7c1.3,6.7,3.2,13.9,5.7,21.6c3.3-7.6,6.4-16,9.2-25.1
		l2.4-8.9c1.6-3.7,4-5.5,7.3-5.5c3.2,0,5.5,2.1,7,6.4c0.6,1.7,1.3,4.9,2,9.6c1.7,10.9,3.8,20.3,6.3,28.1c2.6,7.9,3.9,12.2,3.9,12.9
		c0,1.5-0.7,2.8-2,3.8c-1.3,0.9-2.7,1.4-4.3,1.4c-3.2,0-5.5-2-7-6l-2.4-9.3c-1.4-4.6-2.9-11.3-4.5-19.9c-1.3,3.4-3.5,8.8-6.5,16.2
		l-2.6,7.1c-1.1,2.8-2.2,5.1-3.3,6.9c-1.5,2.4-3.7,3.6-6.4,3.6c-2.7,0-4.8-1.4-6.3-4.3l-2.4-7.2C150.6,48.2,148.5,41.3,146.7,34.1z"
		/>
	<path d="M256.6,65.7c-2.3-0.1-4.6-2.5-6.9-7.2c-1.5-3-2.9-6.5-4-10.5c-2.1,0.3-5.6,0.6-10.5,0.8c-4.6,0.3-8.1,0.6-10.5,1
		c-1.3,2.8-3.6,7.1-6.9,12.7c-1.3,1.8-3,2.8-5.3,2.8c-1.6,0-3-0.5-4.3-1.4c-1.3-1-1.9-2.2-1.9-3.7c0-1.3,2.1-5.7,6.3-13.3
		c-0.4-0.8-0.6-1.5-0.5-2.2c0.1-1.2,1.5-2.2,4.2-2.9c4.1-6.3,8.7-12.9,13.7-19.6c7.2-9.7,11.7-14.6,13.4-14.6c3.2,0,5.3,1.7,6.4,5.1
		c0.6,2.7,1.5,6.9,2.7,12.4c1.8,7.4,3.9,15.8,6.5,25.4c0.2,0.7,0.9,2.4,2.2,5.1c1,2.2,1.6,3.9,1.6,5c0,1.5-0.6,2.7-1.9,3.7
		C259.6,65.2,258.2,65.7,256.6,65.7z M240.4,26.2c-2.3,3.4-5.4,8.1-9.3,14.1c1.3-0.3,3.3-0.5,6.1-0.6c3.2-0.2,5.3-0.3,6.1-0.4
		C242.6,35.8,241.6,31.5,240.4,26.2z"/>
	<path d="M315.3,23.5c-2.6,0-4.5-1.2-5.8-3.7c-0.6-1.2-1.2-1.8-1.7-2.1c-0.4-0.2-1.6-0.3-3.4-0.3c-3.6,0-7.9,2.5-12.6,7.5
		c-6.7,7-10,13.6-10,19.7c0,2.8,1.1,5.2,3.2,7.2c2.1,2,4.6,3,7.6,3c2.9,0,5.8-0.7,8.7-2c1-0.5,3.2-1.7,6.6-3.8c2.3-1.3,4-2,5.1-2
		c1.7,0,3.2,0.6,4.4,1.7c1.1,1.1,1.7,2.3,1.7,3.6c0,1.5-0.8,2.8-2.3,4c-8,6-16.1,8.9-24.3,8.9c-6.5,0-12-2.1-16.5-6.3
		c-4.3-4.1-6.4-8.8-6.4-14.3c0-8.6,4.2-17.4,12.7-26.3c7.2-7.6,14.6-11.4,22.1-11.4c1.3,0,2.4,0,3.5,0.1c1,0.1,1.9,0.2,2.7,0.3
		c1.3-1.1,2.8-1.7,4.6-1.7c3,0,4.8,1.5,5.5,4.5c0.5,2.2,0.7,4.7,0.7,7.5c0,1.3-0.4,2.5-1.3,3.5C319,22.8,317.4,23.5,315.3,23.5z"/>
	<path d="M376.7,65.7c-2.3-0.1-4.6-2.5-6.9-7.2c-1.5-3-2.9-6.5-4-10.5c-2.1,0.3-5.6,0.6-10.5,0.8c-4.6,0.3-8.1,0.6-10.5,1
		c-1.3,2.8-3.6,7.1-6.9,12.7c-1.3,1.8-3,2.8-5.3,2.8c-1.6,0-3-0.5-4.3-1.4c-1.3-1-1.9-2.2-1.9-3.7c0-1.3,2.1-5.7,6.3-13.3
		c-0.4-0.8-0.6-1.5-0.5-2.2c0.1-1.2,1.5-2.2,4.2-2.9c4.1-6.3,8.7-12.9,13.7-19.6c7.2-9.7,11.7-14.6,13.4-14.6c3.2,0,5.3,1.7,6.4,5.1
		c0.6,2.7,1.5,6.9,2.7,12.4c1.8,7.4,3.9,15.8,6.5,25.4c0.2,0.7,0.9,2.4,2.2,5.1c1,2.2,1.6,3.9,1.6,5c0,1.5-0.6,2.7-1.9,3.7
		C379.7,65.2,378.3,65.7,376.7,65.7z M360.5,26.2c-2.3,3.4-5.4,8.1-9.3,14.1c1.3-0.3,3.3-0.5,6.1-0.6c3.2-0.2,5.3-0.3,6.1-0.4
		C362.6,35.8,361.7,31.5,360.5,26.2z"/>
	<path d="M433.3,16.4c-0.7,0-1.4-0.1-2.2-0.3c-3.7-1.1-8.3-1.6-13.7-1.6c-1.8,0-3.8,0.1-6.1,0.3c-2.3,0.2-4.9,0.5-7.7,0.9
		c0.1,4.9,0.1,9.2,0,12.7c4.4-0.9,8-1.4,10.9-1.4c5.4,0,10.1,0.2,14.1,0.7c3.7,0.4,5.6,2.2,5.6,5.2c0,1.5-0.6,2.7-1.8,3.7
		c-1.2,1-2.6,1.5-4.3,1.5c-1.5,0-3.8-0.1-6.8-0.3c-3-0.2-5.3-0.3-6.8-0.3c-2.1,0-5.8,0.6-10.9,1.8v24.1c0,1.5-0.7,2.7-2,3.7
		c-1.3,1-2.8,1.5-4.5,1.5c-1.7,0-3-0.5-4.1-1.5c-1-1-1.6-2.2-1.6-3.8V19.2c0-1,0-2.5,0.1-4.5c0-2,0.1-3.5,0.1-4.5
		c0-1.5,0.6-2.8,1.7-3.8s2.6-1.5,4.3-1.5c1.1,0,2.1,0.2,2.9,0.6c3.4-0.5,6.4-0.9,9.3-1.1c2.8-0.2,5.3-0.4,7.6-0.4
		c3.3,0,7.5,0.6,12.5,1.8c6.3,1.5,9.4,3.3,9.4,5.3c0,1.5-0.6,2.7-1.8,3.8C436.4,15.9,435,16.4,433.3,16.4z"/>
	<path d="M489.6,15.2c-0.6,0-1.2-0.1-1.8-0.2c-4.7-1.1-9.3-1.7-13.7-1.7c-2.2,0-4.5,0.2-7,0.5c-2.5,0.3-5.1,0.8-7.9,1.4
		c0,3.4-0.1,8.5-0.4,15.2c1.6-0.1,7.3-0.6,17-1.4c5.5-0.5,9-0.7,10.5-0.7c1.7,0,3.2,0.5,4.4,1.4s1.8,2.2,1.8,3.8
		c0,3.1-1.8,4.8-5.5,5.2c-2.3,0.2-5.8,0.4-10.4,0.8c-4.1,0.4-10.3,0.9-18.6,1.5c-0.2,3.3-0.3,5.9-0.3,7.9c0,5,0.3,7.9,1,8.6
		c0.3,0.3,2.1,0.5,5.5,0.5c1.8,0,4.5,0,8.1-0.1c3.6-0.1,6.3-0.1,8.1-0.1c0.6,0,1.4-0.1,2.6-0.2c1.1-0.2,2-0.2,2.5-0.2
		c1.7,0,3.1,0.4,4.3,1.3c1.4,1,2,2.3,2,4c0,2.9-1.7,4.6-5.1,5.2c-2.9,0.5-8.9,0.7-18,0.7c-9.4,0-15.6-1.1-18.5-3.4
		c-3.2-2.5-4.7-7.9-4.7-16.2c0-3.4,0.3-8.6,0.8-15.5c0.6-6.9,0.8-12,0.8-15.5c0-0.9-0.1-2.2-0.4-4c-0.3-1.8-0.4-3.1-0.4-4
		c0-3.9,2-5.9,6.1-5.9c1.3,0,2.4,0.3,3.5,1c3.4-0.7,6.6-1.3,9.6-1.7c3-0.4,5.9-0.6,8.6-0.6c7.3,0,13.1,0.7,17.5,2.2
		c2.7,0.9,4,2.5,4,4.9c0,1.3-0.5,2.5-1.6,3.5C492.9,14.6,491.4,15.2,489.6,15.2z"/>
</g>
</svg>
